<svg width="121" height="120" viewBox="0 0 121 120" fill="none" xmlns="http://www.w3.org/2000/svg">
<path d="M62.5 112C90.1142 112 112.5 89.6142 112.5 62C112.5 34.3858 90.1142 12 62.5 12C34.8858 12 12.5 34.3858 12.5 62C12.5 89.6142 34.8858 112 62.5 112Z" fill="url(#paint0_linear)"/>
<g filter="url(#filter0_d)">
<path d="M58.1593 38.6182C56.7325 38.618 55.3506 38.119 54.2529 37.2074C53.1552 36.2959 52.4107 35.0292 52.1484 33.6266L51.3918 29.4232C51.1415 27.8418 51.5202 26.2253 52.4468 24.9196C53.3735 23.6139 54.7744 22.7229 56.3498 22.4372C57.9252 22.1515 59.5498 22.4939 60.8759 23.391C62.202 24.2882 63.1242 25.6688 63.4451 27.2374L64.2018 31.4409C64.49 33.0389 64.1331 34.686 63.2093 36.0214C62.2856 37.3568 60.8702 38.2717 59.2732 38.5657C58.9041 38.6149 58.5314 38.6324 58.1593 38.6182ZM57.4237 24.3055C57.1801 24.3039 56.937 24.3286 56.6986 24.3791C55.6497 24.5708 54.7198 25.1709 54.1129 26.0477C53.5061 26.9244 53.272 28.0062 53.462 29.0554L54.2186 33.2588C54.4103 34.3077 55.0104 35.2377 55.8872 35.8445C56.764 36.4514 57.8457 36.6855 58.8949 36.4955C59.9438 36.3038 60.8738 35.7036 61.4806 34.8269C62.0874 33.9501 62.3216 32.8684 62.1316 31.8192L61.3749 27.6157C61.2077 26.6888 60.7207 25.8499 59.9988 25.2451C59.2768 24.6402 58.3656 24.3078 57.4237 24.3055Z" fill="#84AEE0"/>
<path d="M58.1569 38.7432C58.5354 38.7575 58.9143 38.7396 59.2897 38.6896L59.2897 38.6898L59.2959 38.6886C60.9253 38.3887 62.3695 37.4551 63.3121 36.0925C64.2547 34.7299 64.6188 33.0493 64.3248 31.4187C64.3248 31.4187 64.3248 31.4187 64.3248 31.4187L63.5682 27.2153L63.5682 27.2153L63.5676 27.2123C63.2401 25.6118 62.2991 24.203 60.9459 23.2875C59.5928 22.3721 57.935 22.0227 56.3275 22.3142C54.72 22.6057 53.2904 23.5149 52.3449 24.8473C51.3993 26.1796 51.0129 27.8291 51.2683 29.4427L51.2683 29.4427L51.2687 29.4453L52.0254 33.6488L52.0255 33.6496C52.2932 35.0808 53.0529 36.3734 54.173 37.3036C55.2925 38.2333 56.7018 38.7425 58.1569 38.7432ZM58.1569 38.7432C58.1561 38.7432 58.1553 38.7432 58.1545 38.7431L58.1593 38.6182L58.1593 38.7432C58.1585 38.7432 58.1577 38.7432 58.1569 38.7432ZM57.4229 24.4305L57.4234 24.4305C58.336 24.4327 59.2189 24.7548 59.9185 25.3409C60.618 25.927 61.0899 26.7398 61.2519 27.6379L62.0085 31.8413L62.0086 31.8414C62.1927 32.8581 61.9658 33.9062 61.3778 34.7557C60.7899 35.6052 59.8889 36.1867 58.8726 36.3725C57.856 36.5566 56.8079 36.3297 55.9583 35.7417C55.1089 35.1538 54.5274 34.2528 54.3416 33.2366C54.3416 33.2365 54.3416 33.2364 54.3415 33.2364L53.585 29.0333L53.585 29.0331C53.4009 28.0165 53.6277 26.9684 54.2157 26.1188C54.8037 25.2693 55.7048 24.6878 56.7211 24.502L56.7211 24.5021L56.7245 24.5014C56.9541 24.4527 57.1882 24.429 57.4229 24.4305Z" stroke="#84AEE0" stroke-width="0.25"/>
</g>
<g filter="url(#filter1_d)">
<path d="M53 97C57.4183 97 61 93.4183 61 89C61 84.5817 57.4183 81 53 81C48.5817 81 45 84.5817 45 89C45 93.4183 48.5817 97 53 97Z" fill="#84AEE0"/>
</g>
<g filter="url(#filter2_d)">
<path d="M94.9364 68.9303C89.5093 65.3724 86.587 54.1189 86.587 54.1189L85.921 50.5119C85.3572 47.4407 84.1867 44.5096 82.4765 41.8859C80.7664 39.2623 78.55 36.9976 75.9542 35.2214C73.3584 33.4451 70.4341 32.1921 67.3483 31.534C64.2625 30.8759 61.0758 30.8256 57.9703 31.3859C54.8643 31.9434 51.8999 33.1008 49.2465 34.7918C46.5931 36.4828 44.3027 38.6742 42.5064 41.2409C40.71 43.8076 39.4428 46.6992 38.7772 49.7504C38.1116 52.8016 38.0607 55.9526 38.6274 59.0233L39.2934 62.6401C39.2934 62.6401 40.5657 74.1885 36.7189 79.427C32.8722 84.6655 34.234 87.1816 34.234 87.1816C34.5429 88.0463 35.128 88.7882 35.9008 89.2952C36.6736 89.8023 37.5922 90.047 38.5181 89.9925C40.4136 89.9085 42.3005 89.6884 44.1639 89.334L91.4973 80.803C93.3669 80.4749 95.2105 80.0151 97.0139 79.427C97.8966 79.1521 98.665 78.6007 99.2029 77.8561C99.7408 77.1114 100.019 76.2139 99.9958 75.2991C99.9958 75.2991 100.334 72.4783 94.9364 68.9303Z" fill="url(#paint1_radial)"/>
</g>
<path d="M79.892 27.889C79.6238 27.0355 79.1278 26.2713 78.4575 25.6787C77.7871 25.0862 76.9679 24.6877 76.0879 24.5262C78.8622 23.8852 79.4506 20.7326 79.4506 20.7326C79.7614 21.5615 80.2707 22.3015 80.9339 22.8878C81.5971 23.4741 82.394 23.8887 83.2548 24.0954C82.4537 24.4476 81.7384 24.969 81.1579 25.6239C80.5774 26.2787 80.1456 27.0514 79.892 27.889Z" fill="white"/>
<path d="M23.2391 45.9007C23.3624 45.5881 23.3982 45.2478 23.3426 44.9164C23.2871 44.585 23.1423 44.275 22.9238 44.0197C23.2348 44.1421 23.5733 44.1774 23.9029 44.1218C24.2324 44.0663 24.5407 43.922 24.7944 43.7044C24.6905 44.0183 24.6649 44.3528 24.7198 44.6788C24.7748 45.0048 24.9086 45.3125 25.1096 45.5749C24.7928 45.491 24.4616 45.4766 24.1387 45.5328C23.8158 45.5891 23.5089 45.7146 23.2391 45.9007Z" fill="white"/>
<path d="M94.6569 31.0836C95.0284 31.0836 95.3295 30.7825 95.3295 30.4111C95.3295 30.0396 95.0284 29.7385 94.6569 29.7385C94.2855 29.7385 93.9844 30.0396 93.9844 30.4111C93.9844 30.7825 94.2855 31.0836 94.6569 31.0836Z" fill="#97BADD"/>
<path d="M90.8095 41.8654C91.6858 41.8654 92.3963 41.1549 92.3963 40.2786C92.3963 39.4022 91.6858 38.6918 90.8095 38.6918C89.9331 38.6918 89.2227 39.4022 89.2227 40.2786C89.2227 41.1549 89.9331 41.8654 90.8095 41.8654Z" fill="#97BADD"/>
<defs>
<filter id="filter0_d" x="48.0664" y="19.0889" width="23.4828" height="26.7841" filterUnits="userSpaceOnUse" color-interpolation-filters="sRGB">
<feFlood flood-opacity="0" result="BackgroundImageFix"/>
<feColorMatrix in="SourceAlpha" type="matrix" values="0 0 0 0 0 0 0 0 0 0 0 0 0 0 0 0 0 0 127 0" result="hardAlpha"/>
<feOffset dx="2" dy="2"/>
<feGaussianBlur stdDeviation="2.5"/>
<feComposite in2="hardAlpha" operator="out"/>
<feColorMatrix type="matrix" values="0 0 0 0 0.556863 0 0 0 0 0.709804 0 0 0 0 0.886275 0 0 0 1 0"/>
<feBlend mode="normal" in2="BackgroundImageFix" result="effect1_dropShadow"/>
<feBlend mode="normal" in="SourceGraphic" in2="effect1_dropShadow" result="shape"/>
</filter>
<filter id="filter1_d" x="41" y="77" width="28" height="28" filterUnits="userSpaceOnUse" color-interpolation-filters="sRGB">
<feFlood flood-opacity="0" result="BackgroundImageFix"/>
<feColorMatrix in="SourceAlpha" type="matrix" values="0 0 0 0 0 0 0 0 0 0 0 0 0 0 0 0 0 0 127 0" result="hardAlpha"/>
<feOffset dx="2" dy="2"/>
<feGaussianBlur stdDeviation="3"/>
<feComposite in2="hardAlpha" operator="out"/>
<feColorMatrix type="matrix" values="0 0 0 0 0.428594 0 0 0 0 0.637788 0 0 0 0 0.879167 0 0 0 0.6 0"/>
<feBlend mode="normal" in2="BackgroundImageFix" result="effect1_dropShadow"/>
<feBlend mode="normal" in="SourceGraphic" in2="effect1_dropShadow" result="shape"/>
</filter>
<filter id="filter2_d" x="22" y="19" width="90" height="83" filterUnits="userSpaceOnUse" color-interpolation-filters="sRGB">
<feFlood flood-opacity="0" result="BackgroundImageFix"/>
<feColorMatrix in="SourceAlpha" type="matrix" values="0 0 0 0 0 0 0 0 0 0 0 0 0 0 0 0 0 0 127 0" result="hardAlpha"/>
<feOffset/>
<feGaussianBlur stdDeviation="6"/>
<feComposite in2="hardAlpha" operator="out"/>
<feColorMatrix type="matrix" values="0 0 0 0 0.486215 0 0 0 0 0.666939 0 0 0 0 0.870833 0 0 0 1 0"/>
<feBlend mode="normal" in2="BackgroundImageFix" result="effect1_dropShadow"/>
<feBlend mode="normal" in="SourceGraphic" in2="effect1_dropShadow" result="shape"/>
</filter>
<linearGradient id="paint0_linear" x1="70.0977" y1="20.2282" x2="63.3302" y2="57.4498" gradientUnits="userSpaceOnUse">
<stop stop-color="#DFEBFF"/>
<stop offset="1" stop-color="#C8DBFA"/>
</linearGradient>
<radialGradient id="paint1_radial" cx="0" cy="0" r="1" gradientUnits="userSpaceOnUse" gradientTransform="translate(89.4994 81.029) scale(82.8285 81.8999)">
<stop stop-color="white"/>
<stop offset="0.15" stop-color="#F9FBFD"/>
<stop offset="0.35" stop-color="#E8F0F9"/>
<stop offset="0.703125" stop-color="#CCDEF2"/>
<stop offset="1" stop-color="#A6C4E8"/>
</radialGradient>
</defs>
</svg>
