<svg width="105" height="32" viewBox="0 0 105 32" fill="none" xmlns="http://www.w3.org/2000/svg">
    <path fill-rule="evenodd" clip-rule="evenodd" d="M16 0C7.16344 0 0 7.16344 0 16C0 24.8366 7.16344 32 16 32C24.8366 32 32 24.8366 32 16C32 7.16344 24.8366 0 16 0ZM16 9C12.134 9 9 12.134 9 16C9 19.866 12.134 23 16 23C19.866 23 23 19.866 23 16C23 12.134 19.866 9 16 9Z" fill="#3E6DDA"/>
    <path d="M47.408 18.856H43.584V9.96H41.008V21H47.408V18.856ZM51.1785 10.872C51.1785 10.088 50.5865 9.544 49.7225 9.544C48.8585 9.544 48.2665 10.088 48.2665 10.872C48.2665 11.672 48.8585 12.2 49.7225 12.2C50.5865 12.2 51.1785 11.672 51.1785 10.872ZM51.0025 13.112H48.4425V21H51.0025V13.112ZM60.467 16.344C60.467 14.44 59.875 12.968 57.587 12.968C56.451 12.968 55.731 13.544 55.299 14.248H55.267L55.283 13.112H52.723V21H55.283V17.096C55.283 15.96 55.587 15.064 56.691 15.064C57.747 15.064 57.907 15.848 57.907 16.888V21H60.467V16.344ZM69.8576 16.824C69.8576 14.52 68.2416 12.968 65.9056 12.968C63.5696 12.968 61.6496 14.456 61.6496 17.064C61.6496 19.672 63.4256 21.176 65.8576 21.176C68.3056 21.176 69.3456 20.088 69.6016 19.896L68.5936 18.568C68.1456 18.872 67.2496 19.32 66.2256 19.32C65.1856 19.32 64.3216 18.808 64.2096 17.672H69.8256C69.8256 17.672 69.8576 17.208 69.8576 16.824ZM64.2256 16.216C64.2576 15.464 64.8016 14.632 65.8576 14.632C66.9296 14.632 67.4576 15.496 67.4736 16.216H64.2256ZM79.7555 17.832C79.7555 16.472 78.8435 15.544 77.4675 15.208V15.176C78.2995 14.888 79.0835 13.96 79.0835 12.744C79.0835 11.528 78.4115 10.808 77.6755 10.424C76.9395 10.04 75.9635 9.96 74.9555 9.96H71.1955V21H75.7075C76.8435 21 77.8355 20.792 78.5395 20.28C79.2435 19.768 79.7555 19.048 79.7555 17.832ZM76.5395 13.128C76.5395 13.672 76.3155 13.96 75.9955 14.184C75.6915 14.392 75.3555 14.424 74.7795 14.424H73.7715V11.88H74.8435C75.4035 11.88 75.6915 11.912 75.9955 12.104C76.3155 12.296 76.5395 12.6 76.5395 13.128ZM77.1315 17.624C77.1315 18.104 76.9555 18.472 76.5715 18.728C76.1875 19 75.7555 19.032 75.1955 19.032H73.7715V16.216H75.1955C75.7555 16.216 76.1875 16.248 76.5715 16.52C76.9555 16.792 77.1315 17.128 77.1315 17.624ZM88.0763 16.552C88.0763 15.224 87.7403 14.456 87.1323 13.88C86.5083 13.304 85.6603 12.968 84.1883 12.968C82.7163 12.968 81.4843 13.432 80.8123 13.768L81.4843 15.432C81.8843 15.176 82.8923 14.728 83.9003 14.728C84.9243 14.728 85.5163 15.16 85.5163 15.992V16.168L83.5323 16.248C82.0763 16.312 80.4603 16.904 80.4603 18.664C80.4603 20.424 81.9323 21.176 83.3243 21.176C84.6043 21.176 85.2443 20.504 85.5803 20.168L85.6283 21H88.0763V16.552ZM85.5323 18.824C85.3723 19.096 84.9083 19.544 84.2203 19.544C83.5163 19.544 83.0203 19.176 83.0203 18.568C83.0203 17.976 83.4843 17.64 84.2682 17.608L85.5323 17.528V18.824ZM95.6765 18.568C95.6765 17.736 95.2925 17.224 95.0365 16.968C94.7645 16.712 94.3645 16.504 94.0125 16.376C93.6765 16.248 93.4365 16.168 92.8925 16.008C92.3485 15.848 91.7405 15.656 91.7405 15.24C91.7405 14.824 92.0765 14.664 92.6845 14.664C93.3245 14.664 94.2205 15.08 94.6685 15.432L95.5005 13.928C95.0525 13.56 94.1245 12.952 92.4765 12.952C90.8285 12.952 89.4845 13.896 89.4845 15.432C89.4845 16.84 90.4605 17.336 90.8285 17.496C91.1965 17.656 91.6445 17.784 91.9485 17.864C92.2365 17.96 93.3885 18.216 93.3885 18.728C93.3885 19.24 92.9405 19.4 92.3005 19.4C91.6605 19.4 90.6045 18.984 89.9645 18.44L89.0045 19.96C89.9005 20.808 91.1485 21.176 92.3325 21.176C93.3885 21.176 94.1725 20.936 94.7485 20.488C95.3245 20.024 95.6765 19.384 95.6765 18.568ZM104.623 16.824C104.623 14.52 103.007 12.968 100.671 12.968C98.3353 12.968 96.4153 14.456 96.4153 17.064C96.4153 19.672 98.1913 21.176 100.623 21.176C103.071 21.176 104.111 20.088 104.367 19.896L103.359 18.568C102.911 18.872 102.015 19.32 100.991 19.32C99.9513 19.32 99.0873 18.808 98.9753 17.672H104.591C104.591 17.672 104.623 17.208 104.623 16.824ZM98.9913 16.216C99.0233 15.464 99.5673 14.632 100.623 14.632C101.695 14.632 102.223 15.496 102.239 16.216H98.9913Z" fill="#141417"/>
    </svg>
