<svg width="126" height="118" viewBox="0 0 126 118" fill="none" xmlns="http://www.w3.org/2000/svg">
<path d="M62.2522 96.4243C84.7528 96.4243 102.994 78.1826 102.994 55.6015C102.994 33.0204 84.7528 14.7787 62.2522 14.7787C39.7514 14.7787 21.5098 33.0204 21.5098 55.6015C21.5098 78.1826 39.7514 96.4243 62.2522 96.4243Z" fill="#DFEBFF"/>
<path d="M32.278 29.163H90.2172C92.5476 29.163 94.3156 30.9309 94.3156 33.2613V69.9857C94.3156 72.3162 92.5476 74.0841 90.2172 74.0841H32.278C29.9476 74.0841 28.1797 72.3162 28.1797 69.9857V33.2613C28.1797 30.9309 30.1083 29.163 32.278 29.163Z" fill="#83ADE3"/>
<path d="M95.4395 52.7083V70.7893C95.4395 73.1197 93.5912 75.0484 91.1804 75.0484H31.6341C29.3036 75.0484 27.375 73.1197 27.375 70.7893V51.1815" stroke="#1676EE" stroke-width="3" stroke-linecap="round" stroke-linejoin="round"/>
<path d="M90.3779 42.583H71.5739C69.7256 42.583 67.9577 43.2259 66.5916 44.3509L61.6896 48.3689C60.3235 49.494 58.5556 50.1368 56.7073 50.1368H35.4923C33.3226 50.1368 31.5547 51.9047 31.5547 54.0745C31.5547 54.2352 31.5547 54.4763 31.635 54.637L35.5727 75.3698C35.8941 77.2984 37.5013 78.7449 39.5103 78.7449H84.9134C86.8421 78.7449 88.5296 77.3788 88.8511 75.4502L94.3155 47.0832C94.7173 44.9134 93.2709 42.9848 91.1011 42.583C90.7797 42.583 90.5386 42.583 90.3779 42.583Z" fill="white"/>
<g filter="url(#filter0_d)">
<path d="M98.8152 37.0382H74.3859C71.9751 37.0382 69.7251 37.8418 67.8768 39.3687L61.448 44.5921C59.6801 46.0385 57.3497 46.9225 54.9389 46.9225H27.2951C24.4825 46.9225 22.2324 49.2529 22.2324 51.9852C22.2324 52.2262 22.2324 52.4673 22.3128 52.7084L27.3754 79.7897C27.7772 82.3613 29.947 84.2096 32.4381 84.2096H91.5828C94.1544 84.2096 96.2437 82.4417 96.6455 79.87L103.798 42.8242C104.28 40.0116 102.431 37.5204 99.6188 36.9579C99.3778 37.0382 99.0563 37.0382 98.8152 37.0382Z" fill="white"/>
</g>
<path d="M102.752 82.3613C102.431 83.7274 101.949 85.1739 101.386 86.3793C99.8594 89.3526 97.4486 91.683 94.4753 93.2098C91.4216 94.7367 87.8054 95.3796 84.1895 94.576C75.6713 92.8081 70.2068 84.4506 71.9748 75.9323C73.7427 67.4142 82.0197 61.8694 90.5376 63.7176C93.5913 64.3605 96.2432 65.8874 98.4933 67.9767C102.27 71.7536 103.877 77.2181 102.752 82.3613Z" fill="#83ADE3"/>
<path d="M92.3871 77.7805H88.7709V74.1643C88.7709 73.4411 88.2084 72.7982 87.4048 72.7982C86.6816 72.7982 86.0387 73.3607 86.0387 74.1643V77.7805H82.4228C81.6995 77.7805 81.0566 78.343 81.0566 79.1466C81.0566 79.9502 81.6192 80.5131 82.4228 80.5131H86.0387V84.1293C86.0387 84.8525 86.6012 85.4954 87.4048 85.4954C88.1281 85.4954 88.7709 84.9329 88.7709 84.1293V80.5131H92.3871C93.1104 80.5131 93.7532 79.9502 93.7532 79.1466C93.7532 78.343 93.1104 77.7805 92.3871 77.7805Z" fill="white"/>
<path d="M58.6354 46.0385C55.7425 40.4134 55.0996 33.6631 57.0282 27.5558C58.8765 21.4484 63.2963 16.2251 68.7607 13.2517C70.4483 12.3678 72.3769 11.6446 74.3056 11.5642C76.2342 11.4838 78.3236 12.1267 79.6093 13.7339C80.8951 15.1804 81.1362 17.5912 80.0915 19.1984C78.9664 20.7252 76.7164 21.3681 74.8681 20.8859C71.8948 20.3234 69.484 17.993 68.7607 15.1804C68.0375 12.3678 69.0018 9.07304 71.2519 7.22476C72.6984 5.93901 74.7074 5.21577 76.5556 4.65325C85.5558 2.00138 95.3597 1.67994 104.521 3.68893" stroke="#B6D4FF" stroke-width="2" stroke-miterlimit="10" stroke-dasharray="4 4"/>
<path d="M109.342 1.59952C109.261 2.80492 109.181 3.92996 108.297 4.17104C107.413 4.41212 107.011 3.60852 106.449 2.48348C105.886 1.4388 106.208 0.313771 107.172 0.0726913C108.056 -0.168388 109.502 0.153051 109.342 1.59952Z" fill="#C6D4E9"/>
<path d="M108.378 7.38539C108.619 5.93891 108.86 5.13532 108.056 4.73352C107.172 4.33172 106.61 5.05496 105.645 6.01927C104.842 6.90323 105.324 8.18901 106.128 8.59081C107.092 9.07297 108.137 8.59081 108.378 7.38539Z" fill="#C6D4E9"/>
<path d="M109.503 4.73364C109.422 5.29616 109.021 5.69796 108.458 5.77832C108.217 5.77832 107.976 5.77832 107.654 5.77832C106.529 5.6176 105.645 4.89436 105.726 4.17113C105.806 3.44789 106.851 3.04609 108.137 3.20681C108.378 3.20681 108.619 3.28717 108.779 3.36753C109.262 3.52825 109.583 4.09077 109.503 4.73364C109.503 4.73364 109.503 4.65328 109.503 4.73364Z" fill="#83ADE2"/>
<path d="M19.8223 27.3147C19.8223 25.9486 19.8223 24.5825 20.7866 24.1807C21.8313 23.7789 22.3938 24.7432 23.1974 26.1093C23.9206 27.3147 23.5992 28.6005 22.5545 29.0023C21.6705 29.4041 19.8223 29.163 19.8223 27.3147Z" fill="#C6D4E9"/>
<path d="M20.3843 20.5646C20.2236 22.2521 19.9825 23.2165 21.0272 23.6182C22.0719 24.02 22.6344 23.1361 23.6791 21.8503C24.4827 20.7253 23.9201 19.2788 22.8755 18.877C21.8308 18.4752 20.545 19.1985 20.3843 20.5646Z" fill="#C6D4E9"/>
<path d="M19.5 23.779C19.5 23.1361 19.9822 22.6539 20.5447 22.5736C20.7858 22.4932 21.1072 22.4932 21.4286 22.5736C22.7144 22.6539 23.8394 23.3772 23.7591 24.1808C23.6787 24.9844 22.634 25.5469 21.2679 25.3862C21.0268 25.3862 20.7858 25.3058 20.5447 25.2254C19.9018 25.1451 19.5 24.5022 19.5 23.779Z" fill="#83ADE2"/>
<path d="M24.9648 24.02C33.4026 24.02 48.9924 28.922 49.2335 46.9226" stroke="#B6D4FF" stroke-width="2" stroke-miterlimit="10" stroke-dasharray="4 4"/>
<defs>
<filter id="filter0_d" x="0.232422" y="25.9579" width="125.642" height="91.2517" filterUnits="userSpaceOnUse" color-interpolation-filters="sRGB">
<feFlood flood-opacity="0" result="BackgroundImageFix"/>
<feColorMatrix in="SourceAlpha" type="matrix" values="0 0 0 0 0 0 0 0 0 0 0 0 0 0 0 0 0 0 127 0" result="hardAlpha"/>
<feOffset dy="11"/>
<feGaussianBlur stdDeviation="11"/>
<feColorMatrix type="matrix" values="0 0 0 0 0.2 0 0 0 0 0.454902 0 0 0 0 0.764706 0 0 0 0.27 0"/>
<feBlend mode="normal" in2="BackgroundImageFix" result="effect1_dropShadow"/>
<feBlend mode="normal" in="SourceGraphic" in2="effect1_dropShadow" result="shape"/>
</filter>
</defs>
</svg>
