<svg width="40" height="40" viewBox="0 0 40 40" fill="none" xmlns="http://www.w3.org/2000/svg">
<rect width="40" height="40" rx="20" fill="#B4B4BE"/>
<path d="M17.7963 8C20.8429 8 23.3117 10.4695 23.3117 13.5146C23.3117 16.5605 20.8429 19.0293 17.7963 19.0293C14.7512 19.0293 12.2824 16.5605 12.2824 13.5146C12.2824 10.4695 14.7512 8 17.7963 8ZM17.7927 32C14.7541 32 11.9712 30.8934 9.82463 29.0618C9.30173 28.6158 9 27.9618 9 27.2756C9 24.1872 11.4995 21.7155 14.5886 21.7155H21.0055C24.0953 21.7155 26.5853 24.1872 26.5853 27.2756C26.5853 27.9625 26.285 28.6151 25.7614 29.0611C23.6156 30.8934 20.8319 32 17.7927 32Z" fill="white"/>
<circle cx="28" cy="25" r="9" fill="#6B6B7B" stroke="#B4B4BE" stroke-width="2"/>
<path fill-rule="evenodd" clip-rule="evenodd" d="M23.2578 25.2004C23.2578 24.1305 24.1251 23.2632 25.195 23.2632H31.0066C32.0765 23.2632 32.9438 24.1305 32.9438 25.2004C32.9438 26.2703 32.0765 27.1376 31.0066 27.1376H25.195C24.1251 27.1376 23.2578 26.2703 23.2578 25.2004Z" fill="white"/>
</svg>
