<svg width="121" height="120" viewBox="0 0 121 120" fill="none" xmlns="http://www.w3.org/2000/svg">
<path d="M58.9633 109.75C80.3855 109.75 97.7528 92.3467 97.7528 70.8027C97.7528 49.2588 80.3855 31.8549 58.9633 31.8549C37.5411 31.8549 20.1738 49.2588 20.1738 70.8027C20.1738 92.3467 37.5411 109.75 58.9633 109.75Z" fill="#DFEBFF"/>
<g filter="url(#filter0_d)">
<path fill-rule="evenodd" clip-rule="evenodd" d="M51.0454 8.47385C49.2342 7.32599 46.9095 7.32599 45.0982 8.47385C36.6589 13.8221 26.4544 17.4997 15.2863 18.8727C13.4991 19.0924 12.0938 20.5562 12.0938 22.3568C12.0938 55.6991 27.7517 83.2571 48.0719 87.6394C68.392 83.2572 84.0499 55.6991 84.0499 22.3568C84.0499 20.5562 82.6446 19.0924 80.8574 18.8727C69.6892 17.4997 59.4847 13.8221 51.0454 8.47385Z" fill="#DFEBFF"/>
</g>
<path fill-rule="evenodd" clip-rule="evenodd" d="M51.059 16.0637C49.233 14.9394 46.9116 14.9394 45.0856 16.0637C38.3413 20.2162 30.2577 23.0716 21.4338 24.1564C19.9817 24.3349 18.8398 25.5242 18.8398 26.9872C18.8398 54.0781 31.562 76.4693 48.0723 80.0298C64.5826 76.4693 77.3048 54.0782 77.3048 26.9873C77.3048 25.5243 76.1629 24.3349 74.7109 24.1564C65.8869 23.0716 57.8033 20.2162 51.059 16.0637Z" fill="white"/>
<path fill-rule="evenodd" clip-rule="evenodd" d="M43.2137 42.7454V39.3063C43.2137 37.0904 45.0101 35.294 47.226 35.294H48.9183C51.1342 35.294 52.9305 37.0904 52.9305 39.3063V42.7454H43.2137ZM39.7746 43.0037V39.3063C39.7746 35.191 43.1107 31.8549 47.226 31.8549H48.9183C53.0335 31.8549 56.3696 35.191 56.3696 39.3063V43.0037C57.8851 43.5769 58.9626 45.0415 58.9626 46.7577V54.291C58.9626 56.5069 57.1663 58.3032 54.9503 58.3032H41.1939C38.978 58.3032 37.1816 56.5069 37.1816 54.291V46.7577C37.1816 45.0415 38.2592 43.5769 39.7746 43.0037Z" fill="#83ADE3"/>
<path fill-rule="evenodd" clip-rule="evenodd" d="M49.0713 50.6746C49.7124 50.3217 50.1468 49.6396 50.1468 48.8561C50.1468 47.7105 49.2181 46.7817 48.0724 46.7817C46.9268 46.7817 45.998 47.7105 45.998 48.8561C45.998 49.6396 46.4324 50.3217 47.0735 50.6746L46.276 53.7828H49.8689L49.0713 50.6746Z" fill="white"/>
<path d="M70.2396 78.671H72.3173C72.5062 78.671 72.6951 78.4841 72.6951 78.2973C72.8839 77.5501 73.2617 76.9896 73.4506 76.4292C73.4506 76.2424 73.4506 76.0556 73.4506 76.0556L71.9395 74.5611C71.3729 74.0007 70.9951 73.2534 70.9951 72.5062C70.9951 71.7589 71.3729 71.0117 71.9395 70.4512L75.1505 67.2754C75.7171 66.715 76.4727 66.3413 77.2282 66.3413C77.9837 66.3413 78.7392 66.715 79.3059 67.2754L80.8169 68.7699C81.0058 68.9567 81.1947 68.7699 81.1947 68.7699C81.7613 68.3963 82.5168 68.2095 83.0835 68.0227C83.0835 68.0227 83.2724 67.8358 83.2724 67.649V65.5941C83.2724 63.9128 84.5945 62.6051 86.2944 62.6051H90.8276C92.7164 62.6051 94.0385 63.9128 94.0385 65.5941V67.649C94.0385 67.8358 94.2274 68.0227 94.2274 68.0227C94.9829 68.2095 95.5496 68.5831 96.1162 68.7699C96.1162 68.7699 96.3051 68.9567 96.494 68.7699L98.1939 67.2754C98.7605 66.715 99.5161 66.3413 100.272 66.3413C101.027 66.3413 101.783 66.715 102.349 67.2754L105.56 70.4512C106.694 71.5721 106.694 73.4402 105.56 74.5611L104.049 76.0556C104.049 76.0556 104.049 76.2424 104.049 76.4292C104.427 76.9896 104.616 77.7369 104.805 78.2973C104.805 78.2973 104.994 78.671 105.182 78.671H107.26C108.96 78.671 110.282 79.9786 110.282 81.66V86.1434C110.282 87.8248 108.96 89.1324 107.26 89.1324H105.182C104.994 89.1324 104.994 89.1324 104.805 89.3193C104.616 90.0665 104.238 90.8138 103.86 91.561C103.86 91.561 103.86 91.7478 103.86 91.9346L105.371 93.4291C106.505 94.55 106.505 96.4181 105.371 97.539L102.16 100.715C101.594 101.275 100.838 101.649 100.083 101.649C99.3272 101.649 98.5717 101.275 98.005 100.715L96.494 99.2203C96.494 99.2203 96.3051 99.0335 96.1162 99.2203C95.3607 99.5939 94.6052 99.7807 93.8496 100.154C93.6608 100.154 93.6608 100.341 93.6608 100.528V102.396C93.6608 104.077 92.3386 105.385 90.6387 105.385H86.1056C84.4056 105.385 83.0835 104.077 83.0835 102.396V100.528C83.0835 100.341 83.0835 100.154 82.8946 100.154C82.1391 99.9676 81.3835 99.5939 80.628 99.2203C80.628 99.2203 80.4391 99.2203 80.2503 99.2203L78.7392 100.715C78.1726 101.275 77.4171 101.649 76.6615 101.649C75.906 101.649 75.1505 101.275 74.5839 100.715L71.3729 97.539C70.8063 96.9786 70.4285 96.2313 70.4285 95.4841C70.4285 94.7368 70.8063 93.9896 71.3729 93.4291L72.8839 91.9346C72.8839 91.9346 73.0728 91.7478 72.8839 91.561C72.5062 90.8138 72.3173 90.0665 71.9395 89.3193C71.9395 89.1324 71.7507 89.1324 71.5618 89.1324H69.4841C67.7842 89.1324 66.462 87.8248 66.462 86.1434V81.66C67.2175 79.9786 68.5397 78.671 70.2396 78.671ZM80.4391 83.9017C80.4391 88.3852 84.2168 92.1214 88.7499 92.1214C93.283 92.1214 97.0606 88.3852 97.0606 83.9017C97.0606 79.4182 93.283 75.682 88.7499 75.682C84.2168 75.682 80.4391 79.4182 80.4391 83.9017Z" fill="#83ADE3"/>
<defs>
<filter id="filter0_d" x="0.09375" y="-2.38702" width="111.956" height="120.026" filterUnits="userSpaceOnUse" color-interpolation-filters="sRGB">
<feFlood flood-opacity="0" result="BackgroundImageFix"/>
<feColorMatrix in="SourceAlpha" type="matrix" values="0 0 0 0 0 0 0 0 0 0 0 0 0 0 0 0 0 0 127 0" result="hardAlpha"/>
<feOffset dx="8" dy="10"/>
<feGaussianBlur stdDeviation="10"/>
<feColorMatrix type="matrix" values="0 0 0 0 0.509804 0 0 0 0 0.67451 0 0 0 0 0.886275 0 0 0 0.5 0"/>
<feBlend mode="normal" in2="BackgroundImageFix" result="effect1_dropShadow"/>
<feBlend mode="normal" in="SourceGraphic" in2="effect1_dropShadow" result="shape"/>
</filter>
</defs>
</svg>
