<svg width="448" height="168" viewBox="0 0 448 168" fill="none" xmlns="http://www.w3.org/2000/svg">
<path d="M121.999 168L320.539 168V164.023L121.999 164.023V168Z" fill="#4C4E50"/>
<path d="M314.275 105.545C309.295 113.786 298.521 120.515 284.544 125.486C270.588 130.448 253.53 133.626 236.108 134.83C218.687 136.033 200.923 135.26 185.559 132.334C170.179 129.405 157.272 124.333 149.493 116.99C136.57 104.791 134.059 91.1286 136.241 79.1864C138.43 67.212 145.343 56.9584 151.268 51.6742C164.729 39.6672 184.363 25.1032 206.01 16.1661C227.659 7.22794 251.249 3.94495 272.697 14.3743C318.551 36.6713 329.945 79.6058 314.275 105.545Z" stroke="#F5E7D9"/>
<path d="M174.091 18.4079C208.389 -7.48617 308.444 29.9658 319.868 72.6282C329.33 107.966 300.204 132.698 284.595 138.75C249.51 152.353 188.224 166.508 162.429 128.006C134.977 87.0297 147.26 38.6645 174.091 18.4079Z" fill="#F5E7D9"/>
<path d="M257.185 6.2758C240.346 14.7601 247.407 44.4576 265.13 44.4576C282.853 44.4576 298.745 25.9824 290.797 14.2807C282.849 2.57899 268.185 0.733614 257.185 6.2758Z" fill="#00C35C"/>
<path d="M269.088 26.8925L264.189 21.8821L265.545 20.5364C266.039 20.0453 266.317 19.3793 266.317 18.6848C266.317 17.9903 266.039 17.3243 265.545 16.8332L263.033 14.3392C262.538 13.8481 261.868 13.5723 261.168 13.5723C260.469 13.5723 259.798 13.8481 259.303 14.3392L258.563 15.0737C258.026 15.6076 257.599 16.2414 257.308 16.939C257.017 17.6366 256.867 18.3842 256.867 19.1393C256.867 19.8943 257.017 20.642 257.308 21.3396C257.599 22.0372 258.026 22.671 258.563 23.2048L267.757 32.4785C268.294 33.0124 268.933 33.436 269.635 33.7249C270.338 34.0139 271.091 34.1627 271.851 34.1627C272.611 34.1627 273.364 34.0139 274.067 33.7249C274.769 33.436 275.408 33.0124 275.945 32.4785L276.685 31.7439C277.18 31.2529 277.458 30.5868 277.458 29.8924C277.458 29.1979 277.18 28.5318 276.685 28.0408L274.173 25.5468C273.679 25.0557 273.008 24.7798 272.308 24.7798C271.609 24.7798 270.938 25.0557 270.444 25.5468L269.088 26.8925Z" fill="white"/>
<path d="M286.822 58.3581C277.269 69.5049 291.263 88.5461 303.999 83.1822C316.735 77.8184 322.605 59.8343 313.381 53.8945C304.157 47.9548 293.063 51.0762 286.822 58.3581Z" fill="#5CA9DF"/>
<path d="M309.397 73.7123L311.723 63.3643L305.429 67.4432L309.397 73.7123Z" fill="white"/>
<path d="M302.987 69.0225C302.654 69.2401 302.28 69.3888 301.888 69.4598C301.496 69.5309 301.094 69.5229 300.706 69.4363C300.517 69.3949 300.333 69.3359 300.156 69.2599C299.599 69.0205 299.129 68.6173 298.807 68.104L297.916 66.691L291.204 70.4053L308.804 74.3621C308.859 74.3741 308.916 74.3751 308.971 74.3652L304.831 67.8258L302.987 69.0225Z" fill="white"/>
<path d="M293.18 59.1895L290.788 69.8272L297.537 66.0918L293.18 59.1895Z" fill="white"/>
<path d="M302.706 68.4432L311.07 63.0229L293.911 59.1657L299.295 67.6935C299.468 67.9682 299.694 68.2058 299.96 68.3924C300.226 68.5791 300.526 68.7111 300.844 68.7808C301.161 68.8505 301.489 68.8566 301.809 68.7986C302.128 68.7407 302.433 68.6198 302.706 68.4432Z" fill="white"/>
<path d="M284.807 87.2145C284.713 87.2145 284.619 87.2059 284.527 87.1887C282.554 86.8192 278.76 84.6309 278.49 78.9941C278.48 78.7948 278.51 78.5956 278.578 78.4078C278.645 78.2201 278.749 78.0474 278.883 77.8998C279.154 77.6016 279.533 77.4233 279.935 77.4041C280.338 77.3849 280.731 77.5263 281.029 77.7973C281.328 78.0683 281.506 78.4467 281.525 78.8491C281.74 83.363 284.761 84.1362 285.105 84.209C285.496 84.2922 285.84 84.5259 286.061 84.8597C286.282 85.1935 286.363 85.6007 286.286 85.9936C286.219 86.3369 286.035 86.6462 285.765 86.8689C285.495 87.0915 285.157 87.2136 284.807 87.2145Z" fill="white"/>
<path d="M292.921 49.2379C292.597 49.238 292.282 49.1349 292.021 48.9434C291.761 48.7519 291.568 48.4821 291.472 48.1734C291.375 47.8648 291.38 47.5333 291.485 47.2274C291.59 46.9215 291.79 46.6571 292.056 46.4729C292.232 46.3493 296.447 43.4804 301.251 44.2983C301.648 44.3659 302.002 44.5884 302.234 44.9169C302.467 45.2453 302.56 45.6527 302.492 46.0496C302.425 46.4464 302.202 46.8001 301.874 47.0329C301.545 47.2657 301.138 47.3585 300.741 47.2909C297.142 46.6755 293.815 48.945 293.782 48.9685C293.529 49.1441 293.228 49.2381 292.921 49.2379Z" fill="#98D3FD"/>
<path d="M147.114 61.8823L183.886 63.0294C186.703 63.0294 189.043 65.3237 189.043 68.1717V75.1335C189.043 77.942 186.742 80.2758 183.886 80.2758L184.64 86.3279L176.151 80.2758L147.114 81.4229C144.297 81.4229 141.957 79.1287 141.957 76.2807V67.0246C141.957 64.2161 144.258 61.8823 147.114 61.8823Z" fill="#FFC44D"/>
<path d="M173.453 71.6536C173.453 72.959 174.524 74.027 175.833 74.027C177.142 74.027 178.213 72.959 178.213 71.6536C178.213 70.3483 177.142 69.2803 175.833 69.2803C174.524 69.2803 173.453 70.3483 173.453 71.6536Z" fill="white"/>
<path d="M163.102 71.6536C163.102 72.959 164.173 74.027 165.482 74.027C166.791 74.027 167.862 72.959 167.862 71.6536C167.862 70.3483 166.791 69.2803 165.482 69.2803C164.173 69.2803 163.102 70.3483 163.102 71.6536Z" fill="white"/>
<path d="M152.438 71.6546C152.438 72.9599 153.509 74.028 154.818 74.028C156.127 74.028 157.198 72.9599 157.198 71.6546C157.198 70.3493 156.127 69.2812 154.818 69.2812C153.509 69.2812 152.438 70.3493 152.438 71.6546Z" fill="white"/>
<path d="M326.776 163.889C324.595 154.317 320.866 143.993 315.709 133.392C300.675 102.657 286.711 80.5054 242.878 81.7316C242.878 81.7316 225.503 83.6699 217.133 83.9863C209.517 84.2632 174.53 84.9356 162.351 113.297C151.8 137.861 151.681 156.097 152.315 163.929H326.776V163.889Z" fill="#FFB11B"/>
<mask id="mask0" mask-type="alpha" maskUnits="userSpaceOnUse" x="152" y="81" width="175" height="83">
<path d="M326.776 163.888C324.595 154.316 320.866 143.992 315.709 133.391C300.675 102.656 286.711 80.5044 242.878 81.7306C242.878 81.7306 225.503 83.6689 217.133 83.9853C209.517 84.2622 174.53 84.9347 162.351 113.296C151.8 137.86 151.681 156.096 152.315 163.928H326.776V163.888Z" fill="#FCBC3C"/>
</mask>
<g mask="url(#mask0)">
<g opacity="0.9">
<g opacity="0.5">
<path opacity="0.5" d="M329.668 118.531V116.83L147.67 116.83V118.531L329.668 118.531Z" fill="white"/>
</g>
<g opacity="0.5">
<path opacity="0.5" d="M329.688 105.571V103.87L147.69 103.87V105.571L329.688 105.571Z" fill="white"/>
</g>
<g opacity="0.5">
<path opacity="0.5" d="M330.027 92.5623V90.8613L148.029 90.8613V92.5623L330.027 92.5623Z" fill="white"/>
</g>
<g opacity="0.5">
<path opacity="0.5" d="M329.652 131.491V129.79L147.654 129.79V131.491L329.652 131.491Z" fill="white"/>
</g>
<g opacity="0.5">
<path opacity="0.5" d="M329.676 144.445V142.744L147.678 142.744V144.445L329.676 144.445Z" fill="white"/>
</g>
<g opacity="0.5">
<path opacity="0.5" d="M329.66 157.404V155.703L147.662 155.703V157.404L329.66 157.404Z" fill="white"/>
</g>
</g>
</g>
<path fill-rule="evenodd" clip-rule="evenodd" d="M242.879 81.7299L234.866 67.292C234.47 66.58 234.152 65.8284 233.914 65.0769C233.676 64.4044 233.518 63.6924 233.438 62.9409L232.09 52.419L231.812 54.1595C231.812 54.1595 221.657 47.5536 221.657 40.5522C216.778 43.598 208.884 46.6439 204.441 47.9492C202.656 48.4634 201.466 50.0852 201.743 51.9048C202.14 54.3968 202.854 57.6404 203.449 60.2115C203.885 62.0706 204.242 63.5342 204.361 64.0484C206.861 74.5308 210.312 78.0908 215.865 77.1414L217.135 83.9846C215.389 84.0637 212.216 84.1428 208.209 84.578C208.209 84.578 210.907 98.8972 227.25 100.677C243.554 102.457 256.604 82.2837 256.684 82.2046C252.4 81.7299 247.838 81.5717 242.879 81.7299Z" fill="#ED865D"/>
<path d="M209.438 58.0371C209.319 57.6811 209.279 57.3251 209.121 57.0087C209.081 56.6922 208.605 56.534 208.208 56.6527C208.129 56.6527 208.089 56.6922 208.05 56.7318C207.812 56.8109 207.613 56.9691 207.613 57.1669C207.613 57.2856 207.613 57.3251 207.613 57.4043C207.653 57.7603 207.772 58.1163 207.851 58.4723C207.931 58.8678 207.97 59.1843 208.446 59.382C208.724 59.5007 209.2 59.382 209.398 59.1447C209.676 58.7096 209.557 58.4327 209.438 58.0371Z" fill="black"/>
<path d="M221.059 55.2671C220.94 54.9111 220.9 54.5551 220.742 54.2387C220.702 53.9222 220.226 53.764 219.829 53.8827C219.75 53.8827 219.71 53.9222 219.671 53.9618C219.433 54.0409 219.234 54.1991 219.234 54.3969C219.234 54.5155 219.234 54.5551 219.234 54.6342C219.274 54.9902 219.393 55.3462 219.472 55.7022C219.552 56.0978 219.591 56.4142 220.067 56.612C220.345 56.7307 220.821 56.612 221.019 56.3747C221.297 55.9396 221.178 55.6627 221.059 55.2671Z" fill="black"/>
<path d="M204.559 56.8491C204.48 56.8491 204.4 56.8491 204.321 56.8095C204.004 56.6909 203.845 56.2953 204.004 55.9788C204.043 55.8997 204.757 54.2384 206.701 53.4473C208.685 52.6166 210.43 53.8033 210.509 53.8428C210.787 54.0406 210.866 54.4362 210.668 54.7131C210.47 54.99 210.073 55.0691 209.795 54.8713C209.756 54.8317 208.566 54.0406 207.177 54.5944C205.749 55.1877 205.154 56.4535 205.154 56.4931C205.035 56.6909 204.797 56.8491 204.559 56.8491Z" fill="black"/>
<path d="M215.865 53.4508C215.746 53.4508 215.667 53.4112 215.548 53.3717C215.23 53.2134 215.151 52.8179 215.31 52.541C215.349 52.4619 216.222 50.8796 218.206 50.2467C220.268 49.5743 221.895 50.9192 221.974 50.9983C222.252 51.2356 222.291 51.6312 222.053 51.8685C221.815 52.1454 221.419 52.185 221.181 51.9477C221.141 51.9081 219.991 50.9983 218.602 51.4334C217.095 51.9081 216.421 53.0948 216.421 53.1343C216.262 53.3321 216.064 53.4508 215.865 53.4508Z" fill="black"/>
<path d="M216.698 66.223C215.389 66.6977 214 67.1328 213.207 67.4097C212.889 67.5283 212.77 67.9239 213.008 68.1612C213.762 68.9524 215.428 70.139 217.689 69.427C219.95 68.6755 220.545 66.4999 220.664 65.2736C220.704 64.9176 220.307 64.6408 219.99 64.799C219.236 65.1946 217.967 65.7483 216.698 66.223Z" fill="white"/>
<path d="M215.824 77.1425L226.297 74.2945C226.971 74.0967 227.487 74.9274 227.05 75.4416L219.117 87.783C218.76 88.3368 217.887 88.1786 217.768 87.5061L215.824 77.1425Z" fill="#541E0B"/>
<path d="M213.998 64.9567C212.808 64.9567 211.221 64.482 210.705 62.702C210.269 61.2384 210.626 60.2495 210.983 59.3002C211.38 58.2322 211.816 57.0455 211.38 54.7513C211.3 54.3953 211.538 54.0788 211.856 53.9997C212.213 53.9206 212.53 54.1579 212.609 54.4744C213.125 57.1246 212.609 58.5486 212.173 59.6958C211.856 60.6055 211.578 61.2384 211.935 62.3064C212.451 64.0073 214.394 63.6514 214.632 63.6118C214.989 63.5327 215.307 63.77 215.386 64.0865C215.465 64.4029 215.227 64.7589 214.91 64.838C214.593 64.9171 214.275 64.9567 213.998 64.9567Z" fill="#541E0B"/>
<path d="M236.529 41.3806C235.26 37.3855 233.475 34.6957 230.777 32.9552C228.635 31.6103 225.382 30.9379 222.407 31.2939C222.407 31.2939 218.163 24.8858 209.396 28.1689C202.018 30.8983 203.684 36.9108 203.684 36.9108C203.684 36.9108 196.266 38.0184 194.957 46.3251C193.648 54.5923 203.406 60.2488 203.406 60.2488C202.93 58.1919 202.057 53.3265 201.78 51.7443C201.74 51.5465 201.938 51.3487 202.137 51.4278C204.795 52.1398 209.118 49.6082 209.872 47.8282C209.991 47.5909 210.269 47.4722 210.467 47.5909C211.379 47.9865 213.561 48.6985 216.695 47.9073C219.353 47.2744 220.582 45.89 221.138 44.5451C221.217 44.3473 221.495 44.3869 221.535 44.5846C222.566 48.8962 227.167 56.0558 229.111 52.2189L231.729 54.1967L232.007 52.4563L233.356 62.9781C233.435 63.6901 233.594 64.4021 233.832 65.1141C234.347 64.5604 240.456 54.1572 240.615 48.6193C240.813 42.6464 238.116 41.5388 236.529 41.3806Z" fill="black"/>
<path d="M228.676 53.8023C228.676 53.8023 228.953 48.5018 232.167 48.581C235.419 48.6996 239.624 51.6267 234.467 57.9557C229.35 64.3242 228.676 53.8023 228.676 53.8023Z" fill="#ED865D"/>
<path d="M230.779 53.1308C230.779 52.3793 230.898 50.5201 232.484 50.5597C234.071 50.5993 236.055 51.6672 233.912 54.7922C231.651 58.1149 230.739 55.0691 230.779 53.1308Z" fill="#541E0B"/>
<path fill-rule="evenodd" clip-rule="evenodd" d="M212.304 162.403H151.889C146.653 162.403 142.369 158.131 142.369 152.909L130.746 119.841C128.842 114.936 132.491 110.347 137.728 110.347H200.681C205.917 110.347 207.94 113.709 210.202 119.841L221.824 152.909C221.864 158.131 217.54 162.403 212.304 162.403Z" fill="#94AED3"/>
<path fill-rule="evenodd" clip-rule="evenodd" d="M208.179 122.529C205.798 116.082 203.696 112.561 198.182 112.561C198.182 112.561 147.407 112.601 135.705 112.719C133.285 112.759 131.103 114.341 130.508 116.714C130.23 117.703 130.27 118.771 130.706 119.839L142.329 152.908C142.329 158.129 146.613 162.401 151.85 162.401H212.264C215.636 162.401 218.611 160.621 220.317 157.971C220.357 157.694 220.357 157.457 220.357 157.18L208.179 122.529Z" fill="#D0D9EF"/>
<path d="M176.841 138.157C177.674 140.965 176.603 143.813 174.421 144.446C172.239 145.119 169.78 143.339 168.907 140.53C168.074 137.722 169.145 134.874 171.327 134.241C173.509 133.568 175.968 135.348 176.841 138.157Z" fill="white"/>
<path d="M269.454 107.047L270.049 125.045L266.043 122.79L268.145 106.928C268.344 106.177 269.415 106.295 269.454 107.047Z" fill="#14A7C9"/>
<path d="M261.521 132.007C261.521 132.007 250.771 125.362 243.512 122C226.058 113.97 221.536 112.783 219.989 117.609C218.918 121.011 223.797 122.237 228.994 123.78C233.198 125.006 235.975 127.735 235.975 127.735C235.975 127.735 231.731 129.12 231.096 132.877C230.303 137.585 228.24 146.722 232.484 149.095C236.729 151.429 240.894 149.57 240.894 149.57C240.894 149.57 246.805 154.396 253.707 153.249L261.521 132.007Z" fill="#ED865D"/>
<path d="M233.198 129.988C233.04 129.988 232.881 129.909 232.722 129.79C232.484 129.553 232.524 129.157 232.762 128.92C232.881 128.801 235.46 126.467 238.673 126.309C239.03 126.309 239.307 126.586 239.307 126.902C239.307 127.258 239.069 127.535 238.712 127.535C235.975 127.654 233.595 129.79 233.595 129.83C233.516 129.948 233.357 129.988 233.198 129.988Z" fill="#541E0B"/>
<path d="M230.616 137.031C230.458 137.031 230.299 136.991 230.18 136.873C229.942 136.635 229.902 136.24 230.14 136.002C233.393 132.561 239.383 132.363 239.661 132.363C240.018 132.363 240.295 132.64 240.295 132.957C240.295 133.313 240.018 133.59 239.7 133.59C239.661 133.59 233.948 133.787 231.053 136.833C230.934 136.952 230.775 137.031 230.616 137.031Z" fill="#541E0B"/>
<path d="M230.105 144.546C229.946 144.546 229.787 144.506 229.668 144.387C229.43 144.15 229.391 143.754 229.629 143.517C232.881 140.076 239.268 139.443 239.546 139.403C239.942 139.403 240.18 139.641 240.22 139.957C240.26 140.313 239.982 140.59 239.665 140.63C239.585 140.63 233.437 141.262 230.541 144.348C230.462 144.506 230.303 144.546 230.105 144.546Z" fill="#541E0B"/>
<path d="M240.856 150.202C240.618 150.202 240.419 150.084 240.3 149.846C239.467 148.225 237.008 147.078 236.968 147.078C236.651 146.919 236.532 146.563 236.651 146.247C236.809 145.93 237.166 145.812 237.484 145.93C237.603 145.97 240.34 147.275 241.371 149.293C241.53 149.609 241.411 149.965 241.094 150.123C241.054 150.202 240.975 150.202 240.856 150.202Z" fill="#541E0B"/>
<path d="M253.665 153.881C253.586 153.881 253.506 153.881 253.467 153.842C253.149 153.723 252.991 153.367 253.11 153.051L264.336 122.593C264.376 122.434 264.534 122.316 264.693 122.237C264.852 122.157 265.01 122.157 265.169 122.237C265.407 122.316 288.415 132.205 309.042 143.874C309.359 144.032 309.439 144.427 309.28 144.704C309.121 145.021 308.725 145.1 308.447 144.942C289.724 134.341 269.096 125.243 265.328 123.621L254.34 153.486C254.181 153.723 253.943 153.881 253.665 153.881Z" fill="#11BFAE"/>
<path d="M204.24 35.7677C203.883 35.7677 203.605 35.4513 203.605 35.1348C203.605 35.0557 204.042 25.6414 213.602 24.9294C221.377 24.3756 222.964 31.1001 222.964 31.1397C223.043 31.4561 222.845 31.8121 222.488 31.8912C222.131 31.9703 221.813 31.7726 221.734 31.4166C221.694 31.1792 220.266 25.681 213.681 26.1556C205.272 26.749 204.835 34.8184 204.835 35.1348C204.875 35.4908 204.597 35.7677 204.24 35.7677Z" fill="black"/>
</svg>
