<svg width="8" height="10" viewBox="0 0 8 10" fill="none" xmlns="http://www.w3.org/2000/svg">
<path d="M3.66513 0C4.93455 0 5.9632 1.02896 5.9632 2.29776C5.9632 3.56687 4.93455 4.59553 3.66513 4.59553C2.39633 4.59553 1.36767 3.56687 1.36767 2.29776C1.36767 1.02896 2.39633 0 3.66513 0ZM3.6636 10C2.39755 10 1.23798 9.53892 0.343596 8.77575C0.125721 8.58991 0 8.31742 0 8.03149C0 6.74468 1.04147 5.71481 2.32858 5.71481H5.00229C6.28971 5.71481 7.32721 6.74468 7.32721 8.03149C7.32721 8.31772 7.2021 8.58961 6.98392 8.77544C6.08983 9.53892 4.92997 10 3.6636 10Z" fill="white"/>
</svg>
