<svg width="12" height="12" viewBox="0 0 12 12" fill="none" xmlns="http://www.w3.org/2000/svg">
<path d="M11.8983 5.85627L11.3831 5.32145C11.2475 5.18774 11.0305 5.18774 10.922 5.32145L6.71864 9.4663V0.320891C6.71864 0.160446 6.55593 0 6.39322 0H5.6339C5.44407 0 5.30848 0.160446 5.30848 0.320891V9.4663L1.07797 5.32145C0.969492 5.18774 0.752542 5.18774 0.616949 5.32145L0.101695 5.85627C-0.0338983 5.96323 -0.0338983 6.17716 0.101695 6.31086L5.76949 11.8997C5.90509 12.0334 6.09492 12.0334 6.23051 11.8997L11.8983 6.31086C12.0339 6.17716 12.0339 5.96323 11.8983 5.85627Z" fill="#3E6DDA"/>
</svg>
