<svg width="136" height="16" viewBox="0 0 136 16" fill="none" xmlns="http://www.w3.org/2000/svg">
<path fill-rule="evenodd" clip-rule="evenodd" d="M8.5 1C4.63401 1 1.5 4.13401 1.5 8C1.5 11.866 4.63401 15 8.5 15C12.366 15 15.5 11.866 15.5 8C15.5 4.13401 12.366 1 8.5 1ZM8.5 4.9375C6.80863 4.9375 5.4375 6.30863 5.4375 8C5.4375 9.69137 6.80863 11.0625 8.5 11.0625C10.1914 11.0625 11.5625 9.69137 11.5625 8C11.5625 6.30863 10.1914 4.9375 8.5 4.9375Z" fill="#E9E9EC"/>
<path d="M23.1035 8.66016V12H21.9785V3.46875H25.125C26.0586 3.46875 26.7891 3.70703 27.3164 4.18359C27.8477 4.66016 28.1133 5.29102 28.1133 6.07617C28.1133 6.9043 27.8535 7.54297 27.334 7.99219C26.8184 8.4375 26.0781 8.66016 25.1133 8.66016H23.1035ZM23.1035 7.74023H25.125C25.7266 7.74023 26.1875 7.59961 26.5078 7.31836C26.8281 7.0332 26.9883 6.62305 26.9883 6.08789C26.9883 5.58008 26.8281 5.17383 26.5078 4.86914C26.1875 4.56445 25.748 4.40625 25.1895 4.39453H23.1035V7.74023ZM29.0098 8.77148C29.0098 8.15039 29.1309 7.5918 29.373 7.0957C29.6191 6.59961 29.959 6.2168 30.3926 5.94727C30.8301 5.67773 31.3281 5.54297 31.8867 5.54297C32.75 5.54297 33.4473 5.8418 33.9785 6.43945C34.5137 7.03711 34.7812 7.83203 34.7812 8.82422V8.90039C34.7812 9.51758 34.6621 10.0723 34.4238 10.5645C34.1895 11.0527 33.8516 11.4336 33.4102 11.707C32.9727 11.9805 32.4688 12.1172 31.8984 12.1172C31.0391 12.1172 30.3418 11.8184 29.8066 11.2207C29.2754 10.623 29.0098 9.83203 29.0098 8.84766V8.77148ZM30.0996 8.90039C30.0996 9.60352 30.2617 10.168 30.5859 10.5938C30.9141 11.0195 31.3516 11.2324 31.8984 11.2324C32.4492 11.2324 32.8867 11.0176 33.2109 10.5879C33.5352 10.1543 33.6973 9.54883 33.6973 8.77148C33.6973 8.07617 33.5312 7.51367 33.1992 7.08398C32.8711 6.65039 32.4336 6.43359 31.8867 6.43359C31.3516 6.43359 30.9199 6.64648 30.5918 7.07227C30.2637 7.49805 30.0996 8.10742 30.0996 8.90039ZM41.7539 10.5059L42.9727 5.66016H44.0566L42.2109 12H41.332L39.791 7.19531L38.291 12H37.4121L35.5723 5.66016H36.6504L37.8984 10.4062L39.375 5.66016H40.248L41.7539 10.5059ZM47.7949 12.1172C46.9355 12.1172 46.2363 11.8359 45.6973 11.2734C45.1582 10.707 44.8887 9.95117 44.8887 9.00586V8.80664C44.8887 8.17773 45.0078 7.61719 45.2461 7.125C45.4883 6.62891 45.8242 6.24219 46.2539 5.96484C46.6875 5.68359 47.1562 5.54297 47.6602 5.54297C48.4844 5.54297 49.125 5.81445 49.582 6.35742C50.0391 6.90039 50.2676 7.67773 50.2676 8.68945V9.14062H45.9727C45.9883 9.76562 46.1699 10.2715 46.5176 10.6582C46.8691 11.041 47.3145 11.2324 47.8535 11.2324C48.2363 11.2324 48.5605 11.1543 48.8262 10.998C49.0918 10.8418 49.3242 10.6348 49.5234 10.377L50.1855 10.8926C49.6543 11.709 48.8574 12.1172 47.7949 12.1172ZM47.6602 6.43359C47.2227 6.43359 46.8555 6.59375 46.5586 6.91406C46.2617 7.23047 46.0781 7.67578 46.0078 8.25H49.1836V8.16797C49.1523 7.61719 49.0039 7.19141 48.7383 6.89062C48.4727 6.58594 48.1133 6.43359 47.6602 6.43359ZM54.5918 6.63281C54.4277 6.60547 54.25 6.5918 54.0586 6.5918C53.3477 6.5918 52.8652 6.89453 52.6113 7.5V12H51.5273V5.66016H52.582L52.5996 6.39258C52.9551 5.82617 53.459 5.54297 54.1113 5.54297C54.3223 5.54297 54.4824 5.57031 54.5918 5.625V6.63281ZM58.1074 12.1172C57.248 12.1172 56.5488 11.8359 56.0098 11.2734C55.4707 10.707 55.2012 9.95117 55.2012 9.00586V8.80664C55.2012 8.17773 55.3203 7.61719 55.5586 7.125C55.8008 6.62891 56.1367 6.24219 56.5664 5.96484C57 5.68359 57.4688 5.54297 57.9727 5.54297C58.7969 5.54297 59.4375 5.81445 59.8945 6.35742C60.3516 6.90039 60.5801 7.67773 60.5801 8.68945V9.14062H56.2852C56.3008 9.76562 56.4824 10.2715 56.8301 10.6582C57.1816 11.041 57.627 11.2324 58.166 11.2324C58.5488 11.2324 58.873 11.1543 59.1387 10.998C59.4043 10.8418 59.6367 10.6348 59.8359 10.377L60.498 10.8926C59.9668 11.709 59.1699 12.1172 58.1074 12.1172ZM57.9727 6.43359C57.5352 6.43359 57.168 6.59375 56.8711 6.91406C56.5742 7.23047 56.3906 7.67578 56.3203 8.25H59.4961V8.16797C59.4648 7.61719 59.3164 7.19141 59.0508 6.89062C58.7852 6.58594 58.4258 6.43359 57.9727 6.43359ZM61.5762 8.77734C61.5762 7.80469 61.8066 7.02344 62.2676 6.43359C62.7285 5.83984 63.332 5.54297 64.0781 5.54297C64.8203 5.54297 65.4082 5.79688 65.8418 6.30469V3H66.9258V12H65.9297L65.877 11.3203C65.4434 11.8516 64.8398 12.1172 64.0664 12.1172C63.332 12.1172 62.7324 11.8164 62.2676 11.2148C61.8066 10.6133 61.5762 9.82812 61.5762 8.85938V8.77734ZM62.6602 8.90039C62.6602 9.61914 62.8086 10.1816 63.1055 10.5879C63.4023 10.9941 63.8125 11.1973 64.3359 11.1973C65.0234 11.1973 65.5254 10.8887 65.8418 10.2715V7.35938C65.5176 6.76172 65.0195 6.46289 64.3477 6.46289C63.8164 6.46289 63.4023 6.66797 63.1055 7.07812C62.8086 7.48828 62.6602 8.0957 62.6602 8.90039ZM76.957 8.90039C76.957 9.86914 76.7344 10.6484 76.2891 11.2383C75.8438 11.8242 75.2461 12.1172 74.4961 12.1172C73.6953 12.1172 73.0762 11.834 72.6387 11.2676L72.5859 12H71.5898V3H72.6738V6.35742C73.1113 5.81445 73.7148 5.54297 74.4844 5.54297C75.2539 5.54297 75.8574 5.83398 76.2949 6.41602C76.7363 6.99805 76.957 7.79492 76.957 8.80664V8.90039ZM75.873 8.77734C75.873 8.03906 75.7305 7.46875 75.4453 7.06641C75.1602 6.66406 74.75 6.46289 74.2148 6.46289C73.5 6.46289 72.9863 6.79492 72.6738 7.45898V10.2012C73.0059 10.8652 73.5234 11.1973 74.2266 11.1973C74.7461 11.1973 75.1504 10.9961 75.4395 10.5938C75.7285 10.1914 75.873 9.58594 75.873 8.77734ZM80.332 10.4121L81.8086 5.66016H82.9688L80.4199 12.9785C80.0254 14.0332 79.3984 14.5605 78.5391 14.5605L78.334 14.543L77.9297 14.4668V13.5879L78.2227 13.6113C78.5898 13.6113 78.875 13.5371 79.0781 13.3887C79.2852 13.2402 79.4551 12.9688 79.5879 12.5742L79.8281 11.9297L77.5664 5.66016H78.75L80.332 10.4121ZM88.2188 11.0801H92.2617V12H87.0879V3.46875H88.2188V11.0801ZM94.5527 12H93.4688V5.66016H94.5527V12ZM93.3809 3.97852C93.3809 3.80273 93.4336 3.6543 93.5391 3.5332C93.6484 3.41211 93.8086 3.35156 94.0195 3.35156C94.2305 3.35156 94.3906 3.41211 94.5 3.5332C94.6094 3.6543 94.6641 3.80273 94.6641 3.97852C94.6641 4.1543 94.6094 4.30078 94.5 4.41797C94.3906 4.53516 94.2305 4.59375 94.0195 4.59375C93.8086 4.59375 93.6484 4.53516 93.5391 4.41797C93.4336 4.30078 93.3809 4.1543 93.3809 3.97852ZM97.3184 5.66016L97.3535 6.45703C97.8379 5.84766 98.4707 5.54297 99.252 5.54297C100.592 5.54297 101.268 6.29883 101.279 7.81055V12H100.195V7.80469C100.191 7.34766 100.086 7.00977 99.8789 6.79102C99.6758 6.57227 99.3574 6.46289 98.9238 6.46289C98.5723 6.46289 98.2637 6.55664 97.998 6.74414C97.7324 6.93164 97.5254 7.17773 97.377 7.48242V12H96.293V5.66016H97.3184ZM105.545 12.1172C104.686 12.1172 103.986 11.8359 103.447 11.2734C102.908 10.707 102.639 9.95117 102.639 9.00586V8.80664C102.639 8.17773 102.758 7.61719 102.996 7.125C103.238 6.62891 103.574 6.24219 104.004 5.96484C104.438 5.68359 104.906 5.54297 105.41 5.54297C106.234 5.54297 106.875 5.81445 107.332 6.35742C107.789 6.90039 108.018 7.67773 108.018 8.68945V9.14062H103.723C103.738 9.76562 103.92 10.2715 104.268 10.6582C104.619 11.041 105.064 11.2324 105.604 11.2324C105.986 11.2324 106.311 11.1543 106.576 10.998C106.842 10.8418 107.074 10.6348 107.273 10.377L107.936 10.8926C107.404 11.709 106.607 12.1172 105.545 12.1172ZM105.41 6.43359C104.973 6.43359 104.605 6.59375 104.309 6.91406C104.012 7.23047 103.828 7.67578 103.758 8.25H106.934V8.16797C106.902 7.61719 106.754 7.19141 106.488 6.89062C106.223 6.58594 105.863 6.43359 105.41 6.43359ZM109.447 12V3.46875H112.236C113.162 3.46875 113.857 3.66016 114.322 4.04297C114.791 4.42578 115.025 4.99219 115.025 5.74219C115.025 6.14062 114.912 6.49414 114.686 6.80273C114.459 7.10742 114.15 7.34375 113.76 7.51172C114.221 7.64062 114.584 7.88672 114.85 8.25C115.119 8.60938 115.254 9.03906 115.254 9.53906C115.254 10.3047 115.006 10.9062 114.51 11.3438C114.014 11.7812 113.312 12 112.406 12H109.447ZM110.572 8.00977V11.0801H112.43C112.953 11.0801 113.365 10.9453 113.666 10.6758C113.971 10.4023 114.123 10.0273 114.123 9.55078C114.123 8.52344 113.564 8.00977 112.447 8.00977H110.572ZM110.572 7.10742H112.271C112.764 7.10742 113.156 6.98438 113.449 6.73828C113.746 6.49219 113.895 6.1582 113.895 5.73633C113.895 5.26758 113.758 4.92773 113.484 4.7168C113.211 4.50195 112.795 4.39453 112.236 4.39453H110.572V7.10742ZM120.668 12C120.605 11.875 120.555 11.6523 120.516 11.332C120.012 11.8555 119.41 12.1172 118.711 12.1172C118.086 12.1172 117.572 11.9414 117.17 11.5898C116.771 11.2344 116.572 10.7852 116.572 10.2422C116.572 9.58203 116.822 9.07031 117.322 8.70703C117.826 8.33984 118.533 8.15625 119.443 8.15625H120.498V7.6582C120.498 7.2793 120.385 6.97852 120.158 6.75586C119.932 6.5293 119.598 6.41602 119.156 6.41602C118.77 6.41602 118.445 6.51367 118.184 6.70898C117.922 6.9043 117.791 7.14062 117.791 7.41797H116.701C116.701 7.10156 116.812 6.79688 117.035 6.50391C117.262 6.20703 117.566 5.97266 117.949 5.80078C118.336 5.62891 118.76 5.54297 119.221 5.54297C119.951 5.54297 120.523 5.72656 120.938 6.09375C121.352 6.45703 121.566 6.95898 121.582 7.59961V10.5176C121.582 11.0996 121.656 11.5625 121.805 11.9062V12H120.668ZM118.869 11.1738C119.209 11.1738 119.531 11.0859 119.836 10.9102C120.141 10.7344 120.361 10.5059 120.498 10.2246V8.92383H119.648C118.32 8.92383 117.656 9.3125 117.656 10.0898C117.656 10.4297 117.77 10.6953 117.996 10.8867C118.223 11.0781 118.514 11.1738 118.869 11.1738ZM126.973 10.3184C126.973 10.0254 126.861 9.79883 126.639 9.63867C126.42 9.47461 126.035 9.33398 125.484 9.2168C124.938 9.09961 124.502 8.95898 124.178 8.79492C123.857 8.63086 123.619 8.43555 123.463 8.20898C123.311 7.98242 123.234 7.71289 123.234 7.40039C123.234 6.88086 123.453 6.44141 123.891 6.08203C124.332 5.72266 124.895 5.54297 125.578 5.54297C126.297 5.54297 126.879 5.72852 127.324 6.09961C127.773 6.4707 127.998 6.94531 127.998 7.52344H126.908C126.908 7.22656 126.781 6.9707 126.527 6.75586C126.277 6.54102 125.961 6.43359 125.578 6.43359C125.184 6.43359 124.875 6.51953 124.652 6.69141C124.43 6.86328 124.318 7.08789 124.318 7.36523C124.318 7.62695 124.422 7.82422 124.629 7.95703C124.836 8.08984 125.209 8.2168 125.748 8.33789C126.291 8.45898 126.73 8.60352 127.066 8.77148C127.402 8.93945 127.65 9.14258 127.811 9.38086C127.975 9.61523 128.057 9.90234 128.057 10.2422C128.057 10.8086 127.83 11.2637 127.377 11.6074C126.924 11.9473 126.336 12.1172 125.613 12.1172C125.105 12.1172 124.656 12.0273 124.266 11.8477C123.875 11.668 123.568 11.418 123.346 11.0977C123.127 10.7734 123.018 10.4238 123.018 10.0488H124.102C124.121 10.4121 124.266 10.7012 124.535 10.916C124.809 11.127 125.168 11.2324 125.613 11.2324C126.023 11.2324 126.352 11.1504 126.598 10.9863C126.848 10.8184 126.973 10.5957 126.973 10.3184ZM132.1 12.1172C131.24 12.1172 130.541 11.8359 130.002 11.2734C129.463 10.707 129.193 9.95117 129.193 9.00586V8.80664C129.193 8.17773 129.312 7.61719 129.551 7.125C129.793 6.62891 130.129 6.24219 130.559 5.96484C130.992 5.68359 131.461 5.54297 131.965 5.54297C132.789 5.54297 133.43 5.81445 133.887 6.35742C134.344 6.90039 134.572 7.67773 134.572 8.68945V9.14062H130.277C130.293 9.76562 130.475 10.2715 130.822 10.6582C131.174 11.041 131.619 11.2324 132.158 11.2324C132.541 11.2324 132.865 11.1543 133.131 10.998C133.396 10.8418 133.629 10.6348 133.828 10.377L134.49 10.8926C133.959 11.709 133.162 12.1172 132.1 12.1172ZM131.965 6.43359C131.527 6.43359 131.16 6.59375 130.863 6.91406C130.566 7.23047 130.383 7.67578 130.312 8.25H133.488V8.16797C133.457 7.61719 133.309 7.19141 133.043 6.89062C132.777 6.58594 132.418 6.43359 131.965 6.43359Z" fill="#B4B4BE"/>
</svg>
