<svg width="129" height="120" viewBox="0 0 129 120" fill="none" xmlns="http://www.w3.org/2000/svg">
<path d="M65.1583 104.69C89.1818 104.69 108.658 85.029 108.658 60.6904C108.658 36.3518 89.1818 16.6904 65.1583 16.6904C41.1346 16.6904 21.6582 36.3518 21.6582 60.6904C21.6582 85.029 41.1346 104.69 65.1583 104.69Z" fill="#DFEBFF"/>
<path d="M62.4104 98.1144C84.911 98.1144 103.153 79.8726 103.153 57.2915C103.153 34.7104 84.911 16.4688 62.4104 16.4688C39.9096 16.4688 21.668 34.7104 21.668 57.2915C21.668 79.8726 39.9096 98.1144 62.4104 98.1144Z" fill="#DFEBFF"/>
<path d="M32.4362 30.8535H90.3754C92.7058 30.8535 94.4738 32.6214 94.4738 34.9519V71.6763C94.4738 74.0067 92.7058 75.7746 90.3754 75.7746H32.4362C30.1058 75.7746 28.3379 74.0067 28.3379 71.6763V34.9519C28.3379 32.6214 30.2665 30.8535 32.4362 30.8535Z" fill="#83ADE3"/>
<path d="M95.5977 54.3989V72.4799C95.5977 74.8103 93.7494 76.7389 91.3386 76.7389H31.7923C29.4618 76.7389 27.5332 74.8103 27.5332 72.4799V52.8721" stroke="#1676EE" stroke-width="3" stroke-linecap="round" stroke-linejoin="round"/>
<path d="M90.5361 44.2734H71.7321C69.8838 44.2734 68.1159 44.9163 66.7498 46.0414L61.8478 50.0593C60.4817 51.1844 58.7138 51.8273 56.8655 51.8273H35.6505C33.4808 51.8273 31.7129 53.5952 31.7129 55.7649C31.7129 55.9256 31.7129 56.1667 31.7933 56.3274L35.7309 77.0602C36.0523 78.9889 37.6595 80.4353 39.6685 80.4353H85.0716C87.0003 80.4353 88.6878 79.0692 89.0093 77.1406L94.4737 48.7736C94.8755 46.6039 93.4291 44.6752 91.2593 44.2734C90.9379 44.2734 90.6968 44.2734 90.5361 44.2734Z" fill="white"/>
<g filter="url(#filter0_d_1684:50419)">
<path d="M73.1038 37.9207C72.7213 39.5465 72.1475 41.268 71.478 42.7025C69.6609 46.2411 66.7918 49.0145 63.2533 50.8316C59.6191 52.6487 55.3155 53.4138 51.0121 52.4574C40.8747 50.3534 34.3714 40.4073 36.4754 30.2696C38.5794 20.1322 48.43 13.5333 58.5671 15.7329C62.2013 16.498 65.3573 18.3151 68.0351 20.8016C72.53 25.2965 74.4428 31.7998 73.1038 37.9207Z" fill="#BFD5F4"/>
<path d="M58.6554 27.3233L54.8009 31.1778L50.9464 27.3233C50.1755 26.5524 48.8907 26.4667 48.0341 27.3233C47.2632 28.0942 47.1776 29.379 48.0341 30.2356L51.8886 34.0901L48.0344 37.9444C47.2635 38.7153 47.1778 40.0001 48.0344 40.8566C48.8909 41.7132 50.0905 41.7136 50.947 40.857L54.8013 37.0027L58.6558 40.8573C59.4267 41.6282 60.7115 41.7138 61.5681 40.8573C62.339 40.0863 62.4246 38.8015 61.5681 37.945L57.7136 34.0904L61.5681 30.2359C62.339 29.465 62.4243 28.1799 61.5677 27.3233C60.7112 26.4667 59.4263 26.5524 58.6554 27.3233Z" fill="white"/>
</g>
<g filter="url(#filter1_d_1684:50419)">
<path d="M98.9734 38.7288H74.5441C72.1333 38.7288 69.8833 39.5324 68.035 41.0592L61.6062 46.2826C59.8383 47.7291 57.5079 48.6131 55.0971 48.6131H27.4533C24.6407 48.6131 22.3906 50.9435 22.3906 53.6757C22.3906 53.9168 22.3906 54.1579 22.471 54.399L27.5337 81.4802C27.9355 84.0519 30.1052 85.9002 32.5963 85.9002H91.7411C94.3126 85.9002 96.4019 84.1322 96.8037 81.5606L103.956 44.5147C104.438 41.7021 102.59 39.211 99.777 38.6484C99.536 38.7288 99.2145 38.7288 98.9734 38.7288Z" fill="white"/>
</g>
<path d="M82.3418 61.624H112.342L108.533 91.9973C108.345 93.4981 107.069 94.624 105.557 94.624H89.127C87.6145 94.624 86.3385 93.4981 86.1504 91.9973L82.3418 61.624Z" fill="#82ACE2"/>
<path d="M79.3418 57.624C79.3418 57.0717 79.7895 56.624 80.3418 56.624H114.342C114.894 56.624 115.342 57.0717 115.342 57.624V60.624C115.342 61.1763 114.894 61.624 114.342 61.624H80.3418C79.7895 61.624 79.3418 61.1763 79.3418 60.624V57.624Z" fill="#BFD5F3"/>
<path d="M83.3418 53.624C83.3418 53.0717 83.7895 52.624 84.3418 52.624H110.342C110.894 52.624 111.342 53.0717 111.342 53.624V56.624H83.3418V53.624Z" fill="#BFD5F3"/>
<path fill-rule="evenodd" clip-rule="evenodd" d="M99.3418 49.624H95.3418C94.7895 49.624 94.3418 50.0717 94.3418 50.624V53.624H100.342V50.624C100.342 50.0717 99.8941 49.624 99.3418 49.624ZM95.3418 47.624C93.6849 47.624 92.3418 48.9672 92.3418 50.624V55.624H102.342V50.624C102.342 48.9672 100.999 47.624 99.3418 47.624H95.3418Z" fill="#BFD5F3"/>
<rect x="96.5117" y="65.4111" width="1.65816" height="23.2259" rx="0.829082" fill="#BFD5F3"/>
<rect x="104.9" y="67.6104" width="1.65816" height="20.9714" rx="0.829082" transform="rotate(6.31791 104.9 67.6104)" fill="#BFD5F3"/>
<rect width="1.65816" height="20.9714" rx="0.829082" transform="matrix(-0.993927 0.110045 0.110045 0.993927 89.7832 67.6104)" fill="#BFD5F3"/>
<path d="M114.53 104.691C116.292 104.691 117.719 103.263 117.719 101.502C117.719 99.741 116.292 98.3135 114.53 98.3135C112.77 98.3135 111.342 99.741 111.342 101.502C111.342 103.263 112.77 104.691 114.53 104.691Z" fill="#DFEBFF"/>
<path d="M15.9784 46.4509C17.181 46.4509 18.156 45.4759 18.156 44.2733C18.156 43.0707 17.181 42.0957 15.9784 42.0957C14.7757 42.0957 13.8008 43.0707 13.8008 44.2733C13.8008 45.4759 14.7757 46.4509 15.9784 46.4509Z" fill="#DFEBFF"/>
<path d="M34.2843 18.5911C36.5178 18.5911 38.3284 16.7805 38.3284 14.547C38.3284 12.3135 36.5178 10.5029 34.2843 10.5029C32.0508 10.5029 30.2402 12.3135 30.2402 14.547C30.2402 16.7805 32.0508 18.5911 34.2843 18.5911Z" fill="#DFEBFF"/>
<path d="M117.721 75.5554C118.923 75.5554 119.898 74.5804 119.898 73.3778C119.898 72.1751 118.923 71.2002 117.721 71.2002C116.517 71.2002 115.543 72.1751 115.543 73.3778C115.543 74.5804 116.517 75.5554 117.721 75.5554Z" fill="#DFEBFF"/>
<defs>
<filter id="filter0_d_1684:50419" x="26.0801" y="11.3096" width="57.4434" height="57.5625" filterUnits="userSpaceOnUse" color-interpolation-filters="sRGB">
<feFlood flood-opacity="0" result="BackgroundImageFix"/>
<feColorMatrix in="SourceAlpha" type="matrix" values="0 0 0 0 0 0 0 0 0 0 0 0 0 0 0 0 0 0 127 0" result="hardAlpha"/>
<feOffset dy="6"/>
<feGaussianBlur stdDeviation="5"/>
<feComposite in2="hardAlpha" operator="out"/>
<feColorMatrix type="matrix" values="0 0 0 0 0.561007 0 0 0 0 0.705141 0 0 0 0 0.891667 0 0 0 1 0"/>
<feBlend mode="normal" in2="BackgroundImageFix" result="effect1_dropShadow_1684:50419"/>
<feBlend mode="normal" in="SourceGraphic" in2="effect1_dropShadow_1684:50419" result="shape"/>
</filter>
<filter id="filter1_d_1684:50419" x="0.390625" y="27.6484" width="125.641" height="91.252" filterUnits="userSpaceOnUse" color-interpolation-filters="sRGB">
<feFlood flood-opacity="0" result="BackgroundImageFix"/>
<feColorMatrix in="SourceAlpha" type="matrix" values="0 0 0 0 0 0 0 0 0 0 0 0 0 0 0 0 0 0 127 0" result="hardAlpha"/>
<feOffset dy="11"/>
<feGaussianBlur stdDeviation="11"/>
<feColorMatrix type="matrix" values="0 0 0 0 0.2 0 0 0 0 0.454902 0 0 0 0 0.764706 0 0 0 0.27 0"/>
<feBlend mode="normal" in2="BackgroundImageFix" result="effect1_dropShadow_1684:50419"/>
<feBlend mode="normal" in="SourceGraphic" in2="effect1_dropShadow_1684:50419" result="shape"/>
</filter>
</defs>
</svg>
