<svg width="135" height="124" viewBox="0 0 135 124" fill="none" xmlns="http://www.w3.org/2000/svg">
<path d="M71.6018 118.637C98.7822 118.637 120.818 96.4007 120.818 68.8743C120.818 41.3479 98.7822 19.1113 71.6018 19.1113C44.4213 19.1113 22.3857 41.3479 22.3857 68.8743C22.3857 96.4007 44.4213 118.637 71.6018 118.637Z" fill="#DFEBFF"/>
<g filter="url(#filter0_d_2712_11038)">
<path d="M21.04 49.0639C20.5896 47.9018 21.3004 46.6152 22.5239 46.3778L65.5408 38.0321L108.435 26.8027C109.662 26.4815 110.875 27.3691 110.939 28.636L114.055 89.9286C114.098 90.7879 113.587 91.5788 112.786 91.8924L80.66 104.47C80.4666 104.545 80.2625 104.59 80.0552 104.603L44.9084 106.791C44.0388 106.846 43.2342 106.33 42.9193 105.518L21.04 49.0639Z" fill="#83ADE2"/>
<g filter="url(#filter1_dd_2712_11038)">
<path d="M44.7433 37.5916C35.7582 37.9953 30.1542 39.1266 27.4748 39.8141C26.4156 40.0858 25.8801 41.1957 26.2446 42.2266L47.0764 101.137C47.2493 101.626 48.8991 102.182 49.391 102.018C51.0752 101.457 54.467 100.803 61.2941 100.496C74.5026 99.9026 79.9112 102.24 79.9525 102.257C79.9533 102.258 79.9525 102.256 79.9523 102.256C79.9522 102.255 79.9519 102.255 79.9522 102.255C79.9608 102.246 84.897 97.1143 96.0693 92.6902C103.055 89.9241 106.648 88.4819 108.361 87.789C109.181 87.4574 109.678 86.6241 109.586 85.7446L103.275 25.3389C103.165 24.2887 102.26 23.5246 101.216 23.6792C98.4474 24.0889 92.6463 25.2866 84.1553 28.7456C74.4528 32.698 68.5861 36.7845 66.555 38.3222C66.039 38.7129 65.3794 38.8659 64.7446 38.7402C62.2525 38.2467 55.2186 37.1209 44.7433 37.5916Z" fill="white"/>
</g>
<g filter="url(#filter2_dd_2712_11038)">
<path d="M48.6706 34.464C40.515 34.6768 35.3875 35.8918 32.9483 36.6444C31.9702 36.9461 31.5003 37.9843 31.8233 38.9556L50.3971 94.8142C50.7063 95.7441 53.5407 97.3957 54.5206 97.3835C56.2193 97.3624 58.8429 97.4672 62.8938 97.848C72.9681 99.0034 79.1835 102.333 79.2269 102.357C79.2277 102.357 79.2269 102.356 79.2267 102.355C79.2266 102.354 79.2265 102.355 79.2266 102.354C79.2304 102.347 82.2884 96.4605 92.0679 91.3015C97.8401 87.879 101.11 86.1865 102.807 85.3787C103.699 84.954 104.256 83.9726 104.089 82.9988L94.1423 24.9375C93.9802 23.9913 93.1708 23.3178 92.2196 23.4469C89.939 23.7566 85.2399 24.7479 77.8442 27.9155C66.8614 32.6194 64.9883 38.9033 64.9883 38.9033C64.9883 38.9033 60.6389 34.1518 48.6706 34.464Z" fill="url(#paint0_linear_2712_11038)"/>
<path d="M48.6706 34.464C40.515 34.6768 35.3875 35.8918 32.9483 36.6444C31.9702 36.9461 31.5003 37.9843 31.8233 38.9556L50.3971 94.8142C50.7063 95.7441 53.5407 97.3957 54.5206 97.3835C56.2193 97.3624 58.8429 97.4672 62.8938 97.848C72.9681 99.0034 79.1835 102.333 79.2269 102.357C79.2277 102.357 79.2269 102.356 79.2267 102.355C79.2266 102.354 79.2265 102.355 79.2266 102.354C79.2304 102.347 82.2884 96.4605 92.0679 91.3015C97.8401 87.879 101.11 86.1865 102.807 85.3787C103.699 84.954 104.256 83.9726 104.089 82.9988L94.1423 24.9375C93.9802 23.9913 93.1708 23.3178 92.2196 23.4469C89.939 23.7566 85.2399 24.7479 77.8442 27.9155C66.8614 32.6194 64.9883 38.9033 64.9883 38.9033C64.9883 38.9033 60.6389 34.1518 48.6706 34.464Z" fill="url(#paint1_linear_2712_11038)"/>
</g>
</g>
<path d="M85.2878 68.4353C80.402 64.4177 77.136 58.4753 76.4858 52.1037C75.7617 45.764 77.7489 39.2166 81.5871 34.3208C82.786 32.8403 84.27 31.4118 86.0088 30.5735C87.7476 29.7352 89.9206 29.4972 91.7381 30.4631C93.4919 31.2814 94.6688 33.3991 94.3468 35.2888C93.9192 37.1365 92.1083 38.6186 90.2203 38.9086C87.2676 39.5708 84.1305 38.3869 82.3516 36.0914C80.5727 33.7959 80.152 30.3888 81.4851 27.8C82.3034 26.0462 83.8612 24.5859 85.3351 23.3368C92.5467 17.3345 101.42 13.1532 110.627 11.3663" stroke="#B6D4FF" stroke-width="2" stroke-miterlimit="10" stroke-dasharray="4 4"/>
<path d="M114.225 7.53624C114.629 8.67474 115.001 9.73947 114.286 10.3112C113.57 10.8829 112.882 10.3044 111.92 9.49453C110.989 8.75842 110.838 7.59813 111.628 6.99455C112.344 6.42282 113.799 6.14455 114.225 7.53624Z" fill="#C6D4E9"/>
<path d="M115.634 13.2304C115.282 11.8068 115.184 10.9735 114.287 10.9231C113.316 10.9047 113.087 11.7916 112.584 13.0592C112.196 14.1893 113.149 15.1786 114.046 15.229C115.122 15.2894 115.89 14.4326 115.634 13.2304Z" fill="#C6D4E9"/>
<path d="M115.615 10.3499C115.764 10.8982 115.555 11.4264 115.07 11.7231C114.849 11.8187 114.628 11.9143 114.333 12.0417C113.236 12.3401 112.138 12.0265 111.925 11.3306C111.712 10.6348 112.512 9.85181 113.756 9.4897C113.977 9.39413 114.23 9.37235 114.41 9.38241C114.916 9.33884 115.434 9.72787 115.615 10.3499C115.583 10.2762 115.615 10.3499 115.615 10.3499Z" fill="#83ADE2"/>
<path d="M16.6979 61.7129C16.1946 60.4429 15.6912 59.1729 16.4396 58.444C17.2628 57.6856 18.141 58.3748 19.3914 59.3487C20.5079 60.2028 20.6829 61.5165 19.8597 62.275C19.186 62.9742 17.379 63.4311 16.6979 61.7129Z" fill="#C6D4E9"/>
<path d="M14.734 55.2308C15.2064 56.8588 15.3376 57.8441 16.4568 57.8328C17.576 57.8214 17.7732 56.7923 18.2707 55.2121C18.6032 53.8701 17.5473 52.7327 16.428 52.7441C15.3088 52.7555 14.38 53.9016 14.734 55.2308Z" fill="#C6D4E9"/>
<path d="M15.0962 58.5448C14.8594 57.9471 15.1299 57.3212 15.6233 57.0393C15.8178 56.8757 16.1166 56.7573 16.445 56.7136C17.6699 56.3145 18.9823 56.5723 19.2037 57.349C19.4251 58.1257 18.6612 59.0335 17.332 59.3875C17.1078 59.4763 16.8541 59.4904 16.6004 59.5046C15.9731 59.6667 15.3627 59.2171 15.0962 58.5448Z" fill="#83ADE2"/>
<path d="M19.8262 56.9072C31.7853 52.1672 56.5626 50.1746 66.7507 74.8819" stroke="#B6D4FF" stroke-width="2" stroke-miterlimit="10" stroke-dasharray="4 4"/>
<defs>
<filter id="filter0_d_2712_11038" x="0.903809" y="0.430664" width="133.153" height="123.364" filterUnits="userSpaceOnUse" color-interpolation-filters="sRGB">
<feFlood flood-opacity="0" result="BackgroundImageFix"/>
<feColorMatrix in="SourceAlpha" type="matrix" values="0 0 0 0 0 0 0 0 0 0 0 0 0 0 0 0 0 0 127 0" result="hardAlpha"/>
<feOffset dy="-3"/>
<feGaussianBlur stdDeviation="10"/>
<feColorMatrix type="matrix" values="0 0 0 0 0.505882 0 0 0 0 0.666667 0 0 0 0 0.870588 0 0 0 0.5 0"/>
<feBlend mode="normal" in2="BackgroundImageFix" result="effect1_dropShadow_2712_11038"/>
<feBlend mode="normal" in="SourceGraphic" in2="effect1_dropShadow_2712_11038" result="shape"/>
</filter>
<filter id="filter1_dd_2712_11038" x="16.1304" y="15.6592" width="103.466" height="98.5986" filterUnits="userSpaceOnUse" color-interpolation-filters="sRGB">
<feFlood flood-opacity="0" result="BackgroundImageFix"/>
<feColorMatrix in="SourceAlpha" type="matrix" values="0 0 0 0 0 0 0 0 0 0 0 0 0 0 0 0 0 0 127 0" result="hardAlpha"/>
<feOffset dy="2"/>
<feGaussianBlur stdDeviation="5"/>
<feColorMatrix type="matrix" values="0 0 0 0 0 0 0 0 0 0 0 0 0 0 0 0 0 0 0.1 0"/>
<feBlend mode="normal" in2="BackgroundImageFix" result="effect1_dropShadow_2712_11038"/>
<feColorMatrix in="SourceAlpha" type="matrix" values="0 0 0 0 0 0 0 0 0 0 0 0 0 0 0 0 0 0 127 0" result="hardAlpha"/>
<feOffset/>
<feGaussianBlur stdDeviation="1"/>
<feColorMatrix type="matrix" values="0 0 0 0 0 0 0 0 0 0 0 0 0 0 0 0 0 0 0.1 0"/>
<feBlend mode="normal" in2="effect1_dropShadow_2712_11038" result="effect2_dropShadow_2712_11038"/>
<feBlend mode="normal" in="SourceGraphic" in2="effect2_dropShadow_2712_11038" result="shape"/>
</filter>
<filter id="filter2_dd_2712_11038" x="21.7222" y="15.4307" width="92.3965" height="98.9258" filterUnits="userSpaceOnUse" color-interpolation-filters="sRGB">
<feFlood flood-opacity="0" result="BackgroundImageFix"/>
<feColorMatrix in="SourceAlpha" type="matrix" values="0 0 0 0 0 0 0 0 0 0 0 0 0 0 0 0 0 0 127 0" result="hardAlpha"/>
<feOffset dy="2"/>
<feGaussianBlur stdDeviation="5"/>
<feColorMatrix type="matrix" values="0 0 0 0 0.6375 0 0 0 0 0.773438 0 0 0 0 1 0 0 0 0.1 0"/>
<feBlend mode="normal" in2="BackgroundImageFix" result="effect1_dropShadow_2712_11038"/>
<feColorMatrix in="SourceAlpha" type="matrix" values="0 0 0 0 0 0 0 0 0 0 0 0 0 0 0 0 0 0 127 0" result="hardAlpha"/>
<feOffset/>
<feGaussianBlur stdDeviation="2.5"/>
<feColorMatrix type="matrix" values="0 0 0 0 0.6375 0 0 0 0 0.773438 0 0 0 0 1 0 0 0 0.4 0"/>
<feBlend mode="normal" in2="effect1_dropShadow_2712_11038" result="effect2_dropShadow_2712_11038"/>
<feBlend mode="normal" in="SourceGraphic" in2="effect2_dropShadow_2712_11038" result="shape"/>
</filter>
<linearGradient id="paint0_linear_2712_11038" x1="48.8906" y1="63.7101" x2="92.0988" y2="54.2714" gradientUnits="userSpaceOnUse">
<stop offset="0.182292" stop-color="white"/>
<stop offset="0.501372" stop-color="#DEECFF"/>
<stop offset="0.802083" stop-color="white"/>
</linearGradient>
<linearGradient id="paint1_linear_2712_11038" x1="65.7465" y1="38.2932" x2="77.2227" y2="89.9259" gradientUnits="userSpaceOnUse">
<stop stop-color="white" stop-opacity="0.1"/>
<stop offset="0.0001" stop-color="white" stop-opacity="0.1"/>
<stop offset="1" stop-color="white" stop-opacity="0.7"/>
</linearGradient>
</defs>
</svg>
