<svg width="261" height="260" viewBox="0 0 261 260" fill="none" xmlns="http://www.w3.org/2000/svg">
<mask id="mask0" mask-type="alpha" maskUnits="userSpaceOnUse" x="0" y="0" width="261" height="260">
<rect x="0.5" width="260" height="260" fill="#C4C4C4"/>
</mask>
<g mask="url(#mask0)">
<path d="M249.667 238.417L239.314 238.417L24.7071 238.417L11.3333 238.417" stroke="#DDEAFE" stroke-width="2" stroke-miterlimit="10" stroke-linecap="round" stroke-linejoin="round"/>
<path fill-rule="evenodd" clip-rule="evenodd" d="M163.078 72.1581C166.391 66.2615 168.28 59.4577 168.28 52.2126C168.28 29.6904 150.023 11.4326 127.5 11.4326C104.978 11.4326 86.7204 29.6904 86.7204 52.2126C86.7204 59.4527 88.6071 66.2521 91.9158 72.1459C89.2579 71.6013 86.5057 71.3153 83.6867 71.3153C61.1646 71.3153 42.9067 89.5731 42.9067 112.095C42.9067 134.617 61.1646 152.875 83.6867 152.875C98.5943 152.875 111.634 144.876 118.747 132.936C119.409 155.416 106.034 184.378 106.034 184.378H148.959C148.959 184.378 135.98 154.211 136.226 132.901C143.333 144.867 156.387 152.886 171.313 152.886C193.835 152.886 212.093 134.628 212.093 112.106C212.093 89.5841 193.835 71.3263 171.313 71.3263C168.492 71.3263 165.738 71.6127 163.078 72.1581Z" fill="url(#paint0_linear)"/>
<path d="M32.0658 146.012C32.0658 146.012 18.5574 149.442 22.6509 152.187C26.7443 154.794 36.4323 159.323 45.5744 156.304C54.7165 153.285 45.5744 149.031 45.7108 149.031C45.8472 149.031 32.0658 146.012 32.0658 146.012Z" fill="#8DB4E7"/>
<path d="M15.5562 144.914C20.4685 146.423 35.6143 143.953 45.3021 137.641C52.9434 147.109 55.8088 149.58 58.5377 149.854C54.3078 154.108 40.2536 160.97 32.3395 152.05C23.0609 157.951 15.5562 144.914 15.5562 144.914Z" fill="#DFEBFF"/>
<path d="M224.65 238.127H36.5C48.4291 211.463 85.9621 192 130.575 192C175.091 191.903 212.721 211.366 224.65 238.127Z" fill="#E6EFFF"/>
<path opacity="0.4" d="M57.1357 231.156C60.9395 230.466 64.974 231.451 67.8557 233.618" stroke="#A3C5FF" stroke-miterlimit="10" stroke-linecap="round" stroke-linejoin="round"/>
<path opacity="0.4" d="M94.2517 221.985C97.5916 220.411 100.932 219.099 104.487 218.049C106.642 217.393 108.904 217 111.059 217.524C113.214 218.049 115.261 220.017 115.692 222.641" stroke="#A3C5FF" stroke-miterlimit="10" stroke-linecap="round" stroke-linejoin="round"/>
<path opacity="0.4" d="M144.235 224.238C148.617 218.739 156.525 216.649 162.937 219.179C164.327 219.729 165.609 220.499 167.105 220.389C168.708 220.279 169.991 219.179 171.167 218.079C172.342 216.979 173.411 215.77 174.907 215.11C176.403 214.56 178.327 214.89 179.075 216.32" stroke="#A3C5FF" stroke-miterlimit="10" stroke-linecap="round" stroke-linejoin="round"/>
<path opacity="0.4" d="M187.115 229.598C192.49 225.85 199.551 224.672 205.875 226.278" stroke="#A3C5FF" stroke-miterlimit="10" stroke-linecap="round" stroke-linejoin="round"/>
<path opacity="0.4" d="M126.846 208.355C127.165 205.973 129.188 204.633 130.999 204.931C132.809 205.079 134.406 206.27 136.217 206.717C138.559 207.313 141.009 206.419 142.926 204.335" stroke="#A3C5FF" stroke-miterlimit="10" stroke-linecap="round" stroke-linejoin="round"/>
<path opacity="0.4" d="M62.4958 224.206C66.2593 224.49 70.1366 222.924 73.2158 220.219" stroke="#A3C5FF" stroke-miterlimit="10" stroke-linecap="round" stroke-linejoin="round"/>
<path fill-rule="evenodd" clip-rule="evenodd" d="M43.0949 219.755C43.5184 221.611 43.1165 223.66 41.8259 225.301C39.5938 228.138 35.5487 228.68 32.791 226.511C29.3601 224.152 28.4448 217.389 27.6683 211.653C27.3087 208.996 26.9788 206.559 26.4425 204.883L26.4439 204.884C28.1996 205.01 30.6453 204.757 33.312 204.48C39.0695 203.884 45.8575 203.181 48.958 205.96C51.7158 208.129 52.1418 212.188 49.9097 215.026C48.6223 216.662 46.732 217.535 44.8334 217.565C47.5271 219.45 51.952 220.606 51.952 220.606L47.7312 225.972C47.7312 225.972 45.7134 221.967 43.0949 219.755Z" fill="#C7DCFF"/>
<mask id="path-14-outside-1" maskUnits="userSpaceOnUse" x="14.98" y="194.577" width="41.6692" height="41.1554" fill="black">
<rect fill="white" x="14.98" y="194.577" width="41.6692" height="41.1554"/>
<path fill-rule="evenodd" clip-rule="evenodd" d="M31.0192 206.022C28.3967 206.283 25.9916 206.523 24.2621 206.393L24.2601 206.391L24.2606 206.393L24.2601 206.392L24.2607 206.393C24.8027 208.04 25.1482 210.433 25.525 213.041C26.3385 218.674 27.2977 225.315 30.6955 227.642C33.429 229.781 37.4067 229.264 39.5799 226.487C40.8359 224.882 41.2143 222.873 40.7822 221.051C43.3785 223.232 45.3986 227.168 45.3986 227.168L49.508 221.917C49.508 221.917 45.1408 220.766 42.4728 218.906C44.3421 218.884 46.1962 218.034 47.4498 216.432C49.623 213.655 49.1687 209.669 46.4352 207.53C43.3589 204.792 36.6823 205.457 31.0192 206.022Z"/>
</mask>
<path fill-rule="evenodd" clip-rule="evenodd" d="M31.0192 206.022C28.3967 206.283 25.9916 206.523 24.2621 206.393L24.2601 206.391L24.2606 206.393L24.2601 206.392L24.2607 206.393C24.8027 208.04 25.1482 210.433 25.525 213.041C26.3385 218.674 27.2977 225.315 30.6955 227.642C33.429 229.781 37.4067 229.264 39.5799 226.487C40.8359 224.882 41.2143 222.873 40.7822 221.051C43.3785 223.232 45.3986 227.168 45.3986 227.168L49.508 221.917C49.508 221.917 45.1408 220.766 42.4728 218.906C44.3421 218.884 46.1962 218.034 47.4498 216.432C49.623 213.655 49.1687 209.669 46.4352 207.53C43.3589 204.792 36.6823 205.457 31.0192 206.022Z" fill="#E5EFFF"/>
<path d="M24.2621 206.393L23.9539 206.786C24.0318 206.847 24.126 206.884 24.2246 206.891L24.2621 206.393ZM31.0192 206.022L31.0688 206.519L31.0192 206.022ZM24.2601 206.391L24.5682 205.997C24.3948 205.862 24.1529 205.855 23.9727 205.982C23.7925 206.109 23.7163 206.338 23.7852 206.547L24.2601 206.391ZM24.2606 206.393L24.2232 206.891C24.3897 206.904 24.5515 206.832 24.6544 206.701C24.7573 206.569 24.7877 206.395 24.7355 206.236L24.2606 206.393ZM24.2601 206.392L24.2976 205.894C24.0779 205.877 23.8734 206.007 23.7939 206.212C23.7144 206.417 23.7786 206.651 23.952 206.786L24.2601 206.392ZM24.2607 206.393L24.7357 206.237C24.7048 206.143 24.6467 206.06 24.5689 205.999L24.2607 206.393ZM25.525 213.041L25.0301 213.113L25.525 213.041ZM30.6955 227.642L31.0036 227.249C30.9953 227.242 30.9868 227.236 30.9781 227.23L30.6955 227.642ZM40.7822 221.051L41.1038 220.668C40.9387 220.529 40.7033 220.512 40.5198 220.625C40.3363 220.738 40.2459 220.956 40.2957 221.166L40.7822 221.051ZM45.3986 227.168L44.9537 227.397C45.0316 227.548 45.1814 227.65 45.3512 227.666C45.521 227.682 45.6872 227.611 45.7923 227.476L45.3986 227.168ZM49.508 221.917L49.9017 222.225C50.0054 222.093 50.0355 221.917 49.9819 221.758C49.9282 221.598 49.798 221.476 49.6354 221.434L49.508 221.917ZM42.4728 218.906L42.467 218.406C42.2497 218.408 42.0589 218.551 41.995 218.759C41.931 218.966 42.0086 219.191 42.1868 219.316L42.4728 218.906ZM46.4352 207.53L46.1027 207.904C46.1106 207.911 46.1187 207.918 46.127 207.924L46.4352 207.53ZM24.2246 206.891C26.0081 207.025 28.4649 206.779 31.0688 206.519L30.9696 205.524C28.3286 205.787 25.9751 206.02 24.2996 205.894L24.2246 206.891ZM23.952 206.785L23.9539 206.786L24.5702 205.999L24.5682 205.997L23.952 206.785ZM24.7355 206.236L24.735 206.235L23.7852 206.547L23.7856 206.549L24.7355 206.236ZM24.2227 206.891L24.2232 206.891L24.298 205.894L24.2976 205.894L24.2227 206.891ZM24.5689 205.999L24.5683 205.999L23.952 206.786L23.9526 206.787L24.5689 205.999ZM26.0198 212.97C25.6458 210.38 25.2946 207.936 24.7357 206.237L23.7858 206.549C24.3108 208.145 24.6507 210.486 25.0301 213.113L26.0198 212.97ZM30.9781 227.23C29.4314 226.17 28.3819 224.077 27.6215 221.442C26.8666 218.826 26.4278 215.794 26.0198 212.97L25.0301 213.113C25.4357 215.921 25.8832 219.025 26.6607 221.72C27.4328 224.395 28.5617 226.787 30.4129 228.055L30.9781 227.23ZM39.1861 226.179C37.1785 228.745 33.5138 229.213 31.0036 227.249L30.3874 228.036C33.3442 230.35 37.6349 229.784 39.9737 226.795L39.1861 226.179ZM40.2957 221.166C40.6938 222.846 40.3456 224.697 39.1861 226.179L39.9737 226.795C41.3263 225.067 41.7348 222.901 41.2687 220.936L40.2957 221.166ZM45.3986 227.168C45.8434 226.94 45.8434 226.94 45.8433 226.94C45.8433 226.94 45.8433 226.94 45.8432 226.94C45.8431 226.939 45.843 226.939 45.8428 226.939C45.8425 226.938 45.842 226.937 45.8414 226.936C45.8403 226.934 45.8386 226.931 45.8365 226.927C45.8322 226.918 45.826 226.906 45.8179 226.891C45.8017 226.86 45.7779 226.815 45.7469 226.758C45.6848 226.643 45.5938 226.477 45.4767 226.271C45.2425 225.861 44.9032 225.291 44.4813 224.652C43.6423 223.381 42.4568 221.805 41.1038 220.668L40.4606 221.434C41.7038 222.478 42.8265 223.96 43.6467 225.203C44.0543 225.82 44.3823 226.371 44.6081 226.767C44.7209 226.965 44.808 227.123 44.8666 227.232C44.8959 227.286 44.918 227.328 44.9326 227.356C44.94 227.37 44.9454 227.381 44.9489 227.387C44.9507 227.391 44.952 227.393 44.9528 227.395C44.9532 227.396 44.9535 227.396 44.9536 227.396C44.9537 227.397 44.9538 227.397 44.9538 227.397C44.9538 227.397 44.9538 227.397 44.9538 227.397C44.9538 227.397 44.9537 227.397 45.3986 227.168ZM49.1142 221.609L45.0048 226.86L45.7923 227.476L49.9017 222.225L49.1142 221.609ZM42.1868 219.316C43.5747 220.284 45.3821 221.054 46.8194 221.579C47.5425 221.843 48.1807 222.048 48.6386 222.187C48.8677 222.256 49.052 222.309 49.1795 222.345C49.2433 222.363 49.293 222.377 49.3269 222.386C49.3439 222.391 49.357 222.394 49.366 222.397C49.3705 222.398 49.374 222.399 49.3764 222.399C49.3776 222.4 49.3786 222.4 49.3793 222.4C49.3796 222.4 49.3799 222.4 49.3801 222.4C49.3802 222.4 49.3803 222.4 49.3804 222.4C49.3805 222.401 49.3805 222.401 49.508 221.917C49.6354 221.434 49.6354 221.434 49.6355 221.434C49.6354 221.434 49.6354 221.434 49.6354 221.434C49.6354 221.434 49.6352 221.434 49.6351 221.433C49.6347 221.433 49.6341 221.433 49.6332 221.433C49.6314 221.432 49.6285 221.432 49.6247 221.431C49.617 221.429 49.6052 221.425 49.5896 221.421C49.5583 221.413 49.5115 221.4 49.4507 221.383C49.329 221.348 49.1512 221.297 48.9292 221.23C48.4849 221.095 47.8646 220.896 47.1623 220.639C45.7491 220.123 44.039 219.388 42.7588 218.496L42.1868 219.316ZM47.056 216.124C45.8988 217.602 44.1893 218.386 42.467 218.406L42.4787 219.406C44.4949 219.382 46.4935 218.465 47.8435 216.74L47.056 216.124ZM46.127 207.924C48.6373 209.888 49.0636 213.558 47.056 216.124L47.8435 216.74C50.1823 213.751 49.7002 209.45 46.7433 207.137L46.127 207.924ZM31.0688 206.519C33.9083 206.236 36.9574 205.933 39.6782 206.037C42.4187 206.142 44.7025 206.657 46.1027 207.904L46.7676 207.157C45.0917 205.665 42.499 205.144 39.7163 205.038C36.9139 204.931 33.7931 205.243 30.9696 205.524L31.0688 206.519Z" fill="#C7DCFF" mask="url(#path-14-outside-1)"/>
<path fill-rule="evenodd" clip-rule="evenodd" d="M235.899 214.63C236.14 212.001 236.362 209.59 236.818 207.917L236.82 207.916L236.818 207.916L236.818 207.916L236.818 207.916C235.096 208.114 232.679 207.969 230.044 207.81C224.354 207.468 217.645 207.064 214.712 209.93C212.091 212.181 211.843 216.193 214.16 218.89C215.499 220.45 217.402 221.228 219.275 221.173C216.639 223.281 212.386 224.468 212.386 224.468L216.766 229.569C216.766 229.569 218.727 225.512 221.062 223.269C220.728 225.109 221.212 227.103 222.548 228.659C224.865 231.356 228.868 231.717 231.489 229.466C234.765 226.999 235.379 220.307 235.899 214.63L235.899 214.63Z" fill="#C7DCFF"/>
<mask id="path-17-outside-2" maskUnits="userSpaceOnUse" x="203.263" y="194.503" width="41.1092" height="40.6951" fill="black">
<rect fill="white" x="203.263" y="194.503" width="41.1092" height="40.6951"/>
<path fill-rule="evenodd" clip-rule="evenodd" d="M217.541 218.613C215.696 218.684 213.826 217.936 212.514 216.415C210.245 213.787 210.503 209.845 213.09 207.611C215.987 204.771 222.586 205.109 228.184 205.396C230.777 205.529 233.155 205.651 234.85 205.441L234.849 205.442C234.393 207.089 234.167 209.459 233.92 212.043C233.386 217.622 232.757 224.2 229.525 226.651C226.938 228.885 223 228.565 220.731 225.936C219.422 224.42 218.954 222.467 219.288 220.657C216.983 222.881 215.039 226.881 215.039 226.881L210.748 221.91C210.748 221.91 214.939 220.707 217.541 218.613Z"/>
</mask>
<path fill-rule="evenodd" clip-rule="evenodd" d="M217.541 218.613C215.696 218.684 213.826 217.936 212.514 216.415C210.245 213.787 210.503 209.845 213.09 207.611C215.987 204.771 222.586 205.109 228.184 205.396C230.777 205.529 233.155 205.651 234.85 205.441L234.849 205.442C234.393 207.089 234.167 209.459 233.92 212.043C233.386 217.622 232.757 224.2 229.525 226.651C226.938 228.885 223 228.565 220.731 225.936C219.422 224.42 218.954 222.467 219.288 220.657C216.983 222.881 215.039 226.881 215.039 226.881L210.748 221.91C210.748 221.91 214.939 220.707 217.541 218.613Z" fill="#E5EFFF"/>
<path d="M217.541 218.613L217.854 219.002C218.022 218.867 218.084 218.639 218.009 218.437C217.933 218.235 217.737 218.105 217.521 218.113L217.541 218.613ZM213.09 207.611L213.417 207.989C213.425 207.982 213.433 207.975 213.441 207.968L213.09 207.611ZM228.184 205.396L228.158 205.896L228.158 205.896L228.184 205.396ZM234.85 205.441L235.177 205.819C235.344 205.675 235.397 205.439 235.307 205.238C235.218 205.037 235.007 204.918 234.789 204.945L234.85 205.441ZM234.849 205.442L234.522 205.064C234.447 205.128 234.393 205.214 234.367 205.309L234.849 205.442ZM233.92 212.043L233.422 211.995L233.92 212.043ZM229.525 226.651L229.223 226.253C229.215 226.259 229.207 226.266 229.199 226.273L229.525 226.651ZM219.288 220.657L219.78 220.748C219.819 220.535 219.716 220.32 219.525 220.217C219.334 220.114 219.098 220.147 218.941 220.298L219.288 220.657ZM215.039 226.881L214.661 227.207C214.771 227.335 214.937 227.398 215.104 227.376C215.271 227.355 215.416 227.25 215.489 227.099L215.039 226.881ZM210.748 221.91L210.61 221.429C210.446 221.476 210.318 221.603 210.269 221.767C210.22 221.93 210.258 222.107 210.37 222.236L210.748 221.91ZM217.521 218.113C215.824 218.178 214.102 217.49 212.893 216.089L212.136 216.742C213.55 218.381 215.568 219.189 217.56 219.112L217.521 218.113ZM212.893 216.089C210.799 213.663 211.044 210.038 213.417 207.989L212.764 207.232C209.961 209.651 209.691 213.91 212.136 216.742L212.893 216.089ZM213.441 207.968C214.757 206.677 216.977 206.062 219.667 205.829C222.338 205.598 225.351 205.752 228.158 205.896L228.209 204.897C225.419 204.754 222.333 204.595 219.581 204.833C216.849 205.069 214.32 205.705 212.74 207.254L213.441 207.968ZM228.158 205.896C230.733 206.028 233.163 206.154 234.912 205.937L234.789 204.945C233.147 205.148 230.821 205.031 228.209 204.897L228.158 205.896ZM234.524 205.062L234.522 205.064L235.175 205.821L235.177 205.819L234.524 205.062ZM234.367 205.309C233.897 207.008 233.667 209.43 233.422 211.995L234.418 212.09C234.666 209.488 234.89 207.17 235.331 205.576L234.367 205.309ZM233.422 211.995C233.155 214.793 232.867 217.796 232.248 220.405C231.625 223.033 230.692 225.139 229.223 226.253L229.827 227.05C231.591 225.713 232.588 223.304 233.221 220.636C233.858 217.948 234.152 214.872 234.418 212.09L233.422 211.995ZM229.199 226.273C226.826 228.321 223.203 228.035 221.109 225.609L220.352 226.263C222.797 229.095 227.05 229.449 229.852 227.03L229.199 226.273ZM221.109 225.609C219.903 224.212 219.472 222.414 219.78 220.748L218.797 220.567C218.436 222.521 218.942 224.628 220.352 226.263L221.109 225.609ZM218.941 220.298C217.741 221.455 216.652 223.055 215.872 224.344C215.479 224.992 215.159 225.57 214.938 225.986C214.827 226.194 214.74 226.362 214.681 226.478C214.652 226.537 214.629 226.582 214.614 226.613C214.606 226.629 214.6 226.641 214.596 226.649C214.594 226.653 214.593 226.656 214.592 226.658C214.591 226.659 214.591 226.66 214.59 226.661C214.59 226.661 214.59 226.661 214.59 226.662C214.59 226.662 214.59 226.662 214.59 226.662C214.59 226.662 214.59 226.662 215.039 226.881C215.489 227.099 215.489 227.099 215.489 227.099C215.489 227.099 215.489 227.099 215.489 227.099C215.489 227.099 215.489 227.099 215.489 227.099C215.489 227.099 215.49 227.098 215.49 227.097C215.491 227.095 215.492 227.093 215.494 227.089C215.497 227.082 215.503 227.072 215.51 227.057C215.524 227.029 215.545 226.986 215.573 226.931C215.63 226.82 215.713 226.658 215.82 226.456C216.035 226.053 216.346 225.491 216.727 224.862C217.494 223.595 218.53 222.084 219.635 221.017L218.941 220.298ZM215.418 226.554L211.127 221.583L210.37 222.236L214.661 227.207L215.418 226.554ZM210.748 221.91C210.886 222.39 210.886 222.39 210.886 222.39C210.886 222.39 210.886 222.39 210.887 222.39C210.887 222.39 210.887 222.39 210.887 222.39C210.888 222.39 210.889 222.389 210.89 222.389C210.893 222.388 210.896 222.387 210.9 222.386C210.909 222.383 210.922 222.38 210.938 222.375C210.971 222.365 211.019 222.351 211.081 222.332C211.204 222.293 211.382 222.237 211.603 222.163C212.044 222.015 212.66 221.795 213.358 221.509C214.747 220.94 216.497 220.094 217.854 219.002L217.227 218.223C215.982 219.225 214.336 220.028 212.979 220.584C212.305 220.86 211.71 221.072 211.285 221.215C211.072 221.286 210.902 221.34 210.786 221.376C210.728 221.394 210.683 221.407 210.653 221.416C210.638 221.421 210.627 221.424 210.62 221.426C210.616 221.427 210.614 221.428 210.612 221.428C210.611 221.429 210.611 221.429 210.61 221.429C210.61 221.429 210.61 221.429 210.61 221.429C210.61 221.429 210.61 221.429 210.61 221.429C210.61 221.429 210.61 221.429 210.748 221.91Z" fill="#C7DCFF" mask="url(#path-17-outside-2)"/>
<path d="M91.7217 187.761L95.1953 196.057L90.3987 198.065L93.6987 205.946L84.5055 209.796L81.2055 201.915L61.2201 210.283L57.2254 200.743L64.4964 166.497L75.2885 161.979L86.9251 189.77L91.7217 187.761ZM71.0106 176.445L66.54 198.305L78.1316 193.452L71.0106 176.445Z" fill="#8DB4E7"/>
<path d="M199.724 201.286L196.228 209.572L191.436 207.55L188.114 215.422L178.932 211.547L182.254 203.676L162.292 195.252L166.313 185.722L195.869 166.957L206.249 171.338L194.535 199.096L199.724 201.286ZM192.919 178.403L174.174 190.504L185.751 195.389L192.919 178.403Z" fill="#8DB4E7"/>
<path d="M87.7241 189.435L91.1978 197.731L86.4014 199.739L89.7013 207.62L80.5079 211.47L77.2079 203.589L57.2226 211.957L53.2278 202.417L60.499 168.171L70.8914 163.82L82.528 191.611L87.7241 189.435ZM67.0131 178.119L62.5425 199.979L74.134 195.125L67.0131 178.119Z" fill="#C7DCFF"/>
<path d="M195.732 199.602L192.235 207.888L187.444 205.866L184.122 213.738L174.94 209.863L178.262 201.991L158.3 193.567L162.321 184.038L191.875 165.272L202.255 169.652L190.541 197.411L195.732 199.602ZM188.927 176.718L170.18 188.819L181.759 193.705L188.927 176.718Z" fill="#C7DCFF"/>
<path d="M156.941 187.559C153.274 161.149 148.7 162.531 139.141 150.742C139.02 150.594 138.786 150.573 138.635 150.703C136.989 152.135 135.253 155.181 134.642 158.341C131.641 158.011 128.629 157.665 125.595 158.02C123.735 158.236 121.924 158.795 120.105 159.216C119.119 156.143 117.04 153.335 115.225 152.112C115.059 152.001 114.829 152.049 114.727 152.211C106.65 165.061 102.203 164.222 101.729 190.882C101.729 190.882 109.347 201.442 130.147 200.468C150.947 199.494 156.941 187.559 156.941 187.559Z" fill="#8DB4E7"/>
<path d="M142.512 155.309C148.774 170.365 140.855 175.355 134.268 177.766C144.369 176.594 157.057 166.268 154.662 160.305C150.897 150.931 154.24 148.932 157.379 148.165C162.49 147.514 168.219 142.594 166.017 136.72C163.815 130.845 157.989 131.065 155.006 131.369C147.218 132.979 136.611 141.118 142.512 155.309Z" fill="#8DB4E7"/>
<path d="M152.84 186.983C150.234 159.122 145.82 160.381 137.092 147.614C136.981 147.454 136.758 147.422 136.61 147.553C134.989 148.986 133.229 152.109 132.538 155.399C129.684 154.928 126.82 154.439 123.911 154.685C122.128 154.834 120.38 155.345 118.628 155.711C117.791 152.446 115.901 149.413 114.209 148.055C114.055 147.931 113.834 147.972 113.731 148.138C105.583 161.282 101.364 160.217 100.009 188.166C100.009 188.166 106.924 199.563 126.819 199.409C146.713 199.254 152.84 186.983 152.84 186.983Z" fill="#C7DCFF"/>
<path fill-rule="evenodd" clip-rule="evenodd" d="M120.255 155.488C120.817 155.475 121.282 155.92 121.295 156.482L121.453 163.534C121.466 164.096 121.021 164.561 120.459 164.574C119.898 164.586 119.432 164.141 119.419 163.58L119.261 156.527C119.249 155.966 119.694 155.5 120.255 155.488Z" fill="#8DB4E7"/>
<path fill-rule="evenodd" clip-rule="evenodd" d="M124.855 154.57C125.417 154.557 125.882 155.002 125.895 155.564L126.053 162.616C126.066 163.178 125.621 163.643 125.059 163.656C124.497 163.668 124.032 163.223 124.019 162.662L123.861 155.609C123.849 155.048 124.294 154.582 124.855 154.57Z" fill="#8DB4E7"/>
<path fill-rule="evenodd" clip-rule="evenodd" d="M130.251 155.261C130.812 155.249 131.278 155.694 131.29 156.255L131.449 163.307C131.461 163.869 131.016 164.334 130.455 164.347C129.893 164.36 129.427 163.915 129.415 163.353L129.257 156.301C129.244 155.739 129.689 155.274 130.251 155.261Z" fill="#8DB4E7"/>
<path d="M103.684 180.401C103.631 180.402 103.569 180.403 103.506 180.394L91.7162 178.879C91.0862 178.799 90.6442 178.222 90.7243 177.592C90.8044 176.963 91.3807 176.52 92.0105 176.601L103.8 178.116C104.43 178.196 104.872 178.772 104.792 179.402C104.721 179.969 104.238 180.388 103.684 180.401Z" fill="#8DB4E7"/>
<path d="M94.1374 185.609C93.5409 185.622 93.0181 185.173 92.9623 184.557C92.9062 183.919 93.3753 183.365 94.0021 183.309L103.644 182.433C104.271 182.377 104.836 182.846 104.892 183.473C104.949 184.11 104.479 184.665 103.853 184.721L94.2104 185.596C94.1896 185.607 94.1582 185.608 94.1374 185.609Z" fill="#8DB4E7"/>
<path d="M147.874 179.422C147.32 179.435 146.819 179.038 146.712 178.464C146.604 177.839 147.019 177.243 147.645 177.135L159.355 175.093C159.98 174.985 160.576 175.401 160.684 176.026C160.793 176.652 160.377 177.247 159.751 177.356L148.041 179.398C147.989 179.42 147.937 179.421 147.874 179.422Z" fill="#8DB4E7"/>
<path d="M157.642 184.197C157.611 184.198 157.59 184.198 157.558 184.199L147.887 183.756C147.247 183.729 146.764 183.185 146.792 182.556C146.82 181.927 147.353 181.434 147.992 181.461L157.664 181.904C158.303 181.932 158.786 182.476 158.759 183.104C158.741 183.712 158.249 184.184 157.642 184.197Z" fill="#8DB4E7"/>
<path d="M127.364 183.523C126.761 183.44 124.959 183.48 124.35 183.591C123.709 183.712 122.908 183.891 123.199 185.387C123.357 186.199 123.866 186.907 124.522 187.429C125.68 188.347 126.235 188.228 127.122 187.542C127.85 186.989 128.443 186.182 128.584 185.256C128.829 183.748 128.01 183.605 127.364 183.523Z" fill="#8DB4E7"/>
<path fill-rule="evenodd" clip-rule="evenodd" d="M116.912 185.547C119.101 185.497 120.836 183.683 120.787 181.494C120.738 179.304 118.924 177.569 116.734 177.618C116.194 177.63 115.682 177.75 115.217 177.956C115.298 177.945 115.381 177.938 115.465 177.936C116.652 177.91 117.635 178.85 117.662 180.037C117.689 181.223 116.748 182.207 115.561 182.233C114.375 182.26 113.391 181.32 113.365 180.133C113.36 179.917 113.387 179.709 113.442 179.511C113.056 180.138 112.841 180.88 112.859 181.671C112.908 183.861 114.723 185.596 116.912 185.547Z" fill="#8DB4E7"/>
<path fill-rule="evenodd" clip-rule="evenodd" d="M134.867 184.707C137.057 184.658 138.792 182.843 138.743 180.654C138.694 178.464 136.879 176.729 134.69 176.778C134.151 176.79 133.64 176.909 133.176 177.114C133.256 177.104 133.337 177.097 133.42 177.095C134.606 177.069 135.59 178.009 135.616 179.196C135.643 180.382 134.703 181.366 133.516 181.393C132.329 181.419 131.346 180.479 131.319 179.292C131.314 179.078 131.341 178.871 131.395 178.674C131.011 179.301 130.797 180.042 130.814 180.831C130.863 183.021 132.678 184.756 134.867 184.707Z" fill="#8DB4E7"/>
<path fill-rule="evenodd" clip-rule="evenodd" d="M109.646 186.957C109.374 186.465 108.755 186.287 108.263 186.56C107.772 186.832 107.594 187.451 107.866 187.942C108.83 189.682 110.585 190.997 112.525 191.93C114.48 192.871 116.728 193.477 118.828 193.738C119.94 193.877 121.04 193.922 122.054 193.859C122.222 194.02 122.445 194.198 122.733 194.368C123.461 194.797 124.555 195.145 126.15 195.109C127.744 195.073 128.801 194.678 129.489 194.2C129.741 194.025 129.936 193.844 130.083 193.678C131.108 193.698 132.216 193.603 133.331 193.414C135.417 193.059 137.636 192.353 139.547 191.325C141.442 190.306 143.137 188.914 144.022 187.132C144.272 186.629 144.067 186.019 143.564 185.769C143.061 185.519 142.45 185.724 142.2 186.227C141.578 187.481 140.29 188.615 138.583 189.533C136.893 190.443 134.889 191.085 132.99 191.408C131.071 191.735 129.363 191.718 128.236 191.403C127.673 191.246 127.35 191.041 127.19 190.862C127.065 190.722 126.996 190.558 127.043 190.267C127.134 189.713 126.758 189.19 126.203 189.099C126.129 189.087 126.055 189.084 125.983 189.088C125.908 189.086 125.832 189.093 125.755 189.109C125.205 189.224 124.853 189.764 124.968 190.313C125.029 190.602 124.967 190.769 124.849 190.914C124.697 191.1 124.384 191.32 123.827 191.502C122.716 191.867 121.011 191.96 119.079 191.72C117.167 191.482 115.137 190.93 113.407 190.097C111.661 189.257 110.324 188.181 109.646 186.957ZM126.787 193.029C126.526 192.903 126.28 192.754 126.057 192.578C125.846 192.762 125.61 192.919 125.359 193.055C125.583 193.073 125.831 193.081 126.105 193.075C126.356 193.07 126.582 193.053 126.787 193.029Z" fill="#8DB4E7"/>
<path d="M130.082 117.913C129.056 112.822 119.443 100.779 109.302 95.4962C113.897 84.1671 114.676 80.5845 113.563 77.9111C119.394 79.6523 132.801 86.0682 136.964 98.9495C133.83 109.902 130.082 117.913 130.082 117.913Z" fill="white"/>
<path d="M122.384 97.5193C121.946 95.475 119.739 93.2398 119.545 93.1181C119.545 93.1181 122.558 92.2964 124.923 93.1182C127.112 95.9546 127.112 97.9123 127.112 97.9123C127.112 97.9123 123.494 96.906 122.384 97.5193Z" fill="#C7DCFF"/>
<path d="M199.906 139.591C205.09 139.866 219.146 133.553 226.787 125.045C236.61 132.318 239.885 133.965 242.751 133.553C239.613 138.768 230.062 150.158 216.552 150.981C206.728 145.218 199.906 139.591 199.906 139.591Z" fill="#DFEBFF"/>
<path fill-rule="evenodd" clip-rule="evenodd" d="M225.188 136.013C224.662 135.492 223.585 135.729 222.782 136.542C222.612 136.713 222.468 136.897 222.352 137.084L222.319 137.087C222.275 137.179 222.215 137.316 222.14 137.486L222.14 137.486C221.776 138.314 221.066 139.932 220.129 141.084C222.472 141.618 224.568 141.362 225.324 141.167L225.332 141.154C225.821 141.07 226.351 140.833 226.832 140.452C227.916 139.593 228.344 138.328 227.787 137.626C227.306 137.019 226.248 137.031 225.27 137.6C225.557 136.986 225.548 136.368 225.188 136.013Z" fill="#8DB4E7"/>
</g>
<defs>
<linearGradient id="paint0_linear" x1="127.5" y1="11.4326" x2="127.5" y2="184.378" gradientUnits="userSpaceOnUse">
<stop stop-color="#8DB4E7"/>
<stop offset="1" stop-color="#E5EFFF" stop-opacity="0.1"/>
</linearGradient>
</defs>
</svg>
