<svg width="261" height="260" viewBox="0 0 261 260" fill="none" xmlns="http://www.w3.org/2000/svg">
<mask id="mask0" mask-type="alpha" maskUnits="userSpaceOnUse" x="0" y="0" width="261" height="260">
<rect x="0.5" width="260" height="260" fill="#C4C4C4"/>
</mask>
<g mask="url(#mask0)">
<path d="M63.7687 202.409L211.376 202.409" stroke="#C7DCFF" stroke-width="2.38568" stroke-miterlimit="10" stroke-linecap="round" stroke-linejoin="round"/>
<path d="M223.473 202.123H235.341" stroke="#C7DCFF" stroke-width="2.38568" stroke-miterlimit="10" stroke-linecap="round" stroke-linejoin="round"/>
<path d="M61.9463 189.653C66.9786 189.653 71.0579 185.573 71.0579 180.541C71.0579 175.509 66.9786 171.43 61.9463 171.43C56.9142 171.43 52.8347 175.509 52.8347 180.541C52.8347 185.573 56.9142 189.653 61.9463 189.653Z" fill="#8DB4E7"/>
<path d="M151.219 151.112C151.335 166.265 152.602 185.443 153.062 187.454C152.946 189.586 148.571 196.333 145.002 191.716C141.433 187.1 134.179 177.156 137.518 158.451C140.857 139.866 151.219 151.112 151.219 151.112Z" fill="#8DB4E7"/>
<path d="M60.6793 190.876C60.6793 190.99 60.6793 191.219 60.7925 191.334C60.7925 191.448 60.9057 191.677 60.9057 191.792C61.0188 191.906 61.0188 192.135 61.1321 192.25C61.2453 192.364 61.3585 192.479 61.4717 192.708C62.0377 193.511 63.0566 194.198 64.1887 194.885C64.4151 195 64.7548 195.114 64.9811 195.229C65.0943 195.343 65.3208 195.343 65.434 195.458C65.5471 195.572 65.7736 195.572 65.8868 195.687L66.3396 195.801C66.9057 196.03 67.5849 196.259 68.2642 196.374C68.6037 196.488 68.8302 196.488 69.1699 196.603C69.3962 196.603 69.6226 196.717 69.9623 196.717C70.1887 196.717 70.4151 196.832 70.6414 196.832C72.4528 197.061 74.1509 196.946 75.6226 196.374C80.7169 194.427 82.7548 190.418 82.7548 190.418C82.7548 190.418 84.1132 190.761 86.2642 190.99C90.3397 191.563 97.132 192.364 103.019 191.792C104.943 191.563 106.981 191.105 109.132 190.532C109.811 190.303 110.49 190.074 111.283 189.845C112.641 189.387 113.887 188.813 115.245 188.241C118.868 186.637 122.265 184.46 125.095 182.055C125.434 181.826 125.774 181.483 126.113 181.254C127.698 179.764 129.057 178.161 130.076 176.556C132.113 173.006 134.831 170.028 137.773 167.165C142.189 162.925 147.397 159.259 152.152 155.366C153.622 154.219 155.094 152.96 156.452 151.815C160.868 147.92 164.83 143.338 167.548 138.069C170.49 132.341 170.49 126.957 170.037 120.656C170.037 120.313 169.358 116.189 169.585 116.076C171.622 114.7 173.094 112.753 173.887 110.347C175.698 105.536 175.019 99.3506 172.868 95.3414C172.641 94.8832 172.415 94.4251 172.189 94.0814C169.925 90.0722 167.207 85.3757 164.151 82.2828L158.603 76.6699H110.378C110.378 76.6699 109.811 79.9918 109.018 84.1155C108.906 84.4592 108.906 84.8029 108.792 85.1465C108.679 85.8339 108.565 86.5211 108.34 87.2084C108.226 87.5521 108.226 87.8958 108.113 88.2393C108.113 88.354 108.113 88.354 108 88.4685C107.887 89.2702 107.66 89.9576 107.547 90.7594C107.094 93.0505 106.528 95.1123 105.849 96.8305C105.849 96.945 105.736 97.1742 105.736 97.2887C105.396 98.2052 105.057 99.0071 104.717 99.5798C102 104.047 88.1886 116.876 78.566 124.093C68.9434 131.31 64.5283 143.567 62.0377 163.383C59.2076 183.086 60.2265 187.095 60.6793 190.876Z" fill="#EAEEF9"/>
<path d="M147.018 184.516C153.553 183.775 153.439 184.516 157.109 184.516C160.777 184.516 161.694 186.491 163.071 188.342C163.873 189.577 165.02 193.156 165.708 195.748C166.167 197.229 165.134 198.587 163.759 198.71C159.63 198.71 152.177 198.834 150.916 198.71C149.081 198.463 145.183 197.97 143.462 194.884C142.89 193.773 142.545 192.292 142.202 190.811C141.744 187.972 143.462 185.133 146.215 184.762L147.018 184.516Z" fill="#E7EDFB"/>
<path opacity="0.3" d="M60.7063 191.024C61.0389 194.794 70.1333 198.335 75.124 196.393C80.2256 194.451 82.111 190.453 82.111 190.453C82.111 190.453 93.0907 192.737 101.963 191.938C108.617 191.253 117.6 187.253 123.479 182.113L122.702 164.747C122.702 164.747 122.037 149.553 121.371 142.927C120.818 136.3 125.919 136.415 125.698 127.847C125.364 119.278 128.692 104.083 133.017 90.1452L117.934 78.4922L107.619 84.5472C106.621 90.2594 104.958 97.4569 103.516 100.084C100.854 104.54 87.3237 117.336 77.8966 124.534C68.4696 131.73 64.1442 143.954 61.7043 163.72C59.2645 183.255 60.2627 187.253 60.7063 191.024Z" fill="#DFEBFF"/>
<path opacity="0.4" d="M60.7062 191.254C60.7062 191.367 60.7062 191.594 60.8198 191.709C60.8198 191.822 60.9333 192.049 60.9333 192.164C61.0468 192.277 61.0468 192.504 61.1603 192.619C61.2738 192.732 61.3874 192.846 61.5009 193.074C62.0684 193.871 63.0901 194.553 64.2252 195.236C64.4524 195.349 64.7928 195.463 65.0199 195.578C65.1334 195.691 65.3605 195.691 65.474 195.805C65.5875 195.918 65.8145 195.918 65.9281 196.033L66.3822 196.146C66.9498 196.373 67.6308 196.601 68.3119 196.715C68.6525 196.828 68.8796 196.828 69.22 196.942C70.8093 195.918 71.7174 195.236 71.7174 195.236C71.7174 195.236 71.7174 195.236 71.0364 191.139C70.8093 189.888 70.5823 188.182 70.2417 185.906C68.7659 176.463 69.7876 157.804 82.3881 158.373C81.026 148.816 86.2477 138.235 90.7884 131.522C95.4426 124.923 98.8482 128.564 102.821 133.115C103.275 131.181 101.232 123.444 98.7347 116.618C103.843 122.761 108.384 124.923 120.53 126.061C115.082 121.51 114.399 119.12 109.973 109.109C115.536 111.725 126.887 114.797 133.698 115.708C150.158 117.87 164.347 117.073 173.883 111.27C175.7 106.492 175.019 100.348 172.862 96.366C172.635 95.9109 172.407 95.4558 172.18 95.1144C163.439 94.3181 148.569 93.0665 134.606 91.8151C124.389 90.9049 114.628 89.9946 108.043 89.4258C108.043 89.5395 108.043 89.5395 107.93 89.6534C107.816 90.4497 107.589 91.1325 107.475 91.9288C107.021 94.2044 106.454 96.2523 105.773 97.9588C105.773 98.0726 105.659 98.3002 105.659 98.414C105.319 99.3242 104.978 100.121 104.637 100.689C101.913 105.127 88.064 117.87 78.4149 125.038C68.7659 132.204 64.3389 144.378 61.8415 164.062C59.2305 183.517 60.2521 187.498 60.7062 191.254Z" fill="#8DB4E7"/>
<path d="M127.55 196.943C127.55 196.943 126.628 183.085 126.512 181.254C126.397 179.994 118.906 185.948 111.989 173.237C105.074 160.526 104.037 158.236 104.267 155.029C102.193 171.176 108.647 182.056 109.915 187.895C111.183 193.736 112.336 193.507 112.336 193.507L123.977 195.796L127.55 196.943Z" fill="#8DB4E7"/>
<path d="M115.579 188.191C121.64 187.381 121.534 188.191 124.937 188.191C128.34 188.191 129.191 190.156 130.468 192.005C131.212 193.161 132.276 196.861 132.914 199.52C133.34 201.023 132.382 202.41 131.106 202.41C127.277 202.41 118.768 202.293 117.598 202.178C115.897 201.947 113.876 201.6 112.388 198.479C111.855 197.323 111.537 195.82 111.217 194.317C110.792 191.427 112.388 188.653 114.939 188.191H115.579Z" fill="#E7EDFB"/>
<path d="M85.1345 189.519C88.2407 191.464 90.0326 196.086 90.9884 199.369C91.4663 200.951 90.3911 202.41 88.9574 202.41C84.6566 202.41 75.0992 202.287 73.7852 202.166C66.2588 201.194 65.4225 192.803 71.1569 189.519C74.741 187.329 81.5506 187.208 85.1345 189.519Z" fill="#E7EDFB"/>
<path d="M164.027 101.565C163.03 102.5 161.908 103.341 160.769 104.07C159.22 105.085 157.544 106.004 155.852 106.813C150.666 109.254 145.148 110.951 139.314 111.22C134.492 111.457 129.369 111.171 124.643 109.695C122.998 109.251 121.323 108.585 119.869 107.887C111.49 103.763 106.716 100.368 106.053 90.9482C105.39 81.5284 105.818 74.2176 105.818 74.2176C105.818 73.4247 106.672 72.2829 106.909 71.5694C107.352 70.713 107.668 69.7616 108.111 68.9052C108.886 67.2086 109.756 65.3849 110.657 63.7833C112.649 60.3264 115.164 57.3612 118.358 55.2048C123.511 51.7483 129.757 50.4011 135.875 49.7517C140.318 49.2289 144.919 49.0233 149.377 50.1973C153.25 51.2287 156.57 53.1321 159.542 55.7649C162.767 58.5881 165.296 62.0773 168.126 65.2969C168.126 65.2969 170.575 72.1956 172.567 81.4255C174.557 90.6553 170.905 95.1429 164.027 101.565Z" fill="#E7EDFB"/>
<path d="M125.652 86.8561C124.515 88.1815 123.456 92.4976 117.207 90.8965C108.332 88.535 107.627 76.8633 111.758 72.5475C119.144 64.7404 128.05 66.5198 130.506 74.9263C133.037 83.8987 127.941 84.3183 125.652 86.8561Z" fill="#C7DCFF"/>
<path d="M107.764 58.8281C110.279 55.3067 113.991 56.1752 112.71 60.221C110.617 66.7237 106.433 69.9009 106.106 93.8159C106.008 98.042 91.7073 89.457 91.1091 74.5673C90.9473 71.7827 94.2716 70.7185 94.2716 70.7185C96.2661 70.0798 103.807 64.4296 107.764 58.8281Z" fill="#8DB4E7"/>
<path d="M158.385 98.4006C158.762 101.25 158.385 104.1 157.419 106.575C156.136 107.471 154.732 108.269 153.329 109.067C148.982 111.248 144.334 112.778 139.625 113.038C135.67 113.298 131.309 112.923 127.371 111.669C125.56 109.389 124.459 106.767 124.052 103.689C122.815 94.341 129.531 85.6295 139.04 84.1651C148.441 82.7169 157.149 89.0529 158.385 98.4006Z" fill="#C7DCFF"/>
<path d="M121.29 85.7158C125.275 85.2182 128.044 81.9881 127.476 78.5014C126.906 75.0147 123.215 72.5915 119.231 73.0892C115.246 73.5868 112.477 76.8169 113.045 80.3036C113.614 83.7904 117.306 86.2135 121.29 85.7158Z" fill="white"/>
<path d="M125.683 79.5455C126.035 82.4861 124.26 85.3088 121.796 85.7285C119.332 86.1482 116.968 84.0307 116.616 81.0901C117.067 81.4934 117.601 81.7623 118.192 81.6616C119.276 81.4769 120.136 80.2504 119.967 78.8389C119.812 77.545 118.798 76.6374 117.7 76.7045C118.39 75.7468 119.417 75.0916 120.502 74.9069C123.064 74.4705 125.316 76.4873 125.683 79.5455Z" fill="#8DB4E7"/>
<path d="M156.696 82.0621C160.184 81.4934 162.606 77.8019 162.109 73.817C161.611 69.8322 158.382 67.0629 154.894 67.6317C151.407 68.2004 148.985 71.8919 149.482 75.8767C149.98 79.8616 153.21 82.6308 156.696 82.0621Z" fill="white"/>
<path d="M149.474 75.6203C149.894 78.5621 152.719 80.6806 155.66 80.2607C158.601 79.8408 160.718 77.017 160.298 74.0752C159.895 74.613 159.357 75.05 158.651 75.1508C157.357 75.3355 156.03 74.4444 155.828 73.0323C155.643 71.738 156.55 70.5277 157.828 70.2254C156.77 69.536 155.409 69.25 154.114 69.4348C151.173 69.8547 149.038 72.5609 149.474 75.6203Z" fill="#8DB4E7"/>
<path d="M138.211 85.9506C137.302 86.06 136.411 86.2652 135.534 86.5664C134.447 86.9906 132.825 87.6749 133.035 88.9207C133.295 90.4539 137.853 91.3716 138.988 91.2348C140.125 91.0981 144.213 89.2367 143.937 87.6076C143.678 86.0744 141.893 85.8004 140.385 85.7866C139.686 85.7728 138.876 85.7727 138.211 85.9506Z" fill="#8DB4E7"/>
<path d="M139.276 91.6778L138.994 91.248L138.82 91.7584C138.82 91.7584 138.972 95.089 138.484 96.2305C138.939 96.8215 139.319 96.7544 139.46 96.6335C139.699 96.6873 140.078 96.6202 140.306 95.9084C139.743 95.0489 139.276 91.6778 139.276 91.6778Z" fill="#8DB4E7"/>
<path d="M118.308 66.1185C116.537 66.8256 115.029 67.4991 113.861 68.6106C112.694 69.7221 111.864 71.2715 111.581 72.8714C111.6 72.9893 111.467 73.0062 111.337 73.023C111.204 73.0399 111.186 72.9219 111.186 72.9219C111.054 72.0967 111.298 71.1029 111.581 70.3451C111.846 69.4693 112.392 68.6778 113.089 67.9873C113.786 67.2969 114.503 66.7244 115.369 66.2528C116.254 65.8992 117.291 65.6467 118.252 65.7647C118.403 65.8658 118.554 65.9669 118.308 66.1185C118.44 66.1017 118.44 66.1017 118.308 66.1185Z" fill="#8DB4E7"/>
<path d="M154.988 59.1057C156.528 59.3374 157.856 59.6021 159.034 60.3628C160.211 61.1236 161.238 62.3804 161.856 63.8188C161.871 63.9347 161.977 63.918 162.082 63.9016C162.188 63.8851 162.173 63.7693 162.173 63.7693C162.067 62.9592 161.629 62.0828 161.221 61.4378C160.8 60.6773 160.181 60.0654 159.471 59.5858C158.761 59.1062 158.067 58.7424 157.282 58.5108C156.513 58.395 155.652 58.4114 154.942 58.7585C154.852 58.8907 154.867 59.0066 154.988 59.1057C154.988 59.1057 154.882 59.1223 154.988 59.1057Z" fill="#8DB4E7"/>
<path d="M161.727 50.5766C158.424 47.9468 155.186 49.8015 157.476 53.2699C161.189 58.8357 165.96 60.6753 172.718 83.1952C173.95 87.1637 185.01 75.0666 181.553 60.8223C180.953 58.1445 177.556 58.0634 177.556 58.0634C175.518 58.0148 166.939 54.7713 161.727 50.5766Z" fill="#8DB4E7"/>
<path d="M25.5 208.31H66.6254C67.9059 208.31 68.1318 210.996 66.8513 211.317C55.2519 214.756 41.2421 216.152 49.3015 223.135C63.01 234.952 84.4012 240.968 109.86 234.199C132.758 228.184 133.059 139.663 134.113 115.383C134.34 111.086 136.825 107.648 139.838 107.648H141.796C144.959 107.648 147.595 111.301 147.595 115.813V130.424" stroke="#ADC7E9" stroke-width="3.1809" stroke-miterlimit="10" stroke-linecap="round" stroke-linejoin="round"/>
<path d="M152.823 102.663C154.204 108.238 149.439 110.956 143 112.403C136.561 113.849 131.023 113.446 129.642 107.871C128.261 102.296 132.307 96.6789 138.747 95.2323C145.186 93.7859 151.442 97.0884 152.823 102.663Z" fill="#8DB4E7"/>
<path d="M143.896 149.616C143.081 149.616 142.428 148.965 142.428 148.151V142.455C142.428 141.641 143.081 140.99 143.896 140.99C144.712 140.99 145.365 141.641 145.365 142.455V148.151C145.365 149.046 144.712 149.616 143.896 149.616Z" fill="#8DB4E7"/>
<path d="M151.485 149.615C150.669 149.615 150.016 148.964 150.016 148.151V142.454C150.016 141.641 150.669 140.99 151.485 140.99C152.302 140.99 152.954 141.641 152.954 142.454V148.151C152.954 149.046 152.302 149.615 151.485 149.615Z" fill="#8DB4E7"/>
<path d="M155.321 142.536H140.306V140.827C140.306 136.677 143.651 129.517 147.813 129.517C151.975 129.517 155.321 136.677 155.321 140.827V142.536Z" fill="#8DB4E7"/>
<path d="M232.501 163.691H197.846C196.383 163.691 195.285 162.505 195.285 161.137V124.302C195.285 122.843 196.474 121.749 197.846 121.749H232.501C233.963 121.749 235.062 122.934 235.062 124.302V161.137C235.152 162.505 233.963 163.691 232.501 163.691Z" fill="#EAEEF9"/>
<path d="M229.599 142.071C229.599 146.808 227.274 151.144 223.735 153.765H206.449C202.911 151.144 200.586 146.91 200.586 142.071C200.586 137.333 202.911 132.999 206.449 130.378H223.735C227.274 133.1 229.599 137.333 229.599 142.071Z" fill="#C7DCFF"/>
<path d="M209.684 142.877C208.976 142.877 208.37 142.273 208.37 141.567V137.232C208.37 136.527 208.976 135.922 209.684 135.922C210.391 135.922 210.997 136.527 210.997 137.232V141.567C210.997 142.273 210.391 142.877 209.684 142.877Z" fill="#8DB4E7"/>
<path d="M220.298 142.877C219.591 142.877 218.984 142.273 218.984 141.567V137.232C218.984 136.527 219.591 135.922 220.298 135.922C221.006 135.922 221.612 136.527 221.612 137.232V141.567C221.612 142.273 221.006 142.877 220.298 142.877Z" fill="#8DB4E7"/>
<path d="M216.255 149.126H213.626C213.02 149.126 212.413 148.623 212.413 147.917V146.606C212.413 145.195 213.524 144.086 214.941 144.086C216.355 144.086 217.468 145.195 217.468 146.606V147.917C217.468 148.521 216.962 149.126 216.255 149.126Z" fill="#8DB4E7"/>
<path d="M199.491 127.313C200.35 127.313 201.046 126.619 201.046 125.763C201.046 124.907 200.35 124.213 199.491 124.213C198.633 124.213 197.938 124.907 197.938 125.763C197.938 126.619 198.633 127.313 199.491 127.313Z" fill="#C3D6F3"/>
<path d="M231.038 127.313C231.896 127.313 232.593 126.619 232.593 125.763C232.593 124.907 231.896 124.213 231.038 124.213C230.179 124.213 229.484 124.907 229.484 125.763C229.484 126.619 230.179 127.313 231.038 127.313Z" fill="#C3D6F3"/>
<path d="M199.491 161.322C200.35 161.322 201.046 160.627 201.046 159.772C201.046 158.915 200.35 158.222 199.491 158.222C198.633 158.222 197.938 158.915 197.938 159.772C197.938 160.627 198.633 161.322 199.491 161.322Z" fill="#C3D6F3"/>
<path d="M231.038 161.322C231.896 161.322 232.593 160.627 232.593 159.772C232.593 158.915 231.896 158.222 231.038 158.222C230.179 158.222 229.484 158.915 229.484 159.772C229.484 160.627 230.179 161.322 231.038 161.322Z" fill="#C3D6F3"/>
<path d="M95.6848 22L92.3743 24.2954L97.0576 52.5816L98.8318 51.213L95.6848 22Z" fill="#8DB4E7"/>
<path d="M99.7964 54.4072L97.7622 56.1029L98.4276 59.4283L100.501 57.9283L99.7964 54.4072Z" fill="#8DB4E7"/>
<path d="M89.2964 37.5195L85.0289 39.9164L88.8424 58.9725L91.1727 57.438L89.2964 37.5195Z" fill="#8DB4E7"/>
<path d="M91.5812 60.7979L89.4236 61.8769L89.7557 63.5367L91.9341 62.5613L91.5812 60.7979Z" fill="#8DB4E7"/>
</g>
</svg>
