<svg width="291" height="260" viewBox="0 0 291 260" fill="none" xmlns="http://www.w3.org/2000/svg">
<path d="M59.757 48.5138C62.2916 48.5138 64.3474 46.4586 64.3474 43.9234C64.3474 41.3882 62.2916 39.333 59.757 39.333C57.2208 39.333 55.1666 41.3882 55.1666 43.9234C55.1666 46.4586 57.2208 48.5138 59.757 48.5138Z" fill="#DFEBFF"/>
<path d="M208.09 236.181C210.626 236.181 212.681 234.126 212.681 231.59C212.681 229.055 210.626 227 208.09 227C205.555 227 203.5 229.055 203.5 231.59C203.5 234.126 205.555 236.181 208.09 236.181Z" fill="#DFEBFF"/>
<path d="M37.6916 84.55C42.3999 84.55 46.2167 80.7333 46.2167 76.025C46.2167 71.3167 42.3999 67.5 37.6916 67.5C32.9834 67.5 29.1666 71.3167 29.1666 76.025C29.1666 80.7333 32.9834 84.55 37.6916 84.55Z" fill="#DFEBFF"/>
<path d="M142.916 226.833C196.164 226.833 239.333 183.749 239.333 130.417C239.333 77.0838 195.974 34 142.916 34C89.6687 34 46.5 77.0838 46.5 130.417C46.5 183.749 89.6687 226.833 142.916 226.833Z" fill="#E2EEFF"/>
<g opacity="0.8">
<line x1="26" y1="198.5" x2="23.2" y2="198.5" stroke="#8DB4E7" stroke-width="3" stroke-linecap="round"/>
<line x1="32" y1="198.5" x2="38" y2="198.5" stroke="#8DB4E7" stroke-width="3" stroke-linecap="round"/>
<line x1="45" y1="198.5" x2="253" y2="198.5" stroke="#8DB4E7" stroke-width="3" stroke-linecap="round"/>
</g>
<g filter="url(#filter0_d)">
<rect x="47.5" y="87" width="8" height="111" fill="#8DB4E7"/>
<rect x="155.5" y="87" width="8" height="111" fill="#8DB4E7"/>
<rect x="31" y="137.5" width="147" height="21" rx="2.5" fill="white"/>
<path d="M50.5 159L37.5 137.5H45.5L58 159H50.5Z" fill="#C7DCFF"/>
<path fill-rule="evenodd" clip-rule="evenodd" d="M36.5 137H45.7782L58.8691 159H49.5909L36.5 137ZM45.1845 137.917H38.1845L50.1845 158.083H57.1845L45.1845 137.917Z" fill="#8DB4E7"/>
<path d="M78.8691 159L65.8691 137.5H73.8691L86.3691 159H78.8691Z" fill="#C7DCFF"/>
<path fill-rule="evenodd" clip-rule="evenodd" d="M64.8691 137H74.1473L87.2382 159H77.9601L64.8691 137ZM73.5537 137.917H66.5537L78.5537 158.083H85.5537L73.5537 137.917Z" fill="#8DB4E7"/>
<path d="M107.238 159L94.2382 137.5H102.238L114.738 159H107.238Z" fill="#C7DCFF"/>
<path fill-rule="evenodd" clip-rule="evenodd" d="M93.2382 137H102.516L115.607 159H106.329L93.2382 137ZM101.923 137.917H94.9227L106.923 158.083H113.923L101.923 137.917Z" fill="#8DB4E7"/>
<path d="M135.607 159L122.607 137.5H130.607L143.107 159H135.607Z" fill="#C7DCFF"/>
<path fill-rule="evenodd" clip-rule="evenodd" d="M121.607 137H130.885L143.976 159H134.698L121.607 137ZM130.292 137.917H123.292L135.292 158.083H142.292L130.292 137.917Z" fill="#8DB4E7"/>
<path d="M163.976 159L150.976 137.5H158.976L171.476 159H163.976Z" fill="#C7DCFF"/>
<path fill-rule="evenodd" clip-rule="evenodd" d="M149.976 137H159.254L172.345 159H163.067L149.976 137ZM158.661 137.917H151.661L163.661 158.083H170.661L158.661 137.917Z" fill="#8DB4E7"/>
<rect x="31" y="137.5" width="147" height="21" rx="2.5" stroke="#8DB4E7"/>
</g>
<rect x="31" y="97.5" width="147" height="21" rx="2.5" fill="white"/>
<path d="M50.5 119L37.5 97.5H45.5L58 119H50.5Z" fill="#C7DCFF"/>
<path fill-rule="evenodd" clip-rule="evenodd" d="M36.5 97H45.7782L58.8691 119H49.5909L36.5 97ZM45.1845 97.9167H38.1845L50.1845 118.083H57.1845L45.1845 97.9167Z" fill="#8DB4E7"/>
<path d="M78.8691 119L65.8691 97.5H73.8691L86.3691 119H78.8691Z" fill="#C7DCFF"/>
<path fill-rule="evenodd" clip-rule="evenodd" d="M64.8691 97H74.1473L87.2382 119H77.9601L64.8691 97ZM73.5537 97.9167H66.5537L78.5537 118.083H85.5537L73.5537 97.9167Z" fill="#8DB4E7"/>
<path d="M107.238 119L94.2382 97.5H102.238L114.738 119H107.238Z" fill="#C7DCFF"/>
<path fill-rule="evenodd" clip-rule="evenodd" d="M93.2382 97H102.516L115.607 119H106.329L93.2382 97ZM101.923 97.9167H94.9227L106.923 118.083H113.923L101.923 97.9167Z" fill="#8DB4E7"/>
<path d="M135.607 119L122.607 97.5H130.607L143.107 119H135.607Z" fill="#C7DCFF"/>
<path fill-rule="evenodd" clip-rule="evenodd" d="M121.607 97H130.885L143.976 119H134.698L121.607 97ZM130.292 97.9167H123.292L135.292 118.083H142.292L130.292 97.9167Z" fill="#8DB4E7"/>
<path d="M163.976 119L150.976 97.5H158.976L171.476 119H163.976Z" fill="#C7DCFF"/>
<path fill-rule="evenodd" clip-rule="evenodd" d="M149.976 97H159.254L172.345 119H163.067L149.976 97ZM158.661 97.9167H151.661L163.661 118.083H170.661L158.661 97.9167Z" fill="#8DB4E7"/>
<rect x="31" y="97.5" width="147" height="21" rx="2.5" stroke="#8DB4E7"/>
<g filter="url(#filter1_d)">
<path d="M74.2705 133.865L95.4569 89.4835C97.8361 85.2727 103.78 84.5672 107.079 88.1042L138.065 126.294C141.254 129.669 139.128 135.246 134.426 135.804L80.1243 142.249C75.3228 142.731 71.9593 137.893 74.2705 133.865Z" fill="#8DB4E7"/>
<path d="M93.7157 88.4996L93.6818 88.5597L93.6521 88.6219L72.496 132.939C69.3573 138.531 74.1269 144.862 80.3243 144.239L80.3422 144.237L80.36 144.235L134.661 137.79C140.868 137.054 143.881 129.627 139.574 124.979L108.632 86.844L108.589 86.7905L108.542 86.7401C104.321 82.2145 96.7598 83.1119 93.7157 88.4996Z" stroke="white" stroke-width="4"/>
</g>
<path d="M102.523 99.3632C100.037 99.6582 98.363 102.073 98.8526 104.616L102.06 119.843C102.332 121.352 103.767 122.434 105.241 122.26C106.714 122.085 107.856 120.696 107.767 119.166L107.321 103.611C107.191 100.929 105.009 99.0682 102.523 99.3632Z" fill="white"/>
<path d="M105.579 125.11C103.738 125.328 102.445 127.023 102.67 128.923C102.896 130.823 104.55 132.168 106.391 131.95C108.232 131.731 109.525 130.036 109.299 128.136C109.074 126.236 107.42 124.891 105.579 125.11Z" fill="white"/>
<g filter="url(#filter2_d)">
<rect x="222.433" y="119.291" width="7.67512" height="11.1418" rx="3.83756" transform="rotate(17.6477 222.433 119.291)" fill="#8DB4E7"/>
<path d="M262.68 173.137C262.37 184.865 252.837 190.41 248.109 191.716C248.508 192.401 252.569 194.187 256.055 193.829C264.642 193.695 268.089 186.92 268.739 183.549C269.183 181.243 268.724 175.979 262.68 173.137Z" fill="#8DB4E7"/>
<path d="M190.469 195.789L202.326 166.74C202.326 166.74 207.366 168.324 207.822 172.119C208.472 177.533 202.849 187.895 200.356 191.55C196.115 197.767 193.009 196.545 190.469 195.789Z" fill="#E9F1FE"/>
<path d="M200.899 174.426C200.899 155.663 206.477 148.574 204.537 143.154L219.087 141.278C222.725 138.15 221.907 151.556 227.818 158.79C237.138 170.197 258.256 177.132 249.644 191.939C244.732 200.384 221.783 200.607 209.63 192.564C203.781 188.694 200.899 180.842 200.899 174.426Z" fill="#F9FBFF"/>
<path d="M207.398 196.79L209.567 167.532C209.567 167.532 215.721 167.913 217.648 171.308C220.398 176.151 218.087 186.885 216.71 190.78C214.366 197.406 210.482 196.945 207.398 196.79Z" fill="#E9F1FE"/>
<path d="M213.015 196.365L200.874 196.836C200.874 196.836 200.054 192.655 201.247 190.991C202.947 188.617 208.132 189.359 210.172 190.37C213.084 191.814 213.58 193.254 213.964 195.167C214.085 195.77 213.63 196.341 213.015 196.365Z" fill="#A5C6FF"/>
<path d="M196.267 196.555L184.126 197.026C184.126 197.026 183.306 192.844 184.499 191.18C186.199 188.807 191.385 189.549 193.424 190.56C196.336 192.004 196.832 193.444 197.216 195.356C197.337 195.96 196.882 196.531 196.267 196.555Z" fill="#A5C6FF"/>
<path d="M223.909 180.791C223.909 178.206 225.565 175.912 228.017 175.097L234.053 173.092C235.895 172.479 237.887 172.479 239.729 173.092L246.352 175.292C248.509 176.009 250.076 177.884 250.399 180.135L251.124 185.198C251.251 186.081 251.259 186.976 251.148 187.861L250.531 192.778C250.155 195.78 247.603 198.032 244.578 198.032H229.909C226.596 198.032 223.909 195.345 223.909 192.032V180.791Z" fill="#E9F1FE"/>
<path d="M230.906 197.383L219.516 197.825C219.516 197.825 218.743 193.879 219.868 192.309C221.472 190.069 226.365 190.769 228.289 191.724C231.004 193.07 231.494 194.412 231.855 196.184C231.977 196.788 231.521 197.359 230.906 197.383Z" fill="#A5C6FF"/>
<path d="M227.415 127.995L190.654 118.859C186.444 129.517 185.854 150.833 217.178 150.833C232.744 152.355 232.467 133.963 227.415 127.995Z" fill="#F9FBFF"/>
<circle cx="215.234" cy="134.846" r="6.8514" fill="#8DB4E7"/>
<path d="M214.904 135.577C216.568 135.339 217.725 133.797 217.487 132.132C217.249 130.468 215.708 129.311 214.043 129.549C212.379 129.786 211.222 131.328 211.459 132.993C211.697 134.658 213.239 135.814 214.904 135.577Z" fill="white"/>
<path d="M217.489 132.134C217.724 133.772 216.537 135.344 214.891 135.578C213.244 135.812 211.663 134.632 211.428 132.995C211.729 133.219 212.087 133.369 212.482 133.313C213.206 133.21 213.781 132.527 213.668 131.741C213.564 131.02 212.887 130.514 212.153 130.552C212.614 130.018 213.301 129.653 214.025 129.551C215.738 129.307 217.243 130.431 217.489 132.134Z" fill="#5E8BC7"/>
<rect x="234.07" y="124.461" width="8.79461" height="15.7331" rx="4.3973" transform="rotate(54.2588 234.07 124.461)" fill="#F9FBFF"/>
<path fill-rule="evenodd" clip-rule="evenodd" d="M188.78 126.356C189.101 123.598 189.804 121.011 190.654 118.859L197.511 120.66C196.703 123.995 193.697 126.472 190.113 126.472C189.658 126.472 189.212 126.432 188.78 126.356Z" fill="#8DB4E7"/>
</g>
<defs>
<filter id="filter0_d" x="0.5" y="61" width="208" height="171" filterUnits="userSpaceOnUse" color-interpolation-filters="sRGB">
<feFlood flood-opacity="0" result="BackgroundImageFix"/>
<feColorMatrix in="SourceAlpha" type="matrix" values="0 0 0 0 0 0 0 0 0 0 0 0 0 0 0 0 0 0 127 0" result="hardAlpha"/>
<feOffset dy="4"/>
<feGaussianBlur stdDeviation="15"/>
<feComposite in2="hardAlpha" operator="out"/>
<feColorMatrix type="matrix" values="0 0 0 0 0.552941 0 0 0 0 0.705882 0 0 0 0 0.905882 0 0 0 0.5 0"/>
<feBlend mode="normal" in2="BackgroundImageFix" result="effect1_dropShadow"/>
<feBlend mode="normal" in="SourceGraphic" in2="effect1_dropShadow" result="shape"/>
</filter>
<filter id="filter1_d" x="39.4834" y="51.8359" width="134.123" height="124.445" filterUnits="userSpaceOnUse" color-interpolation-filters="sRGB">
<feFlood flood-opacity="0" result="BackgroundImageFix"/>
<feColorMatrix in="SourceAlpha" type="matrix" values="0 0 0 0 0 0 0 0 0 0 0 0 0 0 0 0 0 0 127 0" result="hardAlpha"/>
<feOffset/>
<feGaussianBlur stdDeviation="15"/>
<feComposite in2="hardAlpha" operator="out"/>
<feColorMatrix type="matrix" values="0 0 0 0 0.513726 0 0 0 0 0.678431 0 0 0 0 0.890196 0 0 0 0.4 0"/>
<feBlend mode="normal" in2="BackgroundImageFix" result="effect1_dropShadow"/>
<feBlend mode="normal" in="SourceGraphic" in2="effect1_dropShadow" result="shape"/>
</filter>
<filter id="filter2_d" x="165.852" y="96.8594" width="125.013" height="119.579" filterUnits="userSpaceOnUse" color-interpolation-filters="sRGB">
<feFlood flood-opacity="0" result="BackgroundImageFix"/>
<feColorMatrix in="SourceAlpha" type="matrix" values="0 0 0 0 0 0 0 0 0 0 0 0 0 0 0 0 0 0 127 0" result="hardAlpha"/>
<feOffset dx="2" dy="-2"/>
<feGaussianBlur stdDeviation="10"/>
<feComposite in2="hardAlpha" operator="out"/>
<feColorMatrix type="matrix" values="0 0 0 0 0.552941 0 0 0 0 0.705882 0 0 0 0 0.905882 0 0 0 0.6 0"/>
<feBlend mode="normal" in2="BackgroundImageFix" result="effect1_dropShadow"/>
<feBlend mode="normal" in="SourceGraphic" in2="effect1_dropShadow" result="shape"/>
</filter>
</defs>
</svg>
