<svg width="261" height="260" viewBox="0 0 261 260" fill="none" xmlns="http://www.w3.org/2000/svg">
<mask id="mask0" mask-type="alpha" maskUnits="userSpaceOnUse" x="0" y="0" width="261" height="260">
<rect x="0.5" width="260" height="260" fill="#C4C4C4"/>
</mask>
<g mask="url(#mask0)">
<path d="M131.583 227.5C184.831 227.5 228 184.416 228 131.084C228 77.7507 184.641 34.667 131.583 34.667C78.3353 34.667 35.1667 77.7507 35.1667 131.084C35.1667 184.416 78.3353 227.5 131.583 227.5Z" fill="#DCEAFE"/>
<path d="M39.7571 52.5148C42.2916 52.5148 44.3475 50.4596 44.3475 47.9244C44.3475 45.3892 42.2916 43.334 39.7571 43.334C37.2209 43.334 35.1667 45.3892 35.1667 47.9244C35.1667 50.4596 37.2209 52.5148 39.7571 52.5148Z" fill="#DFEBFF"/>
<path d="M213.09 223.681C215.626 223.681 217.681 221.626 217.681 219.09C217.681 216.555 215.626 214.5 213.09 214.5C210.555 214.5 208.5 216.555 208.5 219.09C208.5 221.626 210.555 223.681 213.09 223.681Z" fill="#DFEBFF"/>
<path d="M17.6917 88.55C22.3999 88.55 26.2167 84.7333 26.2167 80.025C26.2167 75.3167 22.3999 71.5 17.6917 71.5C12.9834 71.5 9.16667 75.3167 9.16667 80.025C9.16667 84.7333 12.9834 88.55 17.6917 88.55Z" fill="#DFEBFF"/>
<g filter="url(#filter0_d)">
<path d="M223.443 80.0498V192.287C223.443 195.58 220.698 198.324 217.405 198.324H46.8542C43.5612 198.461 40.8169 195.717 40.8169 192.424V80.0498C40.8169 76.6196 43.5612 74.0127 46.8542 74.0127H217.405C220.835 74.0127 223.443 76.7567 223.443 80.0498Z" fill="white"/>
</g>
<path d="M223.667 79.9037V88.8337H41.6667V79.9037C41.6667 76.3601 44.4015 73.667 47.6833 73.667H217.65C221.068 73.667 223.667 76.5018 223.667 79.9037Z" fill="#8DB4E7"/>
<path d="M48.1668 84.5003C49.3632 84.5003 50.3333 83.5302 50.3333 82.3338C50.3333 81.1371 49.3632 80.167 48.1668 80.167C46.9701 80.167 46 81.1371 46 82.3338C46 83.5302 46.9701 84.5003 48.1668 84.5003Z" fill="#F9FAFB"/>
<path d="M54.6667 84.5003C55.8634 84.5003 56.8333 83.5302 56.8333 82.3338C56.8333 81.1371 55.8634 80.167 54.6667 80.167C53.47 80.167 52.5 81.1371 52.5 82.3338C52.5 83.5302 53.47 84.5003 54.6667 84.5003Z" fill="#F9FAFB"/>
<path d="M61.1667 84.5003C62.3634 84.5003 63.3333 83.5302 63.3333 82.3338C63.3333 81.1371 62.3634 80.167 61.1667 80.167C59.97 80.167 59 81.1371 59 82.3338C59 83.5302 59.97 84.5003 61.1667 84.5003Z" fill="#F9FAFB"/>
<path d="M91.936 161.24L123.102 111.915C126.493 107.287 133.595 107.287 136.987 111.915L168.153 161.24C171.438 165.662 168.153 171.936 162.535 171.936H97.6603C91.936 171.833 88.6498 165.662 91.936 161.24Z" fill="#8DB4E7"/>
<path d="M130.045 124.543C127.075 124.543 124.765 127.153 124.986 130.218L126.636 148.606C126.745 150.422 128.284 151.898 130.045 151.898C131.806 151.898 133.345 150.422 133.454 148.606L135.104 130.218C135.325 127.04 133.015 124.543 130.045 124.543Z" fill="white"/>
<path d="M130.045 155.303C127.846 155.303 126.085 157.119 126.085 159.389C126.085 161.659 127.846 163.475 130.045 163.475C132.245 163.475 134.005 161.659 134.005 159.389C134.005 157.119 132.245 155.303 130.045 155.303Z" fill="white"/>
</g>
<defs>
<filter id="filter0_d" x="20.8169" y="65.0127" width="222.626" height="164.316" filterUnits="userSpaceOnUse" color-interpolation-filters="sRGB">
<feFlood flood-opacity="0" result="BackgroundImageFix"/>
<feColorMatrix in="SourceAlpha" type="matrix" values="0 0 0 0 0 0 0 0 0 0 0 0 0 0 0 0 0 0 127 0"/>
<feOffset dy="11"/>
<feGaussianBlur stdDeviation="10"/>
<feColorMatrix type="matrix" values="0 0 0 0 0.2 0 0 0 0 0.454902 0 0 0 0 0.764706 0 0 0 0.25 0"/>
<feBlend mode="normal" in2="BackgroundImageFix" result="effect1_dropShadow"/>
<feBlend mode="normal" in="SourceGraphic" in2="effect1_dropShadow" result="shape"/>
</filter>
</defs>
</svg>
