<svg width="127" height="130" viewBox="0 0 127 130" fill="none" xmlns="http://www.w3.org/2000/svg">
<path d="M62.7502 108.424C85.2508 108.424 103.492 90.1824 103.492 67.6013C103.492 45.0202 85.2508 26.7786 62.7502 26.7786C40.2495 26.7786 22.0078 45.0202 22.0078 67.6013C22.0078 90.1824 40.2495 108.424 62.7502 108.424Z" fill="#DFEBFF"/>
<path d="M32.778 41.1628H90.7172C93.0476 41.1628 94.8156 42.9308 94.8156 45.2612V81.9856C94.8156 84.3161 93.0476 86.084 90.7172 86.084H32.778C30.4476 86.084 28.6797 84.3161 28.6797 81.9856V45.2612C28.6797 42.9308 30.6083 41.1628 32.778 41.1628Z" fill="#83ADE3"/>
<path d="M95.9395 64.7082V82.7892C95.9395 85.1196 94.0912 87.0483 91.6804 87.0483H32.1341C29.8036 87.0483 27.875 85.1196 27.875 82.7892V63.1814" stroke="#1676EE" stroke-width="3" stroke-linecap="round" stroke-linejoin="round"/>
<path d="M90.8779 54.583H72.0739C70.2256 54.583 68.4577 55.2259 67.0916 56.3509L62.1896 60.3689C60.8235 61.494 59.0556 62.1368 57.2073 62.1368H35.9923C33.8226 62.1368 32.0547 63.9047 32.0547 66.0745C32.0547 66.2352 32.0547 66.4763 32.135 66.637L36.0727 87.3698C36.3941 89.2984 38.0013 90.7449 40.0103 90.7449H85.4134C87.3421 90.7449 89.0296 89.3788 89.3511 87.4502L94.8155 59.0832C95.2173 56.9134 93.7709 54.9848 91.6011 54.583C91.2797 54.583 91.0386 54.583 90.8779 54.583Z" fill="white"/>
<g filter="url(#filter0_d)">
<path d="M99.3133 49.0384H74.884C72.4732 49.0384 70.2231 49.842 68.3748 51.3688L61.9461 56.5922C60.1781 58.0387 57.8477 58.9226 55.4369 58.9226H27.7931C24.9805 58.9226 22.7305 61.2531 22.7305 63.9853C22.7305 64.2264 22.7305 64.4674 22.8108 64.7085L27.8735 91.7898C28.2753 94.3615 30.445 96.2097 32.9362 96.2097H92.0809C94.6524 96.2097 96.7418 94.4418 97.1436 91.8701L104.296 54.8243C104.778 52.0117 102.929 49.5205 100.117 48.958C99.8758 49.0384 99.5544 49.0384 99.3133 49.0384Z" fill="white"/>
</g>
<path d="M103.254 94.3614C102.933 95.7275 102.451 97.174 101.888 98.3794C100.361 101.353 97.9505 103.683 94.9772 105.21C91.9235 106.737 88.3074 107.38 84.6914 106.576C76.1733 104.808 70.7088 96.4508 72.4767 87.9325C74.2446 79.4143 82.5217 73.8695 91.0396 75.7178C94.0933 76.3606 96.7451 77.8875 98.9952 79.9768C102.772 83.7537 104.379 89.2182 103.254 94.3614Z" fill="#83ADE3"/>
<path d="M92.8852 89.7804H89.269V86.1642C89.269 85.441 88.7065 84.7981 87.9029 84.7981C87.1796 84.7981 86.5368 85.3606 86.5368 86.1642V89.7804H82.9208C82.1976 89.7804 81.5547 90.3429 81.5547 91.1465C81.5547 91.9501 82.1172 92.513 82.9208 92.513H86.5368V96.1292C86.5368 96.8524 87.0993 97.4953 87.9029 97.4953C88.6261 97.4953 89.269 96.9327 89.269 96.1292V92.513H92.8852C93.6084 92.513 94.2513 91.9501 94.2513 91.1465C94.2513 90.3429 93.6084 89.7804 92.8852 89.7804Z" fill="white"/>
<path d="M59.1354 58.0384C56.2425 52.4132 55.5996 45.663 57.5282 39.5557C59.3765 33.4483 63.7963 28.2249 69.2607 25.2516C70.9483 24.3677 72.8769 23.6444 74.8056 23.5641C76.7342 23.4837 78.8236 24.1266 80.1093 25.7338C81.3951 27.1803 81.6362 29.5911 80.5915 31.1983C79.4664 32.7251 77.2164 33.368 75.3681 32.8858C72.3948 32.3233 69.984 29.9929 69.2607 27.1803C68.5375 24.3677 69.5018 21.0729 71.7519 19.2246C73.1984 17.9389 75.2074 17.2156 77.0556 16.6531C86.0558 14.0013 95.8597 13.6798 105.021 15.6888" stroke="#B6D4FF" stroke-width="2" stroke-miterlimit="10" stroke-dasharray="4 4"/>
<path d="M109.842 13.5995C109.761 14.8049 109.681 15.93 108.797 16.171C107.913 16.4121 107.511 15.6085 106.949 14.4835C106.386 13.4388 106.708 12.3138 107.672 12.0727C108.556 11.8316 110.002 12.1531 109.842 13.5995Z" fill="#C6D4E9"/>
<path d="M108.88 19.3855C109.121 17.939 109.362 17.1354 108.558 16.7336C107.674 16.3318 107.112 17.0551 106.147 18.0194C105.344 18.9034 105.826 20.1891 106.63 20.5909C107.594 21.0731 108.639 20.5909 108.88 19.3855Z" fill="#C6D4E9"/>
<path d="M110.005 16.7336C109.924 17.2962 109.522 17.698 108.96 17.7783C108.719 17.7783 108.478 17.7783 108.156 17.7783C107.031 17.6176 106.147 16.8944 106.228 16.1711C106.308 15.4479 107.353 15.0461 108.639 15.2068C108.88 15.2068 109.121 15.2872 109.281 15.3675C109.764 15.5282 110.085 16.0908 110.005 16.7336C110.005 16.7336 110.005 16.6533 110.005 16.7336Z" fill="#83ADE2"/>
<path d="M20.3203 39.3146C20.3203 37.9485 20.3203 36.5824 21.2846 36.1806C22.3293 35.7788 22.8918 36.7431 23.6954 38.1092C24.4187 39.3146 24.0972 40.6004 23.0525 41.0022C22.1686 41.404 20.3203 41.1629 20.3203 39.3146Z" fill="#C6D4E9"/>
<path d="M20.8824 32.5645C20.7216 34.252 20.4806 35.2163 21.5252 35.6181C22.5699 36.0199 23.1324 35.136 24.1771 33.8502C24.9807 32.7252 24.4182 31.2787 23.3735 30.8769C22.3288 30.4751 21.0431 31.1983 20.8824 32.5645Z" fill="#C6D4E9"/>
<path d="M20 35.7789C20 35.136 20.4822 34.6538 21.0447 34.5735C21.2858 34.4931 21.6072 34.4931 21.9286 34.5735C23.2144 34.6538 24.3394 35.3771 24.2591 36.1806C24.1787 36.9842 23.134 37.5468 21.7679 37.386C21.5268 37.386 21.2858 37.3057 21.0447 37.2253C20.4018 37.145 20 36.5021 20 35.7789Z" fill="#83ADE2"/>
<path d="M25.4648 36.02C33.9026 36.02 49.4924 40.922 49.7335 58.9226" stroke="#B6D4FF" stroke-width="2" stroke-miterlimit="10" stroke-dasharray="4 4"/>
<defs>
<filter id="filter0_d" x="0.730469" y="37.958" width="125.642" height="91.2517" filterUnits="userSpaceOnUse" color-interpolation-filters="sRGB">
<feFlood flood-opacity="0" result="BackgroundImageFix"/>
<feColorMatrix in="SourceAlpha" type="matrix" values="0 0 0 0 0 0 0 0 0 0 0 0 0 0 0 0 0 0 127 0" result="hardAlpha"/>
<feOffset dy="11"/>
<feGaussianBlur stdDeviation="11"/>
<feColorMatrix type="matrix" values="0 0 0 0 0.2 0 0 0 0 0.454902 0 0 0 0 0.764706 0 0 0 0.27 0"/>
<feBlend mode="normal" in2="BackgroundImageFix" result="effect1_dropShadow"/>
<feBlend mode="normal" in="SourceGraphic" in2="effect1_dropShadow" result="shape"/>
</filter>
</defs>
</svg>
