<svg width="127" height="130" viewBox="0 0 127 130" fill="none" xmlns="http://www.w3.org/2000/svg">
<path d="M62.7522 108.425C85.2528 108.425 103.494 90.1832 103.494 67.6021C103.494 45.021 85.2528 26.7793 62.7522 26.7793C40.2514 26.7793 22.0098 45.021 22.0098 67.6021C22.0098 90.1832 40.2514 108.425 62.7522 108.425Z" fill="#DFEBFF"/>
<path d="M32.778 41.1621H90.7172C93.0476 41.1621 94.8156 42.93 94.8156 45.2605V81.9849C94.8156 84.3153 93.0476 86.0832 90.7172 86.0832H32.778C30.4476 86.0832 28.6797 84.3153 28.6797 81.9849V45.2605C28.6797 42.93 30.6083 41.1621 32.778 41.1621Z" fill="#83ADE3"/>
<path d="M95.9395 64.7085V82.7894C95.9395 85.1199 94.0912 87.0485 91.6804 87.0485H32.1341C29.8036 87.0485 27.875 85.1199 27.875 82.7894V63.1816" stroke="#1676EE" stroke-width="3" stroke-linecap="round" stroke-linejoin="round"/>
<path d="M90.8779 54.584H72.0739C70.2256 54.584 68.4577 55.2269 67.0916 56.3519L62.1896 60.3699C60.8235 61.4949 59.0556 62.1378 57.2073 62.1378H35.9923C33.8226 62.1378 32.0547 63.9057 32.0547 66.0754C32.0547 66.2362 32.0547 66.4772 32.135 66.638L36.0727 87.3708C36.3941 89.2994 38.0013 90.7459 40.0103 90.7459H85.4134C87.3421 90.7459 89.0296 89.3798 89.3511 87.4511L94.8155 59.0841C95.2173 56.9144 93.7709 54.9858 91.6011 54.584C91.2797 54.584 91.0386 54.584 90.8779 54.584Z" fill="white"/>
<g filter="url(#filter0_d_4534:56856)">
<path d="M99.3152 49.0374H74.8859C72.4751 49.0374 70.2251 49.841 68.3768 51.3678L61.948 56.5912C60.1801 58.0377 57.8497 58.9216 55.4389 58.9216H27.7951C24.9825 58.9216 22.7324 61.2521 22.7324 63.9843C22.7324 64.2254 22.7324 64.4665 22.8128 64.7075L27.8754 91.7888C28.2772 94.3605 30.447 96.2088 32.9381 96.2088H92.0828C94.6544 96.2088 96.7437 94.4408 97.1455 91.8692L104.298 54.8233C104.78 52.0107 102.931 49.5195 100.119 48.957C99.8778 49.0374 99.5563 49.0374 99.3152 49.0374Z" fill="white"/>
</g>
<path d="M103.252 94.3607C102.931 95.7268 102.449 97.1733 101.886 98.3787C100.359 101.352 97.9486 103.682 94.9753 105.209C91.9216 106.736 88.3054 107.379 84.6895 106.575C76.1713 104.807 70.7068 96.45 72.4748 87.9317C74.2427 79.4136 82.5197 73.8688 91.0376 75.717C94.0913 76.3599 96.7432 77.8867 98.9933 79.9761C102.77 83.753 104.377 89.2175 103.252 94.3607Z" fill="#83ADE3"/>
<path d="M92.8871 89.7811H89.2709V86.1649C89.2709 85.4417 88.7084 84.7988 87.9048 84.7988C87.1816 84.7988 86.5387 85.3614 86.5387 86.1649V89.7811H82.9228C82.1995 89.7811 81.5566 90.3437 81.5566 91.1473C81.5566 91.9509 82.1192 92.5137 82.9228 92.5137H86.5387V96.1299C86.5387 96.8531 87.1012 97.496 87.9048 97.496C88.6281 97.496 89.2709 96.9335 89.2709 96.1299V92.5137H92.8871C93.6104 92.5137 94.2532 91.9509 94.2532 91.1473C94.2532 90.3437 93.6104 89.7811 92.8871 89.7811Z" fill="white"/>
<path d="M59.1354 58.0392C56.2425 52.414 55.5996 45.6637 57.5282 39.5564C59.3765 33.4491 63.7963 28.2257 69.2607 25.2524C70.9483 24.3684 72.8769 23.6452 74.8056 23.5648C76.7342 23.4844 78.8236 24.1273 80.1093 25.7345C81.3951 27.181 81.6362 29.5918 80.5915 31.199C79.4664 32.7258 77.2164 33.3687 75.3681 32.8865C72.3948 32.324 69.984 29.9936 69.2607 27.181C68.5375 24.3684 69.5018 21.0737 71.7519 19.2254C73.1984 17.9396 75.2074 17.2164 77.0556 16.6539C86.0558 14.002 95.8597 13.6805 105.021 15.6895" stroke="#B6D4FF" stroke-width="2" stroke-miterlimit="10" stroke-dasharray="4 4"/>
<path d="M109.842 13.5995C109.761 14.8049 109.681 15.93 108.797 16.171C107.913 16.4121 107.511 15.6085 106.949 14.4835C106.386 13.4388 106.708 12.3138 107.672 12.0727C108.556 11.8316 110.002 12.1531 109.842 13.5995Z" fill="#C6D4E9"/>
<path d="M108.878 19.3862C109.119 17.9398 109.36 17.1362 108.556 16.7344C107.672 16.3326 107.11 17.0558 106.145 18.0201C105.342 18.9041 105.824 20.1899 106.628 20.5917C107.592 21.0738 108.637 20.5917 108.878 19.3862Z" fill="#C6D4E9"/>
<path d="M110.003 16.7339C109.922 17.2964 109.521 17.6982 108.958 17.7786C108.717 17.7786 108.476 17.7786 108.154 17.7786C107.029 17.6178 106.145 16.8946 106.226 16.1714C106.306 15.4481 107.351 15.0463 108.637 15.2071C108.878 15.2071 109.119 15.2874 109.279 15.3678C109.762 15.5285 110.083 16.091 110.003 16.7339C110.003 16.7339 110.003 16.6535 110.003 16.7339Z" fill="#83ADE2"/>
<path d="M20.3223 39.3139C20.3223 37.9478 20.3223 36.5817 21.2866 36.1799C22.3313 35.7781 22.8938 36.7424 23.6974 38.1085C24.4206 39.3139 24.0992 40.5996 23.0545 41.0014C22.1705 41.4032 20.3223 41.1622 20.3223 39.3139Z" fill="#C6D4E9"/>
<path d="M20.8843 32.5637C20.7236 34.2513 20.4825 35.2156 21.5272 35.6174C22.5719 36.0192 23.1344 35.1352 24.1791 33.8495C24.9827 32.7244 24.4201 31.278 23.3755 30.8762C22.3308 30.4744 21.045 31.1976 20.8843 32.5637Z" fill="#C6D4E9"/>
<path d="M20 35.7793C20 35.1365 20.4822 34.6543 21.0447 34.5739C21.2858 34.4936 21.6072 34.4936 21.9286 34.5739C23.2144 34.6543 24.3394 35.3775 24.2591 36.1811C24.1787 36.9847 23.134 37.5473 21.7679 37.3865C21.5268 37.3865 21.2858 37.3062 21.0447 37.2258C20.4018 37.1455 20 36.5026 20 35.7793Z" fill="#83ADE2"/>
<path d="M25.4648 36.0195C33.9026 36.0195 49.4924 40.9215 49.7335 58.9221" stroke="#B6D4FF" stroke-width="2" stroke-miterlimit="10" stroke-dasharray="4 4"/>
<defs>
<filter id="filter0_d_4534:56856" x="0.732422" y="37.957" width="125.641" height="91.252" filterUnits="userSpaceOnUse" color-interpolation-filters="sRGB">
<feFlood flood-opacity="0" result="BackgroundImageFix"/>
<feColorMatrix in="SourceAlpha" type="matrix" values="0 0 0 0 0 0 0 0 0 0 0 0 0 0 0 0 0 0 127 0" result="hardAlpha"/>
<feOffset dy="11"/>
<feGaussianBlur stdDeviation="11"/>
<feColorMatrix type="matrix" values="0 0 0 0 0.2 0 0 0 0 0.454902 0 0 0 0 0.764706 0 0 0 0.27 0"/>
<feBlend mode="normal" in2="BackgroundImageFix" result="effect1_dropShadow_4534:56856"/>
<feBlend mode="normal" in="SourceGraphic" in2="effect1_dropShadow_4534:56856" result="shape"/>
</filter>
</defs>
</svg>
