<svg width="20" height="20" viewBox="0 0 20 20" fill="none" xmlns="http://www.w3.org/2000/svg">
<path d="M0 10C0 4.47715 4.47715 0 10 0C15.5228 0 20 4.47715 20 10C20 15.5228 15.5228 20 10 20C4.47715 20 0 15.5228 0 10Z" fill="#B4B4BE"/>
<path d="M8.50187 4C10.0611 4 11.3246 5.23475 11.3246 6.75732C11.3246 8.28025 10.0611 9.51463 8.50187 9.51463C6.9434 9.51463 5.67991 8.28025 5.67991 6.75732C5.67991 5.23475 6.9434 4 8.50187 4ZM8.5 16C6.9449 16 5.52061 15.4467 4.42204 14.5309C4.15442 14.3079 4 13.9809 4 13.6378C4 12.0936 5.27924 10.8578 6.86019 10.8578H10.1443C11.7256 10.8578 13 12.0936 13 13.6378C13 13.9813 12.8463 14.3075 12.5783 14.5305C11.4801 15.4467 10.0555 16 8.5 16Z" fill="white"/>
<circle cx="13.5" cy="12.5" r="5" fill="#6B6B7B" stroke="#B4B4BE"/>
<path fill-rule="evenodd" clip-rule="evenodd" d="M10.7078 12.4997C10.7078 11.8829 11.2078 11.3828 11.8246 11.3828H15.1753C15.7921 11.3828 16.2921 11.8829 16.2921 12.4997C16.2921 13.1165 15.7921 13.6166 15.1753 13.6166H11.8246C11.2078 13.6166 10.7078 13.1165 10.7078 12.4997Z" fill="white"/>
<path d="M10 19C5.02944 19 1 14.9706 1 10H-1C-1 16.0751 3.92487 21 10 21V19ZM19 10C19 14.9706 14.9706 19 10 19V21C16.0751 21 21 16.0751 21 10H19ZM10 1C14.9706 1 19 5.02944 19 10H21C21 3.92487 16.0751 -1 10 -1V1ZM10 -1C3.92487 -1 -1 3.92487 -1 10H1C1 5.02944 5.02944 1 10 1V-1Z" fill="#B4B4BE"/>
</svg>
