<svg width="123" height="126" viewBox="0 0 123 126" fill="none" xmlns="http://www.w3.org/2000/svg">
<g filter="url(#filter0_i)">
<path d="M68.7905 103.97C42.0105 103.97 20.3105 82.26 20.3105 55.49C20.3105 28.71 42.0205 7.01001 68.7905 7.01001C95.5705 7.01001 117.271 28.72 117.271 55.49C117.281 82.26 95.5705 103.97 68.7905 103.97Z" fill="#DFEBFE"/>
</g>
<g filter="url(#filter1_d)">
<path d="M46.1917 101.48C44.7017 101.48 43.8217 100.75 43.3717 100.19C42.8717 99.57 42.5517 98.76 42.3917 97.88C41.8317 98.26 41.2517 98.59 40.6717 98.84C38.8617 99.63 36.7217 99.43 35.0917 98.34C33.9617 97.58 33.2217 96.49 32.9617 95.24C30.5117 95.43 27.7417 94.58 26.2017 92.57C25.0117 91.03 24.8317 89.43 25.0817 87.93C24.3717 87.52 23.7617 86.99 23.3117 86.35C21.1917 83.38 21.9117 79.34 23.5617 76.65C25.3117 73.81 28.0917 71.78 30.5417 70L31.4117 71.2C29.0717 72.91 26.4117 74.84 24.8217 77.43C23.4217 79.71 22.7817 83.08 24.5117 85.5C24.7717 85.86 25.0917 86.18 25.4717 86.44C25.6417 85.94 25.8517 85.46 26.0517 85.01C26.8217 83.35 28.4917 81.98 30.0217 81.76C30.9717 81.62 31.8417 81.93 32.4517 82.63C33.5017 83.83 33.2217 85.56 32.5217 86.67C31.6917 87.98 30.2117 88.75 28.4717 88.8C27.8117 88.82 27.1417 88.73 26.5017 88.54C26.3717 89.75 26.6617 90.75 27.3717 91.67C28.6317 93.3 30.9217 93.89 32.8717 93.75C33.0317 90.44 34.2217 86.24 36.5717 84.45C37.5017 83.74 38.5417 83.5 39.5817 83.76C40.4617 83.98 41.0517 84.63 41.2317 85.58C41.6917 88.02 39.4417 91.94 36.3217 94.15C35.7817 94.53 35.1317 94.82 34.4217 95.01C34.6117 95.85 35.1317 96.6 35.9117 97.12C37.1317 97.94 38.7217 98.08 40.0817 97.5C40.8717 97.16 41.6117 96.68 42.2717 96.16C42.3317 94.6 42.7817 93.02 43.5117 91.94C44.2517 90.84 45.2517 90.39 46.2417 90.7L46.3917 90.76C46.8117 91 47.0417 91.45 47.0117 92C46.9517 93.21 45.5917 95.21 43.7717 96.82C43.8117 97.79 44.0517 98.68 44.5317 99.28C45.2317 100.15 46.4017 100.26 48.0217 99.61C49.3517 99.08 51.4217 97.55 53.6117 95.92C56.6617 93.66 59.8217 91.32 61.9817 90.93L62.2417 92.39C60.4217 92.72 57.2717 95.05 54.4917 97.11C52.2217 98.79 50.0717 100.38 48.5617 100.98C47.6417 101.33 46.8617 101.48 46.1917 101.48ZM45.5217 92.09C45.2217 92.17 44.9517 92.47 44.7617 92.76C44.4517 93.22 44.2017 93.81 44.0317 94.46C44.8617 93.49 45.4017 92.57 45.5217 92.09ZM38.7817 85.13C38.3417 85.13 37.9117 85.29 37.4817 85.62C35.8917 86.83 34.6117 90.12 34.3817 93.46C34.8017 93.33 35.1717 93.15 35.4817 92.93C38.2817 90.94 40.1017 87.49 39.7917 85.84C39.7017 85.36 39.4617 85.24 39.2417 85.19C39.0817 85.15 38.9317 85.13 38.7817 85.13ZM26.8317 87.09C27.3417 87.25 27.8817 87.33 28.4417 87.31C29.1717 87.29 30.5117 87.08 31.2817 85.86C31.7017 85.2 31.8717 84.18 31.3517 83.59C31.0617 83.27 30.7017 83.14 30.2417 83.21C29.2217 83.36 27.9517 84.44 27.4117 85.61C27.1717 86.14 26.9717 86.63 26.8317 87.09Z" fill="white"/>
</g>
<path d="M98.7995 34.3553C87.0572 34.0467 74.0595 34.17 64.4195 34.14C60.4295 34.13 57.8895 34.13 57.8895 34.13C57.8895 34.15 57.8895 34.17 57.8895 34.18C57.6695 34.14 57.4295 34.12 57.1695 34.12L57.4295 33.96C57.4195 33.96 57.4195 33.96 57.4095 33.96C55.3395 33.61 53.4695 34.96 52.2495 36.47C52.1695 36.58 52.0895 36.68 52.0095 36.79C51.8195 37.04 51.6595 37.3 51.5095 37.55L51.5495 37.52C51.5395 37.53 51.5295 37.54 51.5295 37.56V37.81C51.4195 37.81 51.3495 37.81 51.3495 37.81C50.4395 52.05 51.5295 84.02 51.6595 100.79C51.7195 100.81 51.7895 100.84 51.8495 100.87C53.1695 101.36 54.5095 101.8 55.8795 102.18C60.0295 103.33 64.3895 103.97 68.9095 103.97C75.4295 103.97 81.6495 102.67 87.3395 100.34C90.9695 98.85 94.3795 96.93 97.4995 94.64C97.6195 94.55 97.7495 94.47 97.8695 94.38L97.8995 40.81C97.8995 40.22 97.5695 39.71 97.0795 39.45V39.34L101.09 37.5789L96.9095 39.33H96.7895C96.6795 39.3 96.5595 39.27 96.4395 39.26C89.6195 38.87 80.5995 38.55 72.4195 38.31C66.8795 38.15 61.7395 38.03 57.9195 37.95C57.8495 37.95 57.7695 37.95 57.6995 37.95C56.1795 37.92 54.8795 37.89 53.8595 37.87L57.7995 35.66L57.8195 35.65H57.9895L101.09 37.5789L102.16 90.77C102.75 90.22 103.32 89.65 103.88 89.06L103.837 39.8606C103.817 36.8283 102.438 34.8351 98.7995 34.3553Z" fill="url(#paint0_linear)"/>
<path d="M102.162 90.7328L102.009 39.4034C102.004 37.7847 100.716 36.4617 99.0978 36.4137L51.5 34.9999V37.4999L92.743 39.4927C95.3933 39.6208 97.482 41.7967 97.5016 44.45L97.8691 94.3596L102.162 90.7328Z" fill="white"/>
<path d="M73.548 96.1033C75.2766 95.88 76.4969 94.2977 76.2736 92.569C76.0503 90.8404 74.468 89.6201 72.7393 89.8434C71.0107 90.0667 69.7904 91.649 70.0137 93.3776C70.237 95.1063 71.8193 96.3266 73.548 96.1033Z" fill="white"/>
<path d="M77.4966 85.2089C77.1582 86.9764 75.5074 88.1789 73.7213 87.9589C71.9527 87.7411 70.648 86.2012 70.7238 84.4208L71.7856 59.4684C71.9164 56.3754 74.6405 54.0611 77.7084 54.4074C80.724 54.7603 82.7909 57.6225 82.2158 60.5608L77.4966 85.2089Z" fill="white"/>
<g filter="url(#filter2_d)">
<path d="M46.6907 25.67L27.8307 58.51C24.1407 64.93 26.3607 73.13 32.7807 76.82L36.7107 79.07C38.1907 79.92 40.0807 79.41 40.9407 77.93L48.6407 64.53C49.4907 63.05 48.9807 61.16 47.5007 60.3L40.8007 56.45C40.2807 56.15 40.0907 55.48 40.4007 54.96L49.7307 38.71C50.0307 38.19 50.6907 38.01 51.2007 38.31L57.8107 42.1C59.2907 42.95 61.1807 42.44 62.0407 40.96L69.9407 27.2C70.7807 25.74 70.2907 23.87 68.8407 23L65.2107 20.83C58.7707 16.99 50.4307 19.16 46.6907 25.67Z" fill="white"/>
<path d="M53.9414 40.16L64.6514 21.51L65.1014 20.49L68.9614 22.8C70.5114 23.73 71.0414 25.75 70.1414 27.32L62.2414 41.08C61.3314 42.67 59.2814 43.23 57.6914 42.31L53.9414 40.16Z" fill="#DFEBFF"/>
<path d="M43.8012 59.03L33.2012 77.48L33.8312 77.84L36.7312 79.51C38.2112 80.36 40.1012 79.85 40.9612 78.37L48.8612 64.61C49.7012 63.15 49.2112 61.28 47.7612 60.41L44.1312 58.24L43.8012 59.03Z" fill="#DFEBFF"/>
</g>
<path d="M117.279 56.1399C120.405 56.1399 122.939 53.6059 122.939 50.4799C122.939 47.354 120.405 44.8199 117.279 44.8199C114.153 44.8199 111.619 47.354 111.619 50.4799C111.619 53.6059 114.153 56.1399 117.279 56.1399Z" fill="#F5F9FF"/>
<path d="M14.61 40.22C15.4992 40.22 16.22 39.4992 16.22 38.61C16.22 37.7208 15.4992 37 14.61 37C13.7208 37 13 37.7208 13 38.61C13 39.4992 13.7208 40.22 14.61 40.22Z" fill="#DFEBFE"/>
<path d="M33.2098 14.4C35.2532 14.4 36.9098 12.7435 36.9098 10.7C36.9098 8.65655 35.2532 7 33.2098 7C31.1663 7 29.5098 8.65655 29.5098 10.7C29.5098 12.7435 31.1663 14.4 33.2098 14.4Z" fill="#DFEBFE"/>
<path d="M119.129 35.09C120.151 35.09 120.979 34.2617 120.979 33.24C120.979 32.2183 120.151 31.39 119.129 31.39C118.108 31.39 117.279 32.2183 117.279 33.24C117.279 34.2617 118.108 35.09 119.129 35.09Z" fill="#DFEBFE"/>
<path d="M87.6102 30.1L88.7101 21.23C88.8701 19.97 87.8402 18.87 86.5702 18.93C85.3402 19 84.4402 20.13 84.6602 21.34L86.2502 30.14C86.3802 30.92 87.5102 30.89 87.6102 30.1Z" fill="#97C3F7"/>
<path d="M106.229 25.9301L99.9592 30.2301C99.1892 30.7601 99.6792 31.9701 100.599 31.8101L108.089 30.4801C109.639 30.2001 110.559 28.5801 109.989 27.1101C109.409 25.5901 107.569 25.0101 106.229 25.9301Z" fill="#97C3F7"/>
<path d="M95.9698 15.5L93.5897 28.08C93.4697 28.73 94.3097 29.1 94.6997 28.57L102.34 18.3C103.67 16.52 103.05 13.96 101.06 12.98C98.9397 11.92 96.3998 13.18 95.9698 15.5Z" fill="#97C3F7"/>
<defs>
<filter id="filter0_i" x="20.3105" y="7.01001" width="111.96" height="98.96" filterUnits="userSpaceOnUse" color-interpolation-filters="sRGB">
<feFlood flood-opacity="0" result="BackgroundImageFix"/>
<feBlend mode="normal" in="SourceGraphic" in2="BackgroundImageFix" result="shape"/>
<feColorMatrix in="SourceAlpha" type="matrix" values="0 0 0 0 0 0 0 0 0 0 0 0 0 0 0 0 0 0 127 0" result="hardAlpha"/>
<feOffset dx="15" dy="2"/>
<feGaussianBlur stdDeviation="11"/>
<feComposite in2="hardAlpha" operator="arithmetic" k2="-1" k3="1"/>
<feColorMatrix type="matrix" values="0 0 0 0 0.556863 0 0 0 0 0.709804 0 0 0 0 0.886275 0 0 0 0.25 0"/>
<feBlend mode="normal" in2="shape" result="effect1_innerShadow"/>
</filter>
<filter id="filter1_d" x="0" y="50" width="84.2417" height="75.48" filterUnits="userSpaceOnUse" color-interpolation-filters="sRGB">
<feFlood flood-opacity="0" result="BackgroundImageFix"/>
<feColorMatrix in="SourceAlpha" type="matrix" values="0 0 0 0 0 0 0 0 0 0 0 0 0 0 0 0 0 0 127 0" result="hardAlpha"/>
<feOffset dy="2"/>
<feGaussianBlur stdDeviation="11"/>
<feColorMatrix type="matrix" values="0 0 0 0 0.556863 0 0 0 0 0.709804 0 0 0 0 0.894118 0 0 0 1 0"/>
<feBlend mode="normal" in2="BackgroundImageFix" result="effect1_dropShadow"/>
<feBlend mode="normal" in="SourceGraphic" in2="effect1_dropShadow" result="shape"/>
</filter>
<filter id="filter2_d" x="4.04688" y="0.931396" width="88.5331" height="104.99" filterUnits="userSpaceOnUse" color-interpolation-filters="sRGB">
<feFlood flood-opacity="0" result="BackgroundImageFix"/>
<feColorMatrix in="SourceAlpha" type="matrix" values="0 0 0 0 0 0 0 0 0 0 0 0 0 0 0 0 0 0 127 0" result="hardAlpha"/>
<feOffset dy="4"/>
<feGaussianBlur stdDeviation="11"/>
<feColorMatrix type="matrix" values="0 0 0 0 0.2 0 0 0 0 0.454902 0 0 0 0 0.764706 0 0 0 0.24 0"/>
<feBlend mode="normal" in2="BackgroundImageFix" result="effect1_dropShadow"/>
<feBlend mode="normal" in="SourceGraphic" in2="effect1_dropShadow" result="shape"/>
</filter>
<linearGradient id="paint0_linear" x1="66" y1="113.5" x2="85" y2="43.4999" gradientUnits="userSpaceOnUse">
<stop stop-color="#8DB4E4"/>
<stop offset="0.776042" stop-color="#94C0F5" stop-opacity="0.63"/>
</linearGradient>
</defs>
</svg>
