<svg width="127" height="130" viewBox="0 0 127 130" fill="none" xmlns="http://www.w3.org/2000/svg">
<path d="M62.7502 108.424C85.2508 108.424 103.492 90.1825 103.492 67.6014C103.492 45.0203 85.2508 26.7786 62.7502 26.7786C40.2495 26.7786 22.0078 45.0203 22.0078 67.6014C22.0078 90.1825 40.2495 108.424 62.7502 108.424Z" fill="#DFEBFF"/>
<path d="M32.778 41.163H90.7172C93.0476 41.163 94.8156 42.9309 94.8156 45.2613V81.9857C94.8156 84.3162 93.0476 86.0841 90.7172 86.0841H32.778C30.4476 86.0841 28.6797 84.3162 28.6797 81.9857V45.2613C28.6797 42.9309 30.6083 41.163 32.778 41.163Z" fill="#83ADE3"/>
<path d="M95.9395 64.7083V82.7892C95.9395 85.1197 94.0912 87.0483 91.6804 87.0483H32.1341C29.8036 87.0483 27.875 85.1197 27.875 82.7892V63.1815" stroke="#1676EE" stroke-width="3" stroke-linecap="round" stroke-linejoin="round"/>
<path d="M90.8779 54.5831H72.0739C70.2256 54.5831 68.4577 55.2259 67.0916 56.351L62.1896 60.369C60.8235 61.494 59.0556 62.1369 57.2073 62.1369H35.9923C33.8226 62.1369 32.0547 63.9048 32.0547 66.0745C32.0547 66.2352 32.0547 66.4763 32.135 66.637L36.0727 87.3699C36.3941 89.2985 38.0013 90.745 40.0103 90.745H85.4134C87.3421 90.745 89.0296 89.3789 89.3511 87.4502L94.8155 59.0832C95.2173 56.9135 93.7709 54.9849 91.6011 54.5831C91.2797 54.5831 91.0386 54.5831 90.8779 54.5831Z" fill="white"/>
<g filter="url(#filter0_d)">
<path d="M99.3133 49.0382H74.884C72.4732 49.0382 70.2231 49.8418 68.3748 51.3687L61.9461 56.5921C60.1781 58.0385 57.8477 58.9225 55.4369 58.9225H27.7931C24.9805 58.9225 22.7305 61.2529 22.7305 63.9852C22.7305 64.2262 22.7305 64.4673 22.8108 64.7084L27.8735 91.7897C28.2753 94.3613 30.445 96.2096 32.9362 96.2096H92.0809C94.6524 96.2096 96.7418 94.4417 97.1436 91.87L104.296 54.8242C104.778 52.0116 102.929 49.5204 100.117 48.9579C99.8758 49.0382 99.5544 49.0382 99.3133 49.0382Z" fill="white"/>
</g>
<path d="M103.254 94.3613C102.933 95.7275 102.451 97.1739 101.888 98.3793C100.361 101.353 97.9505 103.683 94.9772 105.21C91.9235 106.737 88.3074 107.38 84.6914 106.576C76.1733 104.808 70.7088 96.4507 72.4767 87.9324C74.2446 79.4143 82.5217 73.8694 91.0396 75.7177C94.0933 76.3606 96.7451 77.8874 98.9952 79.9768C102.772 83.7537 104.379 89.2181 103.254 94.3613Z" fill="#83ADE3"/>
<path d="M92.8852 89.7805H89.269V86.1643C89.269 85.441 88.7065 84.7982 87.9029 84.7982C87.1796 84.7982 86.5368 85.3607 86.5368 86.1643V89.7805H82.9208C82.1976 89.7805 81.5547 90.343 81.5547 91.1466C81.5547 91.9502 82.1172 92.513 82.9208 92.513H86.5368V96.1292C86.5368 96.8525 87.0993 97.4953 87.9029 97.4953C88.6261 97.4953 89.269 96.9328 89.269 96.1292V92.513H92.8852C93.6084 92.513 94.2513 91.9502 94.2513 91.1466C94.2513 90.343 93.6084 89.7805 92.8852 89.7805Z" fill="white"/>
<path d="M59.1354 58.0385C56.2425 52.4134 55.5996 45.6631 57.5282 39.5558C59.3765 33.4484 63.7963 28.2251 69.2607 25.2517C70.9483 24.3678 72.8769 23.6446 74.8056 23.5642C76.7342 23.4838 78.8236 24.1267 80.1093 25.7339C81.3951 27.1804 81.6362 29.5912 80.5915 31.1984C79.4664 32.7252 77.2164 33.3681 75.3681 32.8859C72.3948 32.3234 69.984 29.993 69.2607 27.1804C68.5375 24.3678 69.5018 21.073 71.7519 19.2248C73.1984 17.939 75.2074 17.2158 77.0556 16.6533C86.0558 14.0014 95.8597 13.6799 105.021 15.6889" stroke="#B6D4FF" stroke-width="2" stroke-miterlimit="10" stroke-dasharray="4 4"/>
<path d="M109.842 13.5995C109.761 14.8049 109.681 15.93 108.797 16.171C107.913 16.4121 107.511 15.6085 106.949 14.4835C106.386 13.4388 106.708 12.3138 107.672 12.0727C108.556 11.8316 110.002 12.1531 109.842 13.5995Z" fill="#C6D4E9"/>
<path d="M108.88 19.3855C109.121 17.939 109.362 17.1354 108.558 16.7336C107.674 16.3318 107.112 17.055 106.147 18.0193C105.344 18.9033 105.826 20.1891 106.63 20.5909C107.594 21.073 108.639 20.5909 108.88 19.3855Z" fill="#C6D4E9"/>
<path d="M110.005 16.7336C109.924 17.2962 109.522 17.698 108.96 17.7783C108.719 17.7783 108.478 17.7783 108.156 17.7783C107.031 17.6176 106.147 16.8944 106.228 16.1711C106.308 15.4479 107.353 15.0461 108.639 15.2068C108.88 15.2068 109.121 15.2872 109.281 15.3675C109.764 15.5282 110.085 16.0908 110.005 16.7336C110.005 16.7336 110.005 16.6533 110.005 16.7336Z" fill="#83ADE2"/>
<path d="M20.3203 39.3147C20.3203 37.9486 20.3203 36.5824 21.2846 36.1807C22.3293 35.7789 22.8918 36.7432 23.6954 38.1093C24.4187 39.3147 24.0972 40.6004 23.0525 41.0022C22.1686 41.404 20.3203 41.163 20.3203 39.3147Z" fill="#C6D4E9"/>
<path d="M20.8824 32.5646C20.7216 34.2521 20.4806 35.2165 21.5252 35.6182C22.5699 36.02 23.1324 35.1361 24.1771 33.8503C24.9807 32.7253 24.4182 31.2788 23.3735 30.877C22.3288 30.4752 21.0431 31.1985 20.8824 32.5646Z" fill="#C6D4E9"/>
<path d="M20 35.779C20 35.1361 20.4822 34.6539 21.0447 34.5736C21.2858 34.4932 21.6072 34.4932 21.9286 34.5736C23.2144 34.6539 24.3394 35.3772 24.2591 36.1808C24.1787 36.9844 23.134 37.5469 21.7679 37.3862C21.5268 37.3862 21.2858 37.3058 21.0447 37.2254C20.4018 37.1451 20 36.5022 20 35.779Z" fill="#83ADE2"/>
<path d="M25.4648 36.02C33.9026 36.02 49.4924 40.922 49.7335 58.9226" stroke="#B6D4FF" stroke-width="2" stroke-miterlimit="10" stroke-dasharray="4 4"/>
<defs>
<filter id="filter0_d" x="0.730469" y="37.9579" width="125.642" height="91.2517" filterUnits="userSpaceOnUse" color-interpolation-filters="sRGB">
<feFlood flood-opacity="0" result="BackgroundImageFix"/>
<feColorMatrix in="SourceAlpha" type="matrix" values="0 0 0 0 0 0 0 0 0 0 0 0 0 0 0 0 0 0 127 0" result="hardAlpha"/>
<feOffset dy="11"/>
<feGaussianBlur stdDeviation="11"/>
<feColorMatrix type="matrix" values="0 0 0 0 0.2 0 0 0 0 0.454902 0 0 0 0 0.764706 0 0 0 0.27 0"/>
<feBlend mode="normal" in2="BackgroundImageFix" result="effect1_dropShadow"/>
<feBlend mode="normal" in="SourceGraphic" in2="effect1_dropShadow" result="shape"/>
</filter>
</defs>
</svg>
