<svg width="33" height="34" viewBox="0 0 33 34" fill="none" xmlns="http://www.w3.org/2000/svg">
<path fill-rule="evenodd" clip-rule="evenodd" d="M23.9328 11.3003H2.89357C2.38521 11.3003 1.97311 11.7124 1.97311 12.2207V30.63C1.97311 31.1384 2.38521 31.5505 2.89357 31.5505H23.9328C24.4411 31.5505 24.8533 31.1384 24.8533 30.63V12.2207C24.8533 11.7124 24.4411 11.3003 23.9328 11.3003ZM2.89357 9.59082C1.44112 9.59082 0.263672 10.7683 0.263672 12.2207V30.63C0.263672 32.0825 1.44112 33.2599 2.89357 33.2599H23.9328C25.3852 33.2599 26.5627 32.0825 26.5627 30.63V12.2207C26.5627 10.7683 25.3852 9.59082 23.9328 9.59082H2.89357ZM16.649 19.2882L11.7693 24.1679L10.1256 22.5756C9.66328 22.062 8.8928 22.062 8.43052 22.5756L3.91037 27.0958C3.70491 27.2499 3.55082 27.6608 3.55082 27.9176V29.3558C3.55082 29.7154 3.80764 29.9722 4.1672 29.9722H22.6587C22.9669 29.9722 23.2751 29.7154 23.2751 29.3558V24.6302C23.2751 24.322 23.121 24.0139 22.8642 23.8084L18.344 19.2882C17.8817 18.7746 17.1112 18.7746 16.649 19.2882ZM21.6314 28.3285H5.19451V28.1231L9.30373 24.0139L11.7693 26.4794L17.5222 20.7265L21.6314 24.8357V28.3285ZM8.41613 16.1652C8.41613 17.0367 7.70967 17.7432 6.83819 17.7432C5.96672 17.7432 5.26025 17.0367 5.26025 16.1652C5.26025 15.2938 5.96672 14.5873 6.83819 14.5873C7.70967 14.5873 8.41613 15.2938 8.41613 16.1652ZM10.1256 16.1652C10.1256 17.9808 8.65376 19.4526 6.83819 19.4526C5.02263 19.4526 3.55082 17.9808 3.55082 16.1652C3.55082 14.3497 5.02263 12.8779 6.83819 12.8779C8.65376 12.8779 10.1256 14.3497 10.1256 16.1652Z" fill="#7194E4"/>
<circle cx="24.2051" cy="8.73926" r="8" fill="#7194E4"/>
<path fill-rule="evenodd" clip-rule="evenodd" d="M25.0378 4.5721C25.0378 4.11187 24.6647 3.73877 24.2045 3.73877C23.7443 3.73877 23.3712 4.11187 23.3712 4.5721V7.9057L20.0384 7.9057C19.5782 7.9057 19.2051 8.2788 19.2051 8.73904C19.2051 9.19927 19.5782 9.57237 20.0384 9.57237L23.3712 9.57237V12.9054C23.3712 13.3657 23.7443 13.7388 24.2045 13.7388C24.6647 13.7388 25.0378 13.3657 25.0378 12.9054V9.57237L28.3717 9.57237C28.832 9.57237 29.2051 9.19928 29.2051 8.73904C29.2051 8.2788 28.832 7.9057 28.3717 7.9057L25.0378 7.9057V4.5721Z" fill="#E2ECFF"/>
</svg>
