<svg width="9" height="16" viewBox="0 0 9 16" fill="none" xmlns="http://www.w3.org/2000/svg">
<path d="M7.11719 9.22656L5.59375 10.7734V3.8125C5.59375 3.50781 5.33594 3.25 5.03125 3.25H4.46875C4.14062 3.25 3.90625 3.50781 3.90625 3.8125V10.7734L2.35938 9.22656C2.14844 9.01562 1.77344 9.01562 1.5625 9.22656L1.16406 9.625C0.953125 9.83594 0.953125 10.2109 1.16406 10.4219L4.35156 13.5859C4.5625 13.8203 4.91406 13.8203 5.125 13.5859L8.3125 10.4219C8.52344 10.2109 8.52344 9.83594 8.3125 9.625L7.91406 9.22656C7.70312 9.01562 7.32812 9.01562 7.11719 9.22656Z" fill="#6B6B7B"/>
</svg>
