<svg width="9" height="16" viewBox="0 0 9 16" fill="none" xmlns="http://www.w3.org/2000/svg">
<path d="M2.35938 7.79688L3.90625 6.25V13.1875C3.90625 13.5156 4.14062 13.75 4.46875 13.75H5.03125C5.33594 13.75 5.59375 13.5156 5.59375 13.1875V6.25L7.11719 7.79688C7.32812 8.00781 7.70312 8.00781 7.91406 7.79688L8.3125 7.39844C8.52344 7.1875 8.52344 6.8125 8.3125 6.60156L5.125 3.4375C4.91406 3.20312 4.5625 3.20312 4.35156 3.4375L1.16406 6.60156C0.953125 6.8125 0.953125 7.1875 1.16406 7.39844L1.5625 7.79688C1.77344 8.00781 2.14844 8.00781 2.35938 7.79688Z" fill="#6B6B7B"/>
</svg>
