<svg width="124" height="120" viewBox="0 0 124 120" fill="none" xmlns="http://www.w3.org/2000/svg">
<path d="M64.5001 117C88.5236 117 108 97.3385 108 73C108 48.6614 88.5236 29 64.5001 29C40.4764 29 21 48.6614 21 73C21 97.3385 40.4764 117 64.5001 117Z" fill="#DFEBFF"/>
<path d="M34.3929 61.4523C35.4443 59.5248 37.4647 58.3254 39.6603 58.3254H92.0324C94.2281 58.3254 96.2484 59.5248 97.2998 61.4523L107.904 80.8928H23.7891L34.3929 61.4523Z" fill="#83ADE3"/>
<g filter="url(#filter0_d)">
<path d="M49.9297 81.0705H93.4052V53.4623L78.7783 38.8354H53.9297C51.7205 38.8354 49.9297 40.6263 49.9297 42.8354V81.0705Z" fill="white"/>
<path d="M82.7773 53.4623H93.4042L78.7773 38.8354V49.4623C78.7773 51.6715 80.5682 53.4623 82.7773 53.4623Z" fill="#DFEBFF"/>
</g>
<g filter="url(#filter1_d)">
<path d="M39.1758 89.6119H75.0784V64.6367L62.313 52.1707H43.1758C40.9666 52.1707 39.1758 53.9615 39.1758 56.1707V89.6119Z" fill="white"/>
<path d="M66.3125 64.6367H75.0779L62.3125 52.1707V60.6367C62.3125 62.8459 64.1034 64.6367 66.3125 64.6367Z" fill="#DFEBFF"/>
</g>
<g filter="url(#filter2_d)">
<rect x="23.7891" y="77.8154" width="84.1146" height="31.7994" rx="4" fill="white"/>
</g>
<rect x="52.5117" y="86.0217" width="26.6705" height="4.10315" rx="2.05158" fill="#83ADE3"/>
<path d="M84.9587 64.7585L85.6783 64.9699L85.6806 64.9618L84.9587 64.7585ZM91.9603 55.5827L91.5923 54.929L91.5817 54.9353L91.9603 55.5827ZM95.2693 54.5001L95.2357 53.7509L95.2693 54.5001ZM98.4344 55.892L97.8327 56.3397L97.8442 56.3551L97.8564 56.3699L98.4344 55.892ZM98.7221 59.3973L99.3408 59.8214L99.3529 59.8037L99.3639 59.7854L98.7221 59.3973ZM95.605 60.4799L95.8075 59.7577L95.7812 59.7504L95.7545 59.7449L95.605 60.4799ZM91.9603 56.8199L91.2309 56.9943L91.9603 56.8199ZM93.447 51.7164L93.9434 52.2786L93.9544 52.2689L93.9651 52.2587L93.447 51.7164ZM96.6121 50.0668L96.3856 49.3518L96.3789 49.354L96.6121 50.0668ZM86.2578 75.5354L85.9714 74.8422L84.5851 75.4149L84.8714 76.1081L86.2578 75.5354ZM83.7057 71.7362L83.8043 72.4797L85.2913 72.2824L85.1927 71.5389L83.7057 71.7362ZM85.0582 69.8844L85.0356 69.1347L83.5362 69.18L83.5589 69.9297L85.0582 69.8844ZM84.0068 65.4263L83.835 66.1564L85.2951 66.4999L85.4669 65.7699L84.0068 65.4263ZM85.9195 64.195L86.1622 63.4854L84.7428 63L84.5002 63.7097L85.9195 64.195ZM86.4724 59.7661L86.0512 60.3866L87.2922 61.2291L87.7135 60.6086L86.4724 59.7661ZM88.686 59.3272L89.1704 58.7546L88.0253 57.7857L87.5409 58.3583L88.686 59.3272ZM90.8278 55.4075L90.2045 55.8246L91.0387 57.0712L91.662 56.6542L90.8278 55.4075ZM92.7423 56.0144L93.411 55.6747L92.7316 54.3373L92.0629 54.677L92.7423 56.0144ZM94.6635 53.8051L93.9211 53.9114L94.1338 55.3963L94.8763 55.2899L94.6635 53.8051ZM95.7262 55.2559L96.474 55.3128L96.5877 53.8171L95.8399 53.7602L95.7262 55.2559ZM98.62 54.9685L98.0832 54.4447L97.0356 55.5183L97.5724 56.0421L98.62 54.9685ZM98.0691 56.6887L98.4241 57.3494L99.7455 56.6396L99.3905 55.9789L98.0691 56.6887ZM99.6552 59.1619L99.9014 58.4535L98.4845 57.9611L98.2383 58.6696L99.6552 59.1619ZM97.8774 59.2401L97.3382 59.7615L98.3808 60.8398L98.92 60.3185L97.8774 59.2401ZM96.0307 61.3164L96.7778 61.3832L96.9113 59.8892L96.1643 59.8224L96.0307 61.3164ZM95.1415 59.5602L94.4459 59.2799L93.8852 60.6712L94.5809 60.9515L95.1415 59.5602ZM91.5063 57.8449L91.7921 58.5383L93.179 57.9668L92.8932 57.2733L91.5063 57.8449ZM92.5842 55.9752L92.5241 55.2276L91.0289 55.3478L91.089 56.0954L92.5842 55.9752ZM92.3123 51.8363L91.8524 52.4287L93.0372 53.3486L93.4971 52.7562L92.3123 51.8363ZM94.2934 51.9788L94.8893 51.5234L93.9784 50.3316L93.3825 50.787L94.2934 51.9788ZM95.8753 49.5248L95.1682 49.7746L95.6679 51.1889L96.375 50.9391L95.8753 49.5248ZM97.9679 50.4486L98.6912 50.2506L98.2953 48.8038L97.5719 49.0018L97.9679 50.4486ZM103.654 47.9558L102.906 48.0118L103.017 49.5076L103.765 49.4516L103.654 47.9558ZM106.121 49.365L106.871 49.3658L106.872 47.8658L106.122 47.865L106.121 49.365ZM112.264 48.4582L111.528 48.3148L111.241 49.7871L111.977 49.9305L112.264 48.4582ZM86.5944 76.2913C86.4755 76.0429 86.3633 75.7908 86.2578 75.5354L84.8714 76.1081C84.9872 76.3885 85.1105 76.6655 85.2413 76.9387L86.5944 76.2913ZM85.1927 71.5389C85.1199 70.9909 85.075 70.4383 85.0582 69.8844L83.5589 69.9297C83.5772 70.5345 83.6263 71.1378 83.7057 71.7362L85.1927 71.5389ZM85.4669 65.7699C85.5301 65.5014 85.6005 65.2346 85.6783 64.9699L84.2391 64.5471C84.1536 64.8383 84.0761 65.1315 84.0068 65.4263L85.4669 65.7699ZM85.6806 64.9618C85.7533 64.7036 85.833 64.4479 85.9195 64.195L84.5002 63.7097C84.4049 63.9884 84.317 64.2704 84.2367 64.5553L85.6806 64.9618ZM87.7135 60.6086C88.0163 60.1625 88.3413 59.7345 88.686 59.3272L87.5409 58.3583C87.162 58.8061 86.805 59.2762 86.4724 59.7661L87.7135 60.6086ZM91.662 56.6542C91.8844 56.5053 92.1102 56.3639 92.339 56.2301L91.5817 54.9353C91.3264 55.0846 91.075 55.2421 90.8278 55.4075L91.662 56.6542ZM92.3283 56.2362C92.4642 56.1596 92.6024 56.0854 92.7423 56.0144L92.0629 54.677C91.9026 54.7584 91.7456 54.8428 91.5923 54.9291L92.3283 56.2362ZM94.8763 55.2899C95.0198 55.2693 95.1621 55.2557 95.3029 55.2494L95.2357 53.7509C95.0433 53.7595 94.8523 53.778 94.6635 53.8051L94.8763 55.2899ZM95.3029 55.2494C95.4428 55.2431 95.5845 55.2452 95.7262 55.2559L95.8399 53.7602C95.6374 53.7448 95.4354 53.7419 95.2357 53.7509L95.3029 55.2494ZM97.5724 56.0421C97.6652 56.1326 97.7523 56.2316 97.8327 56.3397L99.0361 55.4442C98.9078 55.2719 98.7685 55.1134 98.62 54.9685L97.5724 56.0421ZM97.8564 56.3699C97.9346 56.4645 98.0061 56.5713 98.0691 56.6887L99.3905 55.9789C99.2838 55.7801 99.1579 55.59 99.0124 55.414L97.8564 56.3699ZM98.2383 58.6696C98.1956 58.7927 98.1425 58.9064 98.0804 59.0093L99.3639 59.7854C99.484 59.5869 99.5805 59.3772 99.6552 59.1619L98.2383 58.6696ZM98.1035 58.9733C98.0379 59.069 97.9621 59.1582 97.8774 59.2401L98.92 60.3185C99.0744 60.1692 99.216 60.0034 99.3408 59.8214L98.1035 58.9733ZM96.1643 59.8224C96.0409 59.8114 95.9213 59.7897 95.8075 59.7577L95.4025 61.202C95.6088 61.2599 95.8194 61.2976 96.0307 61.3164L96.1643 59.8224ZM95.7545 59.7449C95.5449 59.7023 95.34 59.6402 95.1415 59.5602L94.5809 60.9515C94.8616 61.0646 95.154 61.1535 95.4555 61.2149L95.7545 59.7449ZM92.8932 57.2733C92.8094 57.07 92.7411 56.86 92.6897 56.6454L91.2309 56.9943C91.3007 57.2863 91.3933 57.5707 91.5063 57.8449L92.8932 57.2733ZM92.6897 56.6454C92.6377 56.428 92.6026 56.2036 92.5842 55.9752L91.089 56.0954C91.1133 56.3978 91.1602 56.6988 91.2309 56.9943L92.6897 56.6454ZM93.4971 52.7562C93.6336 52.5804 93.7828 52.4204 93.9434 52.2786L92.9505 51.1542C92.7159 51.3614 92.503 51.5906 92.3123 51.8363L93.4971 52.7562ZM93.9651 52.2587C94.0675 52.1608 94.1771 52.0677 94.2934 51.9788L93.3825 50.787C93.226 50.9067 93.0741 51.0354 92.9288 51.1742L93.9651 52.2587ZM96.375 50.9391C96.5316 50.8838 96.6885 50.8309 96.8453 50.7797L96.3789 49.354C96.2142 49.4079 96.0457 49.4646 95.8753 49.5248L96.375 50.9391ZM96.8385 50.7818C97.2126 50.6633 97.5892 50.5523 97.9679 50.4486L97.5719 49.0018C97.1742 49.1107 96.7787 49.2273 96.3856 49.3518L96.8385 50.7818ZM103.765 49.4516C104.549 49.393 105.335 49.3641 106.121 49.365L106.122 47.865C105.299 47.8641 104.475 47.8944 103.654 47.9558L103.765 49.4516ZM111.977 49.9305C112.363 50.0056 112.747 50.0882 113.129 50.1782L113.473 48.7182C113.072 48.6237 112.669 48.537 112.264 48.4582L111.977 49.9305Z" fill="#8FB8EE"/>
<path d="M121.494 48.5111C120.947 49.9753 120.432 51.3403 119.47 51.3654C118.509 51.3906 118.427 50.274 118.312 48.7107C118.165 47.2468 118.917 45.9562 119.957 45.9559C120.918 45.9307 122.213 46.7739 121.494 48.5111Z" fill="#C6D4E9"/>
<path d="M118.97 55.8338C119.876 53.7295 120.479 52.5915 119.925 51.754C119.298 50.893 118.436 51.8167 117.088 52.986C115.927 54.0813 115.766 56.1542 116.319 56.9918C116.983 57.9969 118.177 57.5757 118.97 55.8338Z" fill="#C6D4E9"/>
<path d="M121.253 52.8968C120.931 53.5362 120.228 53.8443 119.426 53.6981C119.095 53.5942 118.765 53.4902 118.324 53.3517C116.841 52.6741 115.9 51.4264 116.283 50.5945C116.666 49.7626 118.25 49.7316 119.953 50.4785C120.284 50.5824 120.585 50.7826 120.775 50.9482C121.376 51.3486 121.605 52.1612 121.253 52.8968C121.283 52.8005 121.253 52.8968 121.253 52.8968Z" fill="#83ADE2"/>
<g filter="url(#filter3_d)">
<path d="M17.8318 28.9912C18.5309 27.4728 19.8316 26.3148 21.4207 25.7962L78.9222 7.03212C80.5113 6.51355 82.2447 6.68142 83.7047 7.49527L98.9 15.9651L10.5572 44.7935L17.8318 28.9912Z" fill="#C4D9F6"/>
<g filter="url(#filter4_d)">
<rect x="10.1016" y="43.3958" width="92.9276" height="11.7615" rx="2" transform="rotate(-18.0727 10.1016 43.3958)" fill="white"/>
</g>
</g>
<defs>
<filter id="filter0_d" x="45.9297" y="24.8354" width="73.4755" height="72.2351" filterUnits="userSpaceOnUse" color-interpolation-filters="sRGB">
<feFlood flood-opacity="0" result="BackgroundImageFix"/>
<feColorMatrix in="SourceAlpha" type="matrix" values="0 0 0 0 0 0 0 0 0 0 0 0 0 0 0 0 0 0 127 0" result="hardAlpha"/>
<feOffset dx="11" dy="1"/>
<feGaussianBlur stdDeviation="7.5"/>
<feComposite in2="hardAlpha" operator="out"/>
<feColorMatrix type="matrix" values="0 0 0 0 0.561007 0 0 0 0 0.705141 0 0 0 0 0.891667 0 0 0 0.5 0"/>
<feBlend mode="normal" in2="BackgroundImageFix" result="effect1_dropShadow"/>
<feBlend mode="normal" in="SourceGraphic" in2="effect1_dropShadow" result="shape"/>
</filter>
<filter id="filter1_d" x="33.1758" y="39.1707" width="63.9026" height="65.4413" filterUnits="userSpaceOnUse" color-interpolation-filters="sRGB">
<feFlood flood-opacity="0" result="BackgroundImageFix"/>
<feColorMatrix in="SourceAlpha" type="matrix" values="0 0 0 0 0 0 0 0 0 0 0 0 0 0 0 0 0 0 127 0" result="hardAlpha"/>
<feOffset dx="8" dy="1"/>
<feGaussianBlur stdDeviation="7"/>
<feComposite in2="hardAlpha" operator="out"/>
<feColorMatrix type="matrix" values="0 0 0 0 0.561007 0 0 0 0 0.705141 0 0 0 0 0.891667 0 0 0 0.2 0"/>
<feBlend mode="normal" in2="BackgroundImageFix" result="effect1_dropShadow"/>
<feBlend mode="normal" in="SourceGraphic" in2="effect1_dropShadow" result="shape"/>
</filter>
<filter id="filter2_d" x="12.7891" y="65.8154" width="110.115" height="57.7994" filterUnits="userSpaceOnUse" color-interpolation-filters="sRGB">
<feFlood flood-opacity="0" result="BackgroundImageFix"/>
<feColorMatrix in="SourceAlpha" type="matrix" values="0 0 0 0 0 0 0 0 0 0 0 0 0 0 0 0 0 0 127 0" result="hardAlpha"/>
<feMorphology radius="2" operator="erode" in="SourceAlpha" result="effect1_dropShadow"/>
<feOffset dx="2" dy="1"/>
<feGaussianBlur stdDeviation="7.5"/>
<feComposite in2="hardAlpha" operator="out"/>
<feColorMatrix type="matrix" values="0 0 0 0 0.423177 0 0 0 0 0.591884 0 0 0 0 0.8125 0 0 0 0.7 0"/>
<feBlend mode="normal" in2="BackgroundImageFix" result="effect1_dropShadow"/>
<feBlend mode="normal" in="SourceGraphic" in2="effect1_dropShadow" result="shape"/>
</filter>
<filter id="filter3_d" x="0.558594" y="-1.26392" width="111.012" height="67.3197" filterUnits="userSpaceOnUse" color-interpolation-filters="sRGB">
<feFlood flood-opacity="0" result="BackgroundImageFix"/>
<feColorMatrix in="SourceAlpha" type="matrix" values="0 0 0 0 0 0 0 0 0 0 0 0 0 0 0 0 0 0 127 0" result="hardAlpha"/>
<feOffset dy="2"/>
<feGaussianBlur stdDeviation="5"/>
<feColorMatrix type="matrix" values="0 0 0 0 0.6375 0 0 0 0 0.773438 0 0 0 0 1 0 0 0 0.3 0"/>
<feBlend mode="normal" in2="BackgroundImageFix" result="effect1_dropShadow"/>
<feBlend mode="normal" in="SourceGraphic" in2="effect1_dropShadow" result="shape"/>
</filter>
<filter id="filter4_d" x="3.62109" y="5.08862" width="108.949" height="56.9672" filterUnits="userSpaceOnUse" color-interpolation-filters="sRGB">
<feFlood flood-opacity="0" result="BackgroundImageFix"/>
<feColorMatrix in="SourceAlpha" type="matrix" values="0 0 0 0 0 0 0 0 0 0 0 0 0 0 0 0 0 0 127 0" result="hardAlpha"/>
<feMorphology radius="2" operator="erode" in="SourceAlpha" result="effect1_dropShadow"/>
<feOffset dx="2" dy="-1"/>
<feGaussianBlur stdDeviation="5.5"/>
<feComposite in2="hardAlpha" operator="out"/>
<feColorMatrix type="matrix" values="0 0 0 0 0.423177 0 0 0 0 0.591884 0 0 0 0 0.8125 0 0 0 0.5 0"/>
<feBlend mode="normal" in2="BackgroundImageFix" result="effect1_dropShadow"/>
<feBlend mode="normal" in="SourceGraphic" in2="effect1_dropShadow" result="shape"/>
</filter>
</defs>
</svg>
