<svg width="124" height="120" viewBox="0 0 124 120" fill="none" xmlns="http://www.w3.org/2000/svg">
<path d="M64.5001 117C88.5236 117 108 97.3385 108 73C108 48.6614 88.5236 29 64.5001 29C40.4764 29 21 48.6614 21 73C21 97.3385 40.4764 117 64.5001 117Z" fill="#DFEBFF"/>
<path d="M34.3929 61.4524C35.4443 59.5249 37.4647 58.3255 39.6603 58.3255H92.0324C94.2281 58.3255 96.2484 59.5249 97.2998 61.4524L107.904 80.8929H23.7891L34.3929 61.4524Z" fill="#83ADE3"/>
<g filter="url(#filter0_d)">
<path d="M49.9297 81.0706H93.4052V53.4624L78.7783 38.8355H53.9297C51.7205 38.8355 49.9297 40.6264 49.9297 42.8355V81.0706Z" fill="white"/>
<path d="M82.7773 53.4624H93.4042L78.7773 38.8355V49.4624C78.7773 51.6716 80.5682 53.4624 82.7773 53.4624Z" fill="#DFEBFF"/>
</g>
<g filter="url(#filter1_d)">
<path d="M39.1758 89.612H75.0784V64.6369L62.313 52.1708H43.1758C40.9666 52.1708 39.1758 53.9616 39.1758 56.1708V89.612Z" fill="white"/>
<path d="M66.3125 64.6369H75.0779L62.3125 52.1708V60.6369C62.3125 62.846 64.1034 64.6369 66.3125 64.6369Z" fill="#DFEBFF"/>
</g>
<g filter="url(#filter2_d)">
<rect x="23.7891" y="77.8155" width="84.1146" height="31.7994" rx="4" fill="white"/>
</g>
<rect x="52.5117" y="86.0218" width="26.6705" height="4.10315" rx="2.05158" fill="#83ADE3"/>
<path d="M84.9587 64.7585L85.6783 64.9699L85.6806 64.9617L84.9587 64.7585ZM91.9603 55.5826L91.5923 54.929L91.5817 54.9352L91.9603 55.5826ZM95.2693 54.5001L95.2357 53.7508L95.2693 54.5001ZM98.4344 55.8919L97.8327 56.3397L97.8442 56.3551L97.8564 56.3698L98.4344 55.8919ZM98.7221 59.3973L99.3408 59.8213L99.3529 59.8037L99.3639 59.7854L98.7221 59.3973ZM95.605 60.4798L95.8075 59.7577L95.7812 59.7503L95.7545 59.7449L95.605 60.4798ZM91.9603 56.8198L91.2309 56.9943L91.9603 56.8198ZM93.447 51.7164L93.9434 52.2786L93.9544 52.2688L93.9651 52.2586L93.447 51.7164ZM96.6121 50.0668L96.3856 49.3517L96.3789 49.3539L96.6121 50.0668ZM86.2578 75.5353L85.9714 74.8421L84.5851 75.4148L84.8714 76.108L86.2578 75.5353ZM83.7057 71.7361L83.8043 72.4796L85.2913 72.2824L85.1927 71.5389L83.7057 71.7361ZM85.0582 69.8843L85.0356 69.1346L83.5362 69.18L83.5589 69.9296L85.0582 69.8843ZM84.0068 65.4263L83.835 66.1563L85.2951 66.4999L85.4669 65.7698L84.0068 65.4263ZM85.9195 64.195L86.1622 63.4853L84.7428 63L84.5002 63.7096L85.9195 64.195ZM86.4724 59.766L86.0512 60.3865L87.2922 61.229L87.7135 60.6085L86.4724 59.766ZM88.686 59.3271L89.1704 58.7546L88.0253 57.7857L87.5409 58.3582L88.686 59.3271ZM90.8278 55.4074L90.2045 55.8245L91.0387 57.0712L91.662 56.6541L90.8278 55.4074ZM92.7423 56.0143L93.411 55.6746L92.7316 54.3373L92.0629 54.6769L92.7423 56.0143ZM94.6635 53.805L93.9211 53.9114L94.1338 55.3962L94.8763 55.2898L94.6635 53.805ZM95.7262 55.2559L96.474 55.3127L96.5877 53.817L95.8399 53.7602L95.7262 55.2559ZM98.62 54.9684L98.0832 54.4446L97.0356 55.5182L97.5724 56.042L98.62 54.9684ZM98.0691 56.6887L98.4241 57.3494L99.7455 56.6395L99.3905 55.9788L98.0691 56.6887ZM99.6552 59.1619L99.9014 58.4534L98.4845 57.9611L98.2383 58.6695L99.6552 59.1619ZM97.8774 59.2401L97.3382 59.7614L98.3808 60.8398L98.92 60.3184L97.8774 59.2401ZM96.0307 61.3164L96.7778 61.3832L96.9113 59.8891L96.1643 59.8223L96.0307 61.3164ZM95.1415 59.5602L94.4459 59.2798L93.8852 60.6711L94.5809 60.9514L95.1415 59.5602ZM91.5063 57.8449L91.7921 58.5383L93.179 57.9667L92.8932 57.2733L91.5063 57.8449ZM92.5842 55.9751L92.5241 55.2275L91.0289 55.3478L91.089 56.0954L92.5842 55.9751ZM92.3123 51.8363L91.8524 52.4287L93.0372 53.3486L93.4971 52.7561L92.3123 51.8363ZM94.2934 51.9788L94.8893 51.5233L93.9784 50.3315L93.3825 50.787L94.2934 51.9788ZM95.8753 49.5247L95.1682 49.7746L95.6679 51.1889L96.375 50.939L95.8753 49.5247ZM97.9679 50.4486L98.6912 50.2506L98.2953 48.8038L97.5719 49.0018L97.9679 50.4486ZM103.654 47.9558L102.906 48.0117L103.017 49.5075L103.765 49.4516L103.654 47.9558ZM106.121 49.3649L106.871 49.3658L106.872 47.8658L106.122 47.8649L106.121 49.3649ZM112.264 48.4581L111.528 48.3147L111.241 49.7871L111.977 49.9305L112.264 48.4581ZM86.5944 76.2912C86.4755 76.0429 86.3633 75.7907 86.2578 75.5353L84.8714 76.108C84.9872 76.3884 85.1105 76.6654 85.2413 76.9386L86.5944 76.2912ZM85.1927 71.5389C85.1199 70.9908 85.075 70.4382 85.0582 69.8843L83.5589 69.9296C83.5772 70.5345 83.6263 71.1378 83.7057 71.7361L85.1927 71.5389ZM85.4669 65.7698C85.5301 65.5013 85.6005 65.2346 85.6783 64.9699L84.2391 64.5471C84.1536 64.8382 84.0761 65.1314 84.0068 65.4263L85.4669 65.7698ZM85.6806 64.9617C85.7533 64.7035 85.833 64.4479 85.9195 64.195L84.5002 63.7096C84.4049 63.9883 84.317 64.2703 84.2367 64.5552L85.6806 64.9617ZM87.7135 60.6085C88.0163 60.1624 88.3413 59.7345 88.686 59.3271L87.5409 58.3582C87.162 58.806 86.805 59.2761 86.4724 59.766L87.7135 60.6085ZM91.662 56.6541C91.8844 56.5053 92.1102 56.3638 92.339 56.23L91.5817 54.9352C91.3264 55.0845 91.075 55.242 90.8278 55.4074L91.662 56.6541ZM92.3283 56.2361C92.4642 56.1596 92.6024 56.0854 92.7423 56.0143L92.0629 54.6769C91.9026 54.7584 91.7456 54.8428 91.5923 54.9291L92.3283 56.2361ZM94.8763 55.2898C95.0198 55.2693 95.1621 55.2556 95.3029 55.2493L95.2357 53.7508C95.0433 53.7594 94.8523 53.778 94.6635 53.805L94.8763 55.2898ZM95.3029 55.2493C95.4428 55.243 95.5845 55.2451 95.7262 55.2559L95.8399 53.7602C95.6374 53.7448 95.4354 53.7419 95.2357 53.7508L95.3029 55.2493ZM97.5724 56.042C97.6652 56.1325 97.7523 56.2316 97.8327 56.3397L99.0361 55.4441C98.9078 55.2718 98.7685 55.1133 98.62 54.9684L97.5724 56.042ZM97.8564 56.3698C97.9346 56.4644 98.0061 56.5712 98.0691 56.6887L99.3905 55.9788C99.2838 55.7801 99.1579 55.59 99.0124 55.4139L97.8564 56.3698ZM98.2383 58.6695C98.1956 58.7927 98.1425 58.9064 98.0804 59.0092L99.3639 59.7854C99.484 59.5868 99.5805 59.3771 99.6552 59.1619L98.2383 58.6695ZM98.1035 58.9732C98.0379 59.069 97.9621 59.1581 97.8774 59.2401L98.92 60.3184C99.0744 60.1692 99.216 60.0033 99.3408 59.8213L98.1035 58.9732ZM96.1643 59.8223C96.0409 59.8113 95.9213 59.7896 95.8075 59.7577L95.4025 61.202C95.6088 61.2598 95.8194 61.2975 96.0307 61.3164L96.1643 59.8223ZM95.7545 59.7449C95.5449 59.7023 95.34 59.6401 95.1415 59.5602L94.5809 60.9514C94.8616 61.0646 95.154 61.1535 95.4555 61.2148L95.7545 59.7449ZM92.8932 57.2733C92.8094 57.0699 92.7411 56.8599 92.6897 56.6453L91.2309 56.9943C91.3007 57.2862 91.3933 57.5706 91.5063 57.8449L92.8932 57.2733ZM92.6897 56.6453C92.6377 56.4279 92.6026 56.2035 92.5842 55.9751L91.089 56.0954C91.1133 56.3977 91.1602 56.6987 91.2309 56.9943L92.6897 56.6453ZM93.4971 52.7561C93.6336 52.5803 93.7828 52.4204 93.9434 52.2786L92.9505 51.1542C92.7159 51.3614 92.503 51.5906 92.3123 51.8363L93.4971 52.7561ZM93.9651 52.2586C94.0675 52.1607 94.1771 52.0676 94.2934 51.9788L93.3825 50.787C93.226 50.9066 93.0741 51.0353 92.9288 51.1741L93.9651 52.2586ZM96.375 50.939C96.5316 50.8837 96.6885 50.8309 96.8453 50.7796L96.3789 49.3539C96.2142 49.4078 96.0457 49.4645 95.8753 49.5247L96.375 50.939ZM96.8385 50.7818C97.2126 50.6633 97.5892 50.5522 97.9679 50.4486L97.5719 49.0018C97.1742 49.1106 96.7787 49.2273 96.3856 49.3518L96.8385 50.7818ZM103.765 49.4516C104.549 49.393 105.335 49.3641 106.121 49.3649L106.122 47.8649C105.299 47.864 104.475 47.8943 103.654 47.9558L103.765 49.4516ZM111.977 49.9305C112.363 50.0056 112.747 50.0881 113.129 50.1782L113.473 48.7182C113.072 48.6236 112.669 48.5369 112.264 48.4581L111.977 49.9305Z" fill="#8FB8EE"/>
<path d="M121.494 48.5111C120.947 49.9752 120.432 51.3402 119.47 51.3653C118.509 51.3905 118.427 50.2739 118.312 48.7107C118.165 47.2467 118.917 45.9561 119.957 45.9558C120.918 45.9306 122.213 46.7739 121.494 48.5111Z" fill="#C6D4E9"/>
<path d="M118.97 55.8337C119.876 53.7294 120.479 52.5914 119.925 51.7539C119.298 50.893 118.436 51.8166 117.088 52.9859C115.927 54.0812 115.766 56.1541 116.319 56.9917C116.983 57.9968 118.177 57.5756 118.97 55.8337Z" fill="#C6D4E9"/>
<path d="M121.253 52.8967C120.931 53.536 120.228 53.8442 119.426 53.698C119.095 53.594 118.765 53.4901 118.324 53.3515C116.841 52.6739 115.9 51.4263 116.283 50.5944C116.666 49.7625 118.25 49.7314 119.953 50.4783C120.284 50.5823 120.585 50.7825 120.775 50.9481C121.376 51.3485 121.605 52.1611 121.253 52.8967C121.253 52.8967 121.283 52.8004 121.253 52.8967Z" fill="#83ADE2"/>
<g filter="url(#filter3_d)">
<path d="M17.8318 28.9912C18.5309 27.4728 19.8316 26.3148 21.4207 25.7963L78.9222 7.03218C80.5113 6.51361 82.2447 6.68148 83.7047 7.49533L98.9 15.9652L10.5572 44.7936L17.8318 28.9912Z" fill="#C4D9F6"/>
<g filter="url(#filter4_d)">
<rect x="10.1016" y="43.3959" width="92.9276" height="11.7615" rx="2" transform="rotate(-18.0727 10.1016 43.3959)" fill="white"/>
</g>
</g>
<defs>
<filter id="filter0_d" x="45.9297" y="24.8355" width="73.4755" height="72.2351" filterUnits="userSpaceOnUse" color-interpolation-filters="sRGB">
<feFlood flood-opacity="0" result="BackgroundImageFix"/>
<feColorMatrix in="SourceAlpha" type="matrix" values="0 0 0 0 0 0 0 0 0 0 0 0 0 0 0 0 0 0 127 0" result="hardAlpha"/>
<feOffset dx="11" dy="1"/>
<feGaussianBlur stdDeviation="7.5"/>
<feComposite in2="hardAlpha" operator="out"/>
<feColorMatrix type="matrix" values="0 0 0 0 0.561007 0 0 0 0 0.705141 0 0 0 0 0.891667 0 0 0 0.5 0"/>
<feBlend mode="normal" in2="BackgroundImageFix" result="effect1_dropShadow"/>
<feBlend mode="normal" in="SourceGraphic" in2="effect1_dropShadow" result="shape"/>
</filter>
<filter id="filter1_d" x="33.1758" y="39.1708" width="63.9026" height="65.4413" filterUnits="userSpaceOnUse" color-interpolation-filters="sRGB">
<feFlood flood-opacity="0" result="BackgroundImageFix"/>
<feColorMatrix in="SourceAlpha" type="matrix" values="0 0 0 0 0 0 0 0 0 0 0 0 0 0 0 0 0 0 127 0" result="hardAlpha"/>
<feOffset dx="8" dy="1"/>
<feGaussianBlur stdDeviation="7"/>
<feComposite in2="hardAlpha" operator="out"/>
<feColorMatrix type="matrix" values="0 0 0 0 0.561007 0 0 0 0 0.705141 0 0 0 0 0.891667 0 0 0 0.2 0"/>
<feBlend mode="normal" in2="BackgroundImageFix" result="effect1_dropShadow"/>
<feBlend mode="normal" in="SourceGraphic" in2="effect1_dropShadow" result="shape"/>
</filter>
<filter id="filter2_d" x="12.7891" y="65.8155" width="110.115" height="57.7994" filterUnits="userSpaceOnUse" color-interpolation-filters="sRGB">
<feFlood flood-opacity="0" result="BackgroundImageFix"/>
<feColorMatrix in="SourceAlpha" type="matrix" values="0 0 0 0 0 0 0 0 0 0 0 0 0 0 0 0 0 0 127 0" result="hardAlpha"/>
<feMorphology radius="2" operator="erode" in="SourceAlpha" result="effect1_dropShadow"/>
<feOffset dx="2" dy="1"/>
<feGaussianBlur stdDeviation="7.5"/>
<feComposite in2="hardAlpha" operator="out"/>
<feColorMatrix type="matrix" values="0 0 0 0 0.423177 0 0 0 0 0.591884 0 0 0 0 0.8125 0 0 0 0.7 0"/>
<feBlend mode="normal" in2="BackgroundImageFix" result="effect1_dropShadow"/>
<feBlend mode="normal" in="SourceGraphic" in2="effect1_dropShadow" result="shape"/>
</filter>
<filter id="filter3_d" x="0.558594" y="-1.26385" width="111.012" height="67.3198" filterUnits="userSpaceOnUse" color-interpolation-filters="sRGB">
<feFlood flood-opacity="0" result="BackgroundImageFix"/>
<feColorMatrix in="SourceAlpha" type="matrix" values="0 0 0 0 0 0 0 0 0 0 0 0 0 0 0 0 0 0 127 0" result="hardAlpha"/>
<feOffset dy="2"/>
<feGaussianBlur stdDeviation="5"/>
<feColorMatrix type="matrix" values="0 0 0 0 0.6375 0 0 0 0 0.773438 0 0 0 0 1 0 0 0 0.3 0"/>
<feBlend mode="normal" in2="BackgroundImageFix" result="effect1_dropShadow"/>
<feBlend mode="normal" in="SourceGraphic" in2="effect1_dropShadow" result="shape"/>
</filter>
<filter id="filter4_d" x="3.62109" y="5.08875" width="108.949" height="56.9672" filterUnits="userSpaceOnUse" color-interpolation-filters="sRGB">
<feFlood flood-opacity="0" result="BackgroundImageFix"/>
<feColorMatrix in="SourceAlpha" type="matrix" values="0 0 0 0 0 0 0 0 0 0 0 0 0 0 0 0 0 0 127 0" result="hardAlpha"/>
<feMorphology radius="2" operator="erode" in="SourceAlpha" result="effect1_dropShadow"/>
<feOffset dx="2" dy="-1"/>
<feGaussianBlur stdDeviation="5.5"/>
<feComposite in2="hardAlpha" operator="out"/>
<feColorMatrix type="matrix" values="0 0 0 0 0.423177 0 0 0 0 0.591884 0 0 0 0 0.8125 0 0 0 0.5 0"/>
<feBlend mode="normal" in2="BackgroundImageFix" result="effect1_dropShadow"/>
<feBlend mode="normal" in="SourceGraphic" in2="effect1_dropShadow" result="shape"/>
</filter>
</defs>
</svg>
