<svg width="126" height="130" viewBox="0 0 126 130" fill="none" xmlns="http://www.w3.org/2000/svg">
<path d="M62.2502 108.424C84.7508 108.424 102.992 90.1824 102.992 67.6013C102.992 45.0202 84.7508 26.7786 62.2502 26.7786C39.7495 26.7786 21.5078 45.0202 21.5078 67.6013C21.5078 90.1824 39.7495 108.424 62.2502 108.424Z" fill="#DFEBFF"/>
<path d="M32.278 41.1628H90.2172C92.5476 41.1628 94.3156 42.9308 94.3156 45.2612V81.9856C94.3156 84.3161 92.5476 86.084 90.2172 86.084H32.278C29.9476 86.084 28.1797 84.3161 28.1797 81.9856V45.2612C28.1797 42.9308 30.1083 41.1628 32.278 41.1628Z" fill="#83ADE3"/>
<path d="M95.4395 64.7082V82.7892C95.4395 85.1196 93.5912 87.0483 91.1804 87.0483H31.6341C29.3036 87.0483 27.375 85.1196 27.375 82.7892V63.1814" stroke="#1676EE" stroke-width="3" stroke-linecap="round" stroke-linejoin="round"/>
<path d="M90.3779 54.583H71.5739C69.7256 54.583 67.9577 55.2259 66.5916 56.3509L61.6896 60.3689C60.3235 61.494 58.5556 62.1368 56.7073 62.1368H35.4923C33.3226 62.1368 31.5547 63.9047 31.5547 66.0745C31.5547 66.2352 31.5547 66.4763 31.635 66.637L35.5727 87.3698C35.8941 89.2984 37.5013 90.7449 39.5103 90.7449H84.9134C86.8421 90.7449 88.5296 89.3788 88.8511 87.4502L94.3155 59.0832C94.7173 56.9134 93.2709 54.9848 91.1011 54.583C90.7797 54.583 90.5386 54.583 90.3779 54.583Z" fill="white"/>
<g filter="url(#filter0_d)">
<path d="M98.8133 49.0384H74.384C71.9732 49.0384 69.7231 49.842 67.8748 51.3688L61.4461 56.5922C59.6781 58.0387 57.3477 58.9226 54.9369 58.9226H27.2931C24.4805 58.9226 22.2305 61.2531 22.2305 63.9853C22.2305 64.2264 22.2305 64.4674 22.3108 64.7085L27.3735 91.7898C27.7753 94.3615 29.945 96.2097 32.4362 96.2097H91.5809C94.1524 96.2097 96.2418 94.4418 96.6436 91.8701L103.796 54.8243C104.278 52.0117 102.429 49.5205 99.6169 48.958C99.3758 49.0384 99.0544 49.0384 98.8133 49.0384Z" fill="white"/>
</g>
<path d="M102.754 94.3614C102.433 95.7275 101.951 97.174 101.388 98.3794C99.8613 101.353 97.4505 103.683 94.4772 105.21C91.4235 106.737 87.8074 107.38 84.1914 106.576C75.6733 104.808 70.2088 96.4508 71.9767 87.9325C73.7446 79.4143 82.0217 73.8695 90.5396 75.7178C93.5933 76.3606 96.2451 77.8875 98.4952 79.9768C102.272 83.7537 103.879 89.2182 102.754 94.3614Z" fill="#83ADE3"/>
<path d="M92.3852 89.7804H88.769V86.1642C88.769 85.441 88.2065 84.7981 87.4029 84.7981C86.6796 84.7981 86.0368 85.3606 86.0368 86.1642V89.7804H82.4208C81.6976 89.7804 81.0547 90.3429 81.0547 91.1465C81.0547 91.9501 81.6172 92.513 82.4208 92.513H86.0368V96.1292C86.0368 96.8524 86.5993 97.4953 87.4029 97.4953C88.1261 97.4953 88.769 96.9327 88.769 96.1292V92.513H92.3852C93.1084 92.513 93.7513 91.9501 93.7513 91.1465C93.7513 90.3429 93.1084 89.7804 92.3852 89.7804Z" fill="white"/>
<path d="M58.6354 58.0384C55.7425 52.4132 55.0996 45.663 57.0282 39.5557C58.8765 33.4483 63.2963 28.2249 68.7607 25.2516C70.4483 24.3677 72.3769 23.6444 74.3056 23.5641C76.2342 23.4837 78.3236 24.1266 79.6093 25.7338C80.8951 27.1803 81.1362 29.5911 80.0915 31.1983C78.9664 32.7251 76.7164 33.368 74.8681 32.8858C71.8948 32.3233 69.484 29.9929 68.7607 27.1803C68.0375 24.3677 69.0018 21.0729 71.2519 19.2246C72.6984 17.9389 74.7074 17.2156 76.5556 16.6531C85.5558 14.0013 95.3597 13.6798 104.521 15.6888" stroke="#B6D4FF" stroke-width="2" stroke-miterlimit="10" stroke-dasharray="4 4"/>
<path d="M109.342 13.5995C109.261 14.8049 109.181 15.93 108.297 16.171C107.413 16.4121 107.011 15.6085 106.449 14.4835C105.886 13.4388 106.208 12.3138 107.172 12.0727C108.056 11.8316 109.502 12.1531 109.342 13.5995Z" fill="#C6D4E9"/>
<path d="M108.38 19.3855C108.621 17.939 108.862 17.1354 108.058 16.7336C107.174 16.3318 106.612 17.0551 105.647 18.0194C104.844 18.9034 105.326 20.1891 106.13 20.5909C107.094 21.0731 108.139 20.5909 108.38 19.3855Z" fill="#C6D4E9"/>
<path d="M109.505 16.7336C109.424 17.2962 109.022 17.698 108.46 17.7783C108.219 17.7783 107.978 17.7783 107.656 17.7783C106.531 17.6176 105.647 16.8944 105.728 16.1711C105.808 15.4479 106.853 15.0461 108.139 15.2068C108.38 15.2068 108.621 15.2872 108.781 15.3675C109.264 15.5282 109.585 16.0908 109.505 16.7336C109.505 16.7336 109.505 16.6533 109.505 16.7336Z" fill="#83ADE2"/>
<path d="M19.8203 39.3146C19.8203 37.9485 19.8203 36.5824 20.7846 36.1806C21.8293 35.7788 22.3918 36.7431 23.1954 38.1092C23.9187 39.3146 23.5972 40.6004 22.5525 41.0022C21.6686 41.404 19.8203 41.1629 19.8203 39.3146Z" fill="#C6D4E9"/>
<path d="M20.3824 32.5645C20.2216 34.252 19.9806 35.2163 21.0252 35.6181C22.0699 36.0199 22.6324 35.136 23.6771 33.8502C24.4807 32.7252 23.9182 31.2787 22.8735 30.8769C21.8288 30.4751 20.5431 31.1983 20.3824 32.5645Z" fill="#C6D4E9"/>
<path d="M19.5 35.7789C19.5 35.136 19.9822 34.6538 20.5447 34.5735C20.7858 34.4931 21.1072 34.4931 21.4286 34.5735C22.7144 34.6538 23.8394 35.3771 23.7591 36.1806C23.6787 36.9842 22.634 37.5468 21.2679 37.386C21.0268 37.386 20.7858 37.3057 20.5447 37.2253C19.9018 37.145 19.5 36.5021 19.5 35.7789Z" fill="#83ADE2"/>
<path d="M24.9648 36.02C33.4026 36.02 48.9924 40.922 49.2335 58.9226" stroke="#B6D4FF" stroke-width="2" stroke-miterlimit="10" stroke-dasharray="4 4"/>
<defs>
<filter id="filter0_d" x="0.230469" y="37.958" width="125.642" height="91.2517" filterUnits="userSpaceOnUse" color-interpolation-filters="sRGB">
<feFlood flood-opacity="0" result="BackgroundImageFix"/>
<feColorMatrix in="SourceAlpha" type="matrix" values="0 0 0 0 0 0 0 0 0 0 0 0 0 0 0 0 0 0 127 0" result="hardAlpha"/>
<feOffset dy="11"/>
<feGaussianBlur stdDeviation="11"/>
<feColorMatrix type="matrix" values="0 0 0 0 0.2 0 0 0 0 0.454902 0 0 0 0 0.764706 0 0 0 0.27 0"/>
<feBlend mode="normal" in2="BackgroundImageFix" result="effect1_dropShadow"/>
<feBlend mode="normal" in="SourceGraphic" in2="effect1_dropShadow" result="shape"/>
</filter>
</defs>
</svg>
