<svg width="131" height="124" viewBox="0 0 131 124" fill="none" xmlns="http://www.w3.org/2000/svg">
<path d="M64.3888 104C88.3508 104 107.777 84.3385 107.777 60C107.777 35.6614 88.3508 16 64.3888 16C40.4265 16 21 35.6614 21 60C21 84.3385 40.4265 104 64.3888 104Z" fill="#DFEBFF"/>
<path d="M32.4661 31.5039H94.1686C96.6504 31.5039 98.5332 33.4094 98.5332 35.9212V75.5039C98.5332 78.0157 96.6504 79.9212 94.1686 79.9212H32.4661C29.9843 79.9212 28.1016 78.0157 28.1016 75.5039V35.9212C28.1016 33.4094 30.1555 31.5039 32.4661 31.5039Z" fill="#83ADE3"/>
<path d="M99.7316 56.8815V76.3697C99.7316 78.8815 97.7633 80.9602 95.1959 80.9602H31.7818C29.3 80.9602 27.2461 78.8815 27.2461 76.3697V55.2358" stroke="#1676EE" stroke-width="3" stroke-linecap="round" stroke-linejoin="round"/>
<path d="M94.3432 45.9683H74.3178C72.3494 45.9683 70.4667 46.6612 69.0118 47.8738L63.7915 52.2045C62.3367 53.4171 60.4539 54.11 58.4856 54.11H35.8926C33.582 54.11 31.6992 56.0155 31.6992 58.3541C31.6992 58.5273 31.6992 58.7871 31.7848 58.9604L35.9782 81.3068C36.3205 83.3856 38.0321 84.9446 40.1716 84.9446H88.5238C90.5777 84.9446 92.3749 83.4722 92.7172 81.3934L98.5366 50.8187C98.9645 48.4801 97.424 46.4013 95.1134 45.9683C94.7711 45.9683 94.5143 45.9683 94.3432 45.9683Z" fill="white"/>
<path d="M81.8101 37.1064C81.4678 38.5789 80.9543 40.1379 80.3553 41.4372C78.7293 44.6419 76.1619 47.1537 72.9954 48.7993C69.7434 50.445 65.8923 51.1379 62.0415 50.2718C52.9701 48.3663 47.1507 39.3584 49.0334 30.1771C50.9162 20.9961 59.7309 15.0197 68.802 17.0118C72.0541 17.7047 74.8782 19.3504 77.2744 21.6024C81.2966 25.6732 83.0082 31.563 81.8101 37.1064Z" fill="white"/>
<path d="M63.914 37.9639L59.9139 33.9135L59.9139 33.9135C59.7949 33.7931 59.6535 33.6974 59.4976 33.632C59.3417 33.5667 59.1745 33.533 59.0056 33.533C58.6644 33.533 58.3377 33.6702 58.0974 33.9135C57.9784 34.0339 57.8842 34.1767 57.8199 34.3337C57.7557 34.4906 57.7227 34.6588 57.7227 34.8285C57.7227 34.9982 57.7557 35.1663 57.8199 35.3232C57.8842 35.4802 57.9784 35.623 58.0974 35.7434L64.2872 42.0081C64.4061 42.1288 64.5475 42.2246 64.7035 42.2901C64.8594 42.3556 65.0267 42.3894 65.1957 42.3894C65.3647 42.3894 65.532 42.3556 65.6879 42.2901C65.8438 42.2246 65.9852 42.1288 66.1042 42.0081L72.294 35.7434C72.413 35.623 72.5072 35.4802 72.5714 35.3232C72.6357 35.1663 72.6687 34.9982 72.6687 34.8285C72.6687 34.6588 72.6357 34.4906 72.5714 34.3337C72.5072 34.1767 72.413 34.0339 72.294 33.9135C72.175 33.7931 72.0335 33.6974 71.8777 33.632C71.7218 33.5667 71.5546 33.533 71.3857 33.533C71.2168 33.533 71.0496 33.5667 70.8938 33.632C70.7379 33.6974 70.5965 33.7931 70.4775 33.9135L70.4774 33.9135L66.4773 37.9639V26.4753C66.4773 26.133 66.343 25.8042 66.103 25.5613C65.8629 25.3182 65.5366 25.1812 65.1957 25.1812C64.8548 25.1812 64.5285 25.3182 64.2883 25.5613L64.4642 25.735L64.2883 25.5613C64.0483 25.8042 63.914 26.133 63.914 26.4753V37.9639Z" fill="#82ACE2" stroke="#82ACE3" stroke-width="0.5"/>
<g filter="url(#filter0_dd)">
<path d="M103.612 39.9924H77.5957C75.0284 39.9924 72.6321 40.8585 70.6638 42.5042L63.8175 48.1341C61.9347 49.6932 59.4529 50.6459 56.8855 50.6459H27.4462C24.4509 50.6459 22.0547 53.1577 22.0547 56.1026C22.0547 56.3624 22.0547 56.6223 22.1403 56.8821L27.5318 86.0711C27.9597 88.8429 30.2703 90.835 32.9233 90.835H95.9097C98.6482 90.835 100.873 88.9295 101.301 86.1577L108.918 46.2286C109.431 43.1971 107.463 40.5121 104.468 39.9058C104.211 39.9924 103.869 39.9924 103.612 39.9924Z" fill="white"/>
</g>
<defs>
<filter id="filter0_dd" x="0.0546875" y="27.9058" width="130.944" height="95.9293" filterUnits="userSpaceOnUse" color-interpolation-filters="sRGB">
<feFlood flood-opacity="0" result="BackgroundImageFix"/>
<feColorMatrix in="SourceAlpha" type="matrix" values="0 0 0 0 0 0 0 0 0 0 0 0 0 0 0 0 0 0 127 0" result="hardAlpha"/>
<feOffset dy="-4"/>
<feGaussianBlur stdDeviation="4"/>
<feColorMatrix type="matrix" values="0 0 0 0 0.2 0 0 0 0 0.454902 0 0 0 0 0.764706 0 0 0 0.12 0"/>
<feBlend mode="normal" in2="BackgroundImageFix" result="effect1_dropShadow"/>
<feColorMatrix in="SourceAlpha" type="matrix" values="0 0 0 0 0 0 0 0 0 0 0 0 0 0 0 0 0 0 127 0" result="hardAlpha"/>
<feOffset dy="11"/>
<feGaussianBlur stdDeviation="11"/>
<feColorMatrix type="matrix" values="0 0 0 0 0.2 0 0 0 0 0.454902 0 0 0 0 0.764706 0 0 0 0.27 0"/>
<feBlend mode="normal" in2="effect1_dropShadow" result="effect2_dropShadow"/>
<feBlend mode="normal" in="SourceGraphic" in2="effect2_dropShadow" result="shape"/>
</filter>
</defs>
</svg>
