<svg width="120" height="120" viewBox="0 0 120 120" fill="none" xmlns="http://www.w3.org/2000/svg">
<mask id="mask0" mask-type="alpha" maskUnits="userSpaceOnUse" x="0" y="0" width="120" height="120">
<rect width="120" height="120" fill="#C4C4C4"/>
</mask>
<g mask="url(#mask0)">
<path d="M56.4604 102.669C80.0206 102.669 99.1211 83.5288 99.1211 59.8348C99.1211 36.1407 80.0206 17 56.4604 17C32.9003 17 13.7998 36.1407 13.7998 59.8348C13.7998 83.5288 32.9003 102.669 56.4604 102.669Z" fill="#DFEBFF"/>
<path d="M104.003 46.4273C105.908 46.4273 107.452 44.8794 107.452 42.9701C107.452 41.0608 105.908 39.513 104.003 39.513C102.098 39.513 100.553 41.0608 100.553 42.9701C100.553 44.8794 102.098 46.4273 104.003 46.4273Z" fill="#DFEBFF"/>
<path d="M109.053 32.8507C110.354 32.8507 111.409 31.7936 111.409 30.4898C111.409 29.1858 110.354 28.1288 109.053 28.1288C107.752 28.1288 106.697 29.1858 106.697 30.4898C106.697 31.7936 107.752 32.8507 109.053 32.8507Z" fill="#DFEBFF"/>
<path d="M10.856 48.8715C12.1572 48.8715 13.212 47.8145 13.212 46.5106C13.212 45.2067 12.1572 44.1497 10.856 44.1497C9.55482 44.1497 8.5 45.2067 8.5 46.5106C8.5 47.8145 9.55482 48.8715 10.856 48.8715Z" fill="#DFEBFF"/>
<path d="M71.1008 35.082C85.6265 35.082 97.3434 45.668 97.3434 58.682C97.3434 66.1601 93.4695 72.8613 87.3691 77.2316V87.0407C87.3691 88.4004 85.82 89.0801 84.8515 88.3032L76.5235 81.7962C74.7805 82.0876 73.0375 82.2818 71.1976 82.2818C56.6722 82.2818 44.9551 71.6959 44.9551 58.682C44.9551 45.668 56.6722 35.082 71.1008 35.082Z" fill="#8EB5E8"/>
<g filter="url(#filter0_d)">
<path d="M45.4378 33.9143C29.2662 33.9143 16.1934 45.6657 16.1934 60.1364C16.1934 68.4886 20.551 75.9668 27.3295 80.7256V91.603C27.3295 93.0597 28.9756 93.9338 30.1377 92.9626L39.4339 85.7758C41.3706 86.1643 43.3074 86.3585 45.3409 86.3585C61.5125 86.3585 74.5853 74.6071 74.5853 60.1364C74.5853 45.6657 61.5125 33.9143 45.4378 33.9143Z" fill="white"/>
</g>
<path d="M32.6956 63.4099C34.4605 63.4099 35.8912 61.975 35.8912 60.2049C35.8912 58.435 34.4605 57 32.6956 57C30.9307 57 29.5 58.435 29.5 60.2049C29.5 61.975 30.9307 63.4099 32.6956 63.4099Z" fill="#8DB4E7"/>
<path d="M45.0862 63.4099C46.851 63.4099 48.2817 61.975 48.2817 60.2049C48.2817 58.435 46.851 57 45.0862 57C43.3213 57 41.8906 58.435 41.8906 60.2049C41.8906 61.975 43.3213 63.4099 45.0862 63.4099Z" fill="#8DB4E7"/>
<path d="M57.4768 63.4099C59.2417 63.4099 60.6724 61.975 60.6724 60.2049C60.6724 58.435 59.2417 57 57.4768 57C55.7119 57 54.2812 58.435 54.2812 60.2049C54.2812 61.975 55.7119 63.4099 57.4768 63.4099Z" fill="#8DB4E7"/>
</g>
<defs>
<filter id="filter0_d" x="-5.80664" y="22.9143" width="102.392" height="103.458" filterUnits="userSpaceOnUse" color-interpolation-filters="sRGB">
<feFlood flood-opacity="0" result="BackgroundImageFix"/>
<feColorMatrix in="SourceAlpha" type="matrix" values="0 0 0 0 0 0 0 0 0 0 0 0 0 0 0 0 0 0 127 0"/>
<feOffset dy="11"/>
<feGaussianBlur stdDeviation="11"/>
<feColorMatrix type="matrix" values="0 0 0 0 0.198056 0 0 0 0 0.453932 0 0 0 0 0.766667 0 0 0 0.25 0"/>
<feBlend mode="normal" in2="BackgroundImageFix" result="effect1_dropShadow"/>
<feBlend mode="normal" in="SourceGraphic" in2="effect1_dropShadow" result="shape"/>
</filter>
</defs>
</svg>
